<?xml version="1.0" encoding="UTF-8"?>
<svg id="_レイヤー_1" data-name="レイヤー 1" xmlns="http://www.w3.org/2000/svg" viewBox="0 0 31.75 31.75">
  <defs>
    <style>
      .cls-1 {
        fill: #dcdddd;
        stroke: #536247;
        stroke-miterlimit: 10;
        stroke-width: 2.5px;
      }

      .cls-2 {
        fill: #536247;
      }
    </style>
  </defs>
  <circle class="cls-1" cx="15.87" cy="15.87" r="14.62"/>
  <g>
    <path class="cls-2" d="M13.15,18.07c-.11-.32,.27-.46,.51-.51,.29-.06,.58-.1,.87-.18,.58-.16,1.14-.4,1.62-.77,.1-.07,.1-.24-.04-.27-.33-.09-.72-.09-1.01,.12-.3,.21-.31,.59-.38,.92-.08,.41-.23,.82-.35,1.22-.07,.21-.14,.42-.2,.63-.04,.13-.08,.45-.24,.48-.19,.03-.11,.32,.08,.29,.32-.05,.38-.47,.46-.72,.13-.4,.26-.81,.39-1.21,.06-.19,.11-.38,.15-.57,.04-.17,.05-.34,.1-.51,.11-.41,.57-.45,.92-.35l-.04-.27c-.57,.44-1.25,.69-1.95,.84-.31,.06-.66,.08-.92,.26-.22,.16-.36,.44-.27,.71,.06,.18,.35,.1,.29-.08h0Z"/>
    <path class="cls-2" d="M15.4,18.84c.09-.15,.42-.4,.5-.1,.05,.19-.04,.48-.16,.62-.08,.09-.14,.08-.12-.04,.01-.09,.06-.17,.12-.23,.14-.14,.33-.2,.52-.14l-.1-.1c.09,.27,.33,.46,.62,.44,.19-.01,.22-.18,.29-.34,.04-.09,.07-.2,.12-.28,.08-.11,.16-.07,.27,0,.28,.16,.53,.39,.86,.43,.27,.03,.55-.06,.69-.31,.1-.17-.16-.32-.26-.15-.11,.18-.35,.19-.53,.13-.24-.08-.43-.25-.64-.37-.17-.1-.38-.16-.55-.01-.18,.16-.25,.46-.34,.68l.09-.07c-.17,.02-.27-.09-.34-.22-.05-.1-.12-.12-.23-.13-.21-.03-.42,.04-.59,.16s-.31,.33-.31,.55c0,.18,.09,.38,.29,.41,.47,.06,.69-.78,.58-1.12-.06-.2-.27-.33-.48-.32-.25,0-.44,.18-.56,.39-.1,.17,.16,.32,.26,.15h0Z"/>
    <path class="cls-2" d="M18.29,17.87c-.44,.51-.87,1.03-1.31,1.54-.05,.06-.06,.15,0,.21,.05,.05,.16,.06,.21,0l1.31-1.54c.05-.06,.06-.15,0-.21-.05-.05-.16-.06-.21,0h0Z"/>
  </g>
  <path class="cls-2" d="M12.22,20.85c-.89-1.1-1.52-2.38-1.83-3.76-.34-1.49,.14-2.67,1.21-3.74,1-.99,2.3-1.6,3.67-1.91,.72-.16,1.46-.23,2.2-.24s2.41-.16,2.5,.76c.13,1.28-2.57,1.89-3.54,2.01-.91,.11-2.4,.32-3.25-.11-.99-.49-.6-1.98-.13-2.68,.69-1.03,1.85-1.83,2.87-2.51,.58-.39,1.5-.83,1.47-1.66-.01-.43-.28-.75-.59-1.02-.16-.13-.38-.23-.51-.39-.38-.48,.03-.91,.45-1.23,.53-.41,0-1.32-.53-.91-1.11,.86-1.71,2.05-.45,3.06,.13,.1,.58,.35,.57,.54,0,.17-.55,.44-.66,.51-.71,.47-1.39,.96-2.05,1.51-1.09,.91-2.09,2.03-2.1,3.53-.01,1.22,.66,2.18,1.87,2.39,1.46,.26,3.16,.14,4.58-.29,1.2-.36,3.29-1.28,3.18-2.84-.13-1.84-2.7-1.77-4-1.72-1.86,.07-3.74,.53-5.28,1.6-1.38,.97-2.8,2.6-2.69,4.4,.11,1.98,1.07,3.91,2.3,5.43,.42,.53,1.16-.22,.74-.74h0Z"/>
  <path class="cls-2" d="M11.15,21.2c.58,.76,1.23,1.43,2,1.99,.82,.61,1.69,.56,2.68,.53,.8-.03,1.59-.06,2.31-.44s1.35-1.07,1.84-1.76c.71-.98,1.22-2.12,1.45-3.3,.18-.96,.23-1.94,.36-2.91,.11-.81,.44-1.9,1.3-2.2,1.35-.46,1.91,1.26,1.56,2.24-.18,.51-.46,1.09-.87,1.46-.15,.13-.49,.41-.72,.36-.53-.11-.02-.47,.21-.53,.66-.15,.38-1.17-.28-1.01-.82,.19-1.55,1.06-1.08,1.91s1.56,.78,2.27,.29c1.66-1.15,2.46-4.21,.48-5.44-.93-.58-2.03-.46-2.82,.3-.71,.69-.99,1.68-1.11,2.63-.24,1.93-.35,3.66-1.43,5.32-.39,.6-.87,1.21-1.48,1.59-.54,.34-1.11,.38-1.74,.41-.72,.03-1.59,.17-2.21-.24-.69-.46-1.3-1.1-1.81-1.75-.41-.53-1.32,0-.91,.53h0Z"/>
  <path class="cls-2" d="M11.74,21.03c-1.56,.21-4.68,.73-4.16,2.98,.23,1.01,1.23,1.5,2.13,1.81,1.26,.44,2.64,.52,3.97,.55,1.75,.03,3.5-.03,5.23-.29s4.05-.65,5.17-2.25c.7-1,.24-2.2-.81-2.68-.99-.45-2.18-.51-3.25-.52-.68,0-.68,1.04,0,1.05,.93,0,2.15,0,2.97,.49,1.21,.74-.64,1.88-1.34,2.19-1.63,.71-3.64,.89-5.4,.93-1.99,.04-4.07,.2-6-.39-.45-.14-.98-.3-1.33-.62-.65-.59-.23-1.26,.44-1.57,.82-.38,1.77-.54,2.67-.66,.67-.09,.38-1.1-.28-1.01h0Z"/>
</svg>