<?xml version="1.0" encoding="UTF-8"?>
<svg id="_レイヤー_1" data-name="レイヤー 1" xmlns="http://www.w3.org/2000/svg" viewBox="0 0 262.44 83.93">
  <defs>
    <style>
      .cls-1 {
        fill: #557968;
      }
    </style>
  </defs>
  <g>
    <g>
      <g>
        <g>
          <path class="cls-1" d="M121.5,83.93c-.06,0-.12-.01-.18-.03-.26-.1-.39-.39-.29-.64,2.06-5.44,4.37-9.64,7.26-13.21,1.65-2.03,3.75-3.88,6.24-5.47,.38-.24,.75-.49,1.12-.73,1.78-1.16,3.62-2.37,5.66-3.17,2.19-.86,4.33-1.46,6.87-2.1,1.36-.34,2.76-.45,4.12-.56,1.44-.11,2.93-.23,4.31-.63,.41-.12,.8-.28,1.19-.43,.54-.22,1.11-.44,1.72-.57,1.59-.34,2.88-.69,3.92-1.07,.43-.16,.87-.33,1.3-.5,.97-.38,1.98-.78,3.03-1.05,.69-.18,1.37-.25,2.03-.31,.49-.05,.96-.09,1.44-.18,1.03-.19,2.04-.25,3.02-.3,.63-.03,1.26-.07,1.9-.14,.8-.09,1.59-.24,2.43-.4,.57-.11,1.15-.22,1.73-.31,1.49-.23,2.99-.27,4.45-.31,1.25-.03,2.53-.07,3.77-.23,3.77-.48,7.18-.71,10.45-.71,2.58,0,5.2-.47,7.73-.93,1.27-.23,2.59-.47,3.89-.64,1.64-.22,3.19-.71,4.82-1.23,.67-.21,1.33-.42,2.02-.62,1.2-.34,2.4-.81,3.57-1.27,1.12-.44,2.27-.89,3.44-1.23,3.76-1.12,6.9-3.39,10.31-6.02,.38-.29,.76-.57,1.13-.85,1.41-1.04,2.74-2.03,3.84-3.53,1.33-1.81,2.62-3.62,3.91-5.43l.82-1.15c1.02-1.42,2.08-2.77,3.1-4.07,.54-.68,1.07-1.36,1.61-2.06,.65-.84,1.26-1.58,2.12-2.44,.3-.3,.56-.71,.85-1.14,.26-.41,.54-.82,.86-1.18,.19-.2,.5-.22,.71-.03,.2,.19,.22,.5,.03,.71-.27,.29-.51,.66-.76,1.05-.3,.46-.61,.93-.98,1.3-.82,.82-1.41,1.53-2.03,2.34-.54,.7-1.08,1.39-1.62,2.07-1.02,1.29-2.07,2.63-3.07,4.03l-.82,1.15c-1.3,1.82-2.59,3.63-3.92,5.44-1.19,1.62-2.58,2.65-4.06,3.74-.37,.27-.74,.55-1.12,.84-3.5,2.69-6.71,5.01-10.63,6.18-1.13,.33-2.26,.78-3.36,1.21-1.18,.46-2.41,.94-3.66,1.3-.67,.19-1.33,.4-1.99,.61-1.6,.51-3.26,1.03-4.99,1.27-1.28,.17-2.58,.41-3.85,.64-2.58,.47-5.24,.95-7.91,.95-3.22,0-6.6,.23-10.32,.7-1.29,.16-2.6,.2-3.87,.24-1.42,.04-2.89,.08-4.32,.3-.57,.09-1.13,.2-1.69,.31-.82,.16-1.67,.32-2.51,.42-.66,.07-1.31,.11-1.96,.14-.99,.05-1.92,.1-2.89,.28-.52,.1-1.03,.15-1.53,.19-.65,.06-1.26,.12-1.87,.28-1,.26-1.97,.64-2.92,1.01-.44,.17-.88,.35-1.33,.51-1.08,.4-2.41,.76-4.05,1.11-.53,.11-1.03,.31-1.56,.52-.42,.17-.84,.33-1.29,.46-1.48,.43-3.02,.55-4.51,.66-1.32,.1-2.68,.21-3.96,.53-2.51,.63-4.61,1.23-6.75,2.06-1.95,.76-3.66,1.88-5.48,3.07-.38,.25-.75,.49-1.13,.73-2.4,1.54-4.42,3.31-6.01,5.26-2.83,3.48-5.08,7.59-7.11,12.93-.08,.2-.27,.32-.47,.32Z"/>
          <path class="cls-1" d="M253.31,18.05c-.07,0-.14-.01-.2-.04-.21-.09-.32-.31-.29-.53,.18-1.22,.36-2.31,.76-3.25,.13-.3,.29-.55,.44-.8l.17-.28c.43-.73,.91-1.34,1.46-1.99,.47-.57,1.12-1.05,1.69-1.48l.16-.12c.54-.4,1.14-.7,1.9-.94,.54-.17,1.04-.15,1.42,.05,.3,.16,.51,.44,.61,.79,.2,.7,.05,1.61-.38,2.3-.29,.47-.71,.83-1.09,1.14-.1,.08-.2,.17-.29,.25-.41,.36-.83,.63-1.23,.89-.17,.11-.34,.22-.51,.34-.45,.31-.89,.69-1.31,1.06-.19,.16-.37,.33-.56,.48-.2,.17-.45,.34-.71,.53-.53,.38-1.14,.8-1.64,1.41-.1,.12-.24,.18-.39,.18Zm6.79-8.55c-.12,0-.26,.02-.4,.07-.65,.21-1.16,.46-1.61,.79l-.16,.12c-.53,.39-1.12,.84-1.52,1.31-.52,.62-.98,1.19-1.36,1.85l-.18,.3c-.13,.21-.27,.43-.37,.67-.2,.47-.34,1-.45,1.54,.25-.19,.49-.37,.71-.52,.24-.17,.46-.32,.65-.48,.18-.15,.36-.31,.55-.47,.45-.39,.91-.79,1.4-1.13,.18-.12,.36-.24,.54-.35,.39-.25,.76-.48,1.1-.79,.1-.09,.21-.18,.31-.27,.33-.28,.68-.57,.88-.9,.28-.46,.39-1.08,.27-1.51-.03-.12-.08-.16-.13-.18-.06-.03-.14-.05-.24-.05Z"/>
        </g>
        <g>
          <g>
            <path class="cls-1" d="M252.56,32.01c-.13,0-.25-.05-.34-.14-.11-.03-.32-.06-.43-.08-.21-.03-.33-.05-.43-.09-.47-.18-.95-.31-1.44-.45-.67-.18-1.36-.22-1.89-.24l-.41-.02c-.22-.01-.43-.02-.65-.02-.28,0-.52-.02-.8-.07-.24-.04-.45-.09-.66-.14-.3-.07-.54-.14-.83-.13-.28,0-.51-.21-.51-.49,0-.28,.21-.51,.49-.51,.42-.02,.76,.08,1.1,.16,.18,.04,.36,.09,.57,.12,.22,.03,.4,.05,.63,.05,.24,0,.48,0,.72,.02l.39,.02c.58,.02,1.35,.06,2.12,.27,.51,.14,1.02,.28,1.53,.48,.03,0,.12,.02,.22,.03,.51,.07,.96,.14,1.1,.53,.09,.26-.04,.55-.3,.64-.06,.02-.11,.03-.17,.03Z"/>
            <path class="cls-1" d="M253.36,33.26c-.2,0-.38-.04-.54-.12-.08-.03-.16-.06-.24-.1-.35-.19-.59-.53-.69-.96-.1-.46-.02-.87,.24-1.18,.22-.27,.55-.43,.94-.48,.25-.1,.47-.06,.65,.02,.18,.04,.36,.13,.51,.26,.07,.05,.14,.12,.2,.18,.08,.09,.15,.19,.2,.29,.14,.17,.24,.38,.25,.64,.01,.3-.07,.69-.46,.99-.2,.2-.46,.35-.76,.41-.11,.02-.22,.04-.33,.04Z"/>
          </g>
          <g>
            <path class="cls-1" d="M241.63,33.36c-.12,0-.25-.04-.34-.13-.2-.19-.21-.5-.02-.71,.05-.05,.12-.16,.18-.27,.12-.2,.25-.42,.44-.57,0,0,.02-.05,.05-.1,.08-.14,.17-.31,.34-.42,.09-.06,.2-.14,.31-.23,.17-.13,.34-.25,.48-.35l.52-.34c.42-.27,.83-.55,1.27-.79,.46-.26,.94-.46,1.41-.66,.45-.19,.87-.37,1.28-.59l.24-.13c.37-.2,.74-.4,1.11-.62l.13-.08c.2-.12,.39-.23,.6-.33,.3-.14,.66-.42,1.02-.69,.16-.13,.32-.25,.47-.36,.23-.16,.54-.11,.7,.12,.16,.22,.11,.54-.12,.7-.14,.1-.29,.21-.44,.33-.39,.3-.8,.61-1.19,.8-.19,.09-.36,.19-.53,.29l-.14,.08c-.37,.21-.75,.42-1.13,.63l-.24,.13c-.45,.25-.91,.44-1.37,.64-.46,.2-.9,.38-1.32,.61-.41,.23-.81,.49-1.21,.75l-.53,.35c-.12,.08-.27,.19-.42,.3-.12,.09-.24,.18-.34,.25h0s-.01,.05-.04,.09c-.07,.13-.15,.27-.29,.38-.05,.04-.15,.21-.22,.31-.09,.15-.19,.3-.3,.43-.1,.1-.23,.16-.37,.16Z"/>
            <path class="cls-1" d="M251.97,27.13c-.11,0-.23-.01-.34-.04-.32-.06-.6-.26-.78-.58-.23-.4-.3-.93-.17-1.33,.15-.43,.55-.79,1.05-.92,.48-.13,.96-.04,1.29,.25,.54,.47,.81,1.33,.31,1.96-.29,.37-.84,.67-1.36,.67Z"/>
          </g>
        </g>
        <path class="cls-1" d="M239.3,41.96c-.56,0-1.11-.03-1.65-.07-.55-.03-1.09-.05-1.64-.06-.3,0-.68-.02-1.08-.04-.8-.04-1.72-.09-2.44,.04-.25,.04-.51-.11-.57-.37-.06-.25,.08-.51,.32-.6,1.66-.56,3.63-1.27,5.14-1.86,.3-.12,.6-.26,.89-.4,.41-.2,.84-.41,1.3-.56l.3-.1c.56-.18,1.14-.37,1.76-.48,1.03-.19,2.38-.38,3.73-.09,.46,.1,.91,.22,1.36,.35,.17,.05,.5,.17,.74,.37,.39,.32,.6,.66,.63,1.02,.01,.21-.03,.51-.31,.82-.51,.54-1.26,.75-1.87,.92-.31,.09-.59,.18-.86,.27l-.28,.09c-.33,.11-.67,.15-1,.19l-.33,.04c-.27,.04-.54,.1-.8,.15-.28,.06-.55,.12-.84,.16-.46,.07-.93,.11-1.4,.15h-.16c-.32,.04-.63,.05-.94,.05Zm-3.23-1.13c.55,0,1.1,.03,1.64,.07,.84,.05,1.64,.1,2.44,.03h.16c.45-.05,.9-.09,1.34-.16,.26-.04,.52-.1,.77-.15,.29-.06,.58-.12,.87-.17,.12-.02,.24-.03,.36-.04,.29-.03,.57-.07,.81-.14l.28-.09c.29-.1,.58-.19,.88-.27,.55-.15,1.12-.31,1.44-.65,.05-.08,0-.2-.21-.38-.07-.06-.24-.13-.4-.19-.42-.13-.84-.24-1.27-.33-1.18-.25-2.4-.08-3.34,.09-.56,.1-1.09,.27-1.64,.45l-.3,.1c-.4,.13-.77,.31-1.17,.5-.32,.16-.63,.31-.96,.44-.7,.27-1.51,.57-2.33,.87,.21,0,.41,.01,.59,.01h.06Z"/>
        <path class="cls-1" d="M226.31,45.35c-.1,0-.2-.03-.28-.09-.22-.15-.28-.44-.15-.67,.16-.27,.38-.6,.62-.95,.39-.58,.84-1.25,1.03-1.71,.1-.26,.2-.51,.3-.77l.29-.73c.1-.25,.21-.5,.28-.76,.04-.16,.08-.33,.12-.49,.06-.27,.12-.54,.21-.8,.17-.51,.3-1.03,.43-1.55l.11-.45c.07-.29,.18-.56,.29-.84,.06-.14,.11-.28,.16-.43,.06-.18,.12-.37,.17-.56,.07-.27,.15-.54,.25-.81,.13-.33,.29-.66,.45-.98,.13-.27,.26-.54,.38-.82,.34-.82,.68-1.43,1.12-2.05,.18-.25,.35-.51,.52-.77,.22-.33,.43-.67,.67-.99,.33-.44,.71-.82,1.07-1.18l.11-.11c.42-.46,.8-.55,1.17-.33,.48,.3,.47,.93,.46,1.27,0,1.05-.28,1.91-.54,2.74-.07,.23-.15,.47-.22,.7-.22,.76-.58,1.49-.93,2.19-.19,.38-.38,.77-.55,1.15-.43,1.02-.98,2-1.5,2.95-.6,1.08-1.23,2.18-2.07,3.21-.1,.12-.2,.24-.3,.36-.22,.25-.43,.5-.61,.78-.05,.08-.1,.15-.14,.23-.11,.19-.23,.37-.38,.55-.09,.11-.22,.25-.37,.42-.42,.46-1.04,1.16-1.76,2.08-.1,.12-.24,.19-.39,.19Zm8.77-17.71l-.04,.04c-.35,.35-.69,.69-.98,1.07-.23,.3-.43,.62-.64,.93-.18,.27-.35,.54-.54,.81-.4,.56-.7,1.11-1.01,1.86-.12,.29-.26,.58-.4,.87-.15,.3-.29,.61-.42,.92-.09,.23-.15,.46-.22,.69-.06,.21-.11,.42-.19,.63-.05,.16-.12,.31-.18,.47-.09,.24-.19,.47-.25,.72l-.11,.45c-.13,.53-.27,1.08-.45,1.62-.08,.23-.13,.47-.19,.71-.04,.18-.08,.36-.13,.53-.05,.2-.12,.39-.2,.58,.02-.02,.04-.05,.06-.07,.1-.11,.2-.23,.29-.34,.79-.97,1.4-2.03,1.95-3.03,.53-.96,1.06-1.91,1.47-2.89,.17-.4,.37-.8,.57-1.21,.33-.66,.67-1.34,.86-2.02,.07-.25,.15-.49,.22-.73,.25-.8,.49-1.55,.49-2.34v-.11s0-.09,0-.14Z"/>
        <g>
          <g>
            <path class="cls-1" d="M228.3,52.47c-.11,0-.22-.04-.31-.11-.06-.04-.31-.1-.45-.14-.2-.05-.4-.1-.52-.16l-.31-.15c-.17-.08-.35-.16-.52-.24-.43-.19-.85-.37-1.29-.54-.26-.1-.51-.22-.75-.34-.25-.12-.5-.25-.78-.34-.45-.15-.89-.32-1.33-.49l-.66-.25c-.31-.12-.71-.17-1.09-.21-.15-.02-.3-.04-.45-.06-.27-.04-.53-.1-.79-.17-.17-.04-.34-.08-.5-.12-.67-.13-1.34-.2-2.24-.21-.28,0-.5-.23-.49-.51,0-.28,.21-.46,.51-.49,.97,.01,1.69,.08,2.43,.23,.18,.04,.36,.08,.54,.12,.23,.06,.47,.11,.71,.15,.14,.02,.28,.04,.42,.06,.44,.05,.89,.11,1.31,.27l.67,.25c.43,.16,.86,.33,1.29,.47,.31,.11,.61,.25,.9,.4,.22,.11,.44,.22,.66,.3,.46,.17,.9,.36,1.35,.56,.18,.08,.36,.17,.54,.25l.31,.14c.08,.04,.21,.06,.34,.1,.31,.08,.63,.15,.84,.33,.21,.17,.25,.49,.07,.7-.1,.12-.24,.18-.39,.18Z"/>
            <path class="cls-1" d="M228.97,54.15c-.26,0-.49-.08-.69-.22-.36-.27-.59-.65-.65-1.05-.13-.47-.06-.96,.2-1.28,.03-.04,.06-.07,.1-.11,.14-.17,.33-.3,.54-.37,.38-.23,.84-.31,1.29-.18,.54,.14,.95,.62,1.06,1.24,.11,.61-.09,1.19-.54,1.52-.23,.17-.53,.32-.84,.38-.16,.05-.32,.08-.48,.08Z"/>
          </g>
          <g>
            <path class="cls-1" d="M222.62,57.41c-.28,0-.5-.22-.5-.5v-.32c.01-.25,.02-.5,0-.73-.05-.36-.1-.72-.16-1.08l-.05-.32c-.12-.81-.31-1.56-.57-2.24-.11-.3-.23-.61-.33-.91-.24-.72-.66-1.34-1.11-1.99-.16-.23-.1-.54,.13-.7,.23-.15,.54-.1,.69,.13,.47,.68,.95,1.39,1.23,2.24,.1,.29,.21,.59,.32,.88,.28,.75,.49,1.57,.62,2.44l.05,.32c.06,.37,.11,.74,.16,1.1,.04,.28,.03,.6,.02,.88v.3c0,.28-.23,.5-.5,.5Z"/>
            <path class="cls-1" d="M222.6,59.74c-.43,0-.87-.24-1.2-.67-.35-.46-.47-.98-.33-1.42,.02-.09,.05-.18,.09-.27,.25-.54,.79-.91,1.42-.97,.2-.02,.39,0,.58,.05,.3,.04,.57,.16,.77,.36,.28,.28,.42,.7,.38,1.15,0,0,0,0,0,.01,0,.11,0,.23-.02,.34-.11,.72-.76,1.31-1.55,1.41-.04,0-.09,0-.13,0Z"/>
          </g>
        </g>
        <path class="cls-1" d="M206.58,50.99c-.2,0-.38-.12-.46-.31-.1-.23,0-.5,.21-.62,.84-.5,1.7-1.04,2.25-1.64,.16-.18,.37-.35,.58-.51,.14-.11,.28-.22,.39-.33,.44-.43,.81-.93,1.2-1.45,.21-.29,.42-.57,.65-.85,.2-.25,.41-.49,.62-.72,.33-.38,.65-.74,.92-1.12,.42-.59,.87-1.11,1.48-1.7,.15-.15,.3-.3,.45-.45,.31-.32,.62-.65,.98-.93,.34-.28,.71-.48,1.08-.68,.2-.11,.4-.22,.58-.34,.47-.3,.88-.45,1.31-.49,.67-.06,1.17,.06,1.48,.35,.62,.59,.49,1.67,.19,2.4-.46,1.11-1.21,1.85-1.81,2.38-.16,.14-.3,.28-.45,.42-.25,.24-.5,.49-.8,.71l-.59,.43c-.31,.23-.63,.46-.94,.7l-.2,.16c-.27,.21-.54,.42-.83,.6-.21,.13-.43,.23-.65,.33-.19,.09-.37,.17-.55,.28-.43,.26-.88,.44-1.32,.6-.41,.16-.8,.3-1.14,.51l-.28,.17c-.26,.16-.52,.33-.8,.46-.18,.09-.39,.21-.62,.35-.65,.39-1.53,.92-2.78,1.26-.04,.01-.09,.02-.13,.02Zm12.53-11.16c-.07,0-.14,0-.22,0-.25,.02-.52,.13-.85,.33-.21,.13-.42,.25-.64,.37-.34,.19-.66,.37-.94,.59-.31,.25-.59,.54-.88,.85-.16,.16-.31,.32-.47,.48-.56,.54-.98,1.03-1.36,1.56-.31,.43-.65,.82-.99,1.2-.2,.23-.4,.46-.6,.7-.22,.27-.42,.54-.62,.81-.29,.39-.58,.78-.91,1.16l.03-.02c.42-.26,.87-.43,1.31-.59,.42-.16,.81-.31,1.16-.52,.21-.13,.43-.23,.65-.34,.19-.09,.37-.17,.54-.28,.26-.16,.5-.35,.74-.54l.2-.16c.31-.24,.64-.48,.96-.71l.58-.42c.26-.19,.48-.41,.71-.63,.16-.15,.32-.31,.49-.46,.78-.68,1.24-1.28,1.54-2,.19-.46,.26-1.09,.05-1.3-.03-.03-.17-.09-.48-.09Z"/>
        <path class="cls-1" d="M212.44,60.31c-.07,0-.13,0-.2,0h-.15s-.02,0-.02,0c-2.51,0-5.15-.93-7.07-2.49-1.06-.86-2.16-1.82-3.27-2.84-.43-.4-.95-.81-1.6-1.26-.14-.1-.27-.21-.39-.32-.1-.09-.2-.18-.31-.25-.54-.38-1.24-.63-1.92-.87-.24-.09-.48-.17-.7-.26-.24-.09-.37-.35-.3-.6,.07-.25,.31-.4,.57-.36,1.22,.21,1.79,.42,2.25,.58l.47,.16c.17,.06,.34,.11,.51,.18l.4,.17c.39,.16,.77,.32,1.15,.52l.68,.37c1.02,.56,2.07,1.13,3.15,1.55,.25,.1,.5,.19,.75,.28,.34,.12,.68,.24,1.02,.38,.27,.11,.54,.23,.81,.34l.73,.31c.88,.37,1.7,.76,2.49,1.2,.14,.08,.3,.15,.48,.23,.71,.32,1.68,.76,1.89,1.68,.1,.44-.04,.72-.17,.88-.3,.37-.81,.41-1.24,.41Zm-.35-1h.17c.17,0,.56,.01,.66-.06-.14-.45-.82-.76-1.37-1-.2-.09-.39-.18-.55-.26-.77-.42-1.55-.8-2.39-1.15l-.74-.32c-.26-.11-.53-.23-.79-.34-.32-.13-.65-.25-.97-.37-.26-.09-.52-.19-.78-.29-1.14-.45-2.22-1.04-3.26-1.61h-.02c.13,.1,.26,.21,.38,.32,1.09,1.01,2.18,1.96,3.22,2.8,1.74,1.42,4.15,2.26,6.44,2.26h.02Z"/>
        <g>
          <g>
            <path class="cls-1" d="M183.95,52.85s-.09,0-.14,0c-.28-.02-.48-.26-.46-.54,.02-.28,.26-.48,.54-.46,.46,.04,1.12-.29,1.42-.52,.04-.04,.13-.14,.23-.25,.14-.16,.29-.33,.39-.41,.12-.11,.25-.21,.39-.31,.22-.16,.42-.32,.55-.5,.12-.16,.23-.32,.35-.48,.21-.3,.42-.59,.66-.88,.21-.24,.36-.53,.53-.83,.08-.14,.16-.29,.25-.43,.39-.65,.82-1.33,1.32-1.94,.11-.14,.23-.27,.35-.39,.11-.12,.21-.23,.31-.35,.05-.06,.09-.14,.14-.22,.08-.15,.18-.34,.37-.52,.2-.19,.52-.17,.71,.03,.19,.2,.17,.52-.03,.71-.06,.05-.1,.12-.16,.24-.06,.11-.13,.25-.25,.39-.11,.14-.23,.27-.35,.4-.11,.11-.21,.23-.31,.35-.46,.56-.87,1.21-1.24,1.83-.08,.13-.15,.26-.23,.4-.18,.33-.37,.67-.64,.99-.22,.26-.42,.54-.61,.81-.12,.17-.24,.34-.37,.5-.22,.29-.5,.5-.75,.69-.11,.09-.23,.17-.33,.26-.07,.07-.19,.2-.3,.33-.16,.18-.31,.34-.37,.39-.34,.26-1.17,.72-1.96,.72Z"/>
            <path class="cls-1" d="M191.83,45.27c-.25,0-.5-.07-.75-.22-.64-.38-.87-1.23-.73-1.94,.02-.52,.24-.92,.67-1.21,.5-.33,1.33-.55,1.97-.23,.71,.35,1.09,1.3,1.03,2.02-.04,.59-.59,1.07-1.68,1.47-.18,.07-.36,.1-.53,.1Z"/>
          </g>
          <g>
            <path class="cls-1" d="M187.79,49.89c-.21,0-.41-.14-.48-.35-.08-.26,.06-.54,.33-.63,1.03-.32,2.05-.65,3.08-.96l.26-.08c.55-.17,1.12-.35,1.7-.48,.15-.03,.3-.06,.45-.09,.36-.07,.7-.14,1.02-.25,.36-.13,.81-.19,1.35-.2,0,0,.01,0,.02,0h0c.27,0,.51,.23,.51,.5s-.21,.5-.49,.5c-.46,0-.8,.05-1.07,.14-.38,.13-.77,.21-1.15,.29l-.43,.09c-.54,.12-1.09,.29-1.62,.46l-.26,.08c-1.03,.32-2.05,.64-3.08,.96-.05,.02-.1,.02-.15,.02Z"/>
            <path class="cls-1" d="M196.7,48.81c-.22,0-.34-.04-.5-.12,0,0,0,0,0,0-.15-.02-.29-.07-.43-.16-.23-.14-.42-.37-.55-.66-.01-.03-.02-.05-.03-.08-.04-.07-.08-.15-.11-.23-.2-.48-.12-1,.19-1.39,0,0,0,0,0,0,.27-.43,.71-.68,1.2-.7,.57-.04,1.13,.26,1.47,.74,.41,.57,.44,1.12,.09,1.63-.29,.43-.66,.97-1.33,.97Z"/>
          </g>
        </g>
        <path class="cls-1" d="M188.78,58.85c-.08,0-.16,0-.25,0h-.31c-.75,0-1.52,0-2.29-.21-.18-.05-.37-.08-.56-.11-.28-.05-.57-.1-.87-.2-.35-.12-.68-.27-1.02-.42-.22-.1-.44-.2-.67-.29-.67-.26-1.32-.55-1.98-.84-.94-.41-1.91-.84-2.89-1.17-1.45-.49-2.82-1.28-3.34-1.62-.19-.12-.27-.36-.2-.57s.26-.36,.49-.35l.85,.03c.98,.03,1.96,.07,2.95,.07,.87,0,1.8,.05,2.85,.15,1.25,.12,2.42,.61,3.55,1.07l.49,.2c.45,.18,.95,.45,1.47,.8,.17,.11,.35,.21,.53,.31,.27,.15,.54,.3,.79,.49,.32,.24,.64,.51,.94,.79,.21,.2,.44,.45,.57,.73,.27,.58-.08,.87-.24,.97-.24,.14-.53,.17-.87,.17Zm.22-.69h0Zm-12.03-4.02c.41,.19,.85,.37,1.3,.52,1.02,.35,2.01,.78,2.97,1.2,.65,.28,1.29,.57,1.95,.83,.24,.09,.48,.2,.72,.31,.3,.14,.61,.28,.92,.39,.23,.08,.47,.12,.72,.16,.22,.04,.43,.07,.64,.13,.65,.17,1.33,.17,2.04,.17h.33c.05,0,.13,0,.21,0-.06-.06-.11-.12-.15-.15-.27-.25-.56-.5-.84-.71-.22-.16-.45-.29-.68-.42-.2-.11-.4-.22-.6-.35-.47-.31-.9-.55-1.29-.7l-.49-.2c-1.06-.44-2.16-.89-3.27-1-1.73-.17-3.08-.14-4.48-.18Z"/>
        <path class="cls-1" d="M160.3,57.23c-.15,0-.29-.06-.39-.18-.16-.2-.15-.49,.03-.67,.29-.29,.7-.58,1.06-.85,.25-.18,.48-.34,.62-.48,.19-.17,.28-.27,.42-.42l.43-.45c.41-.42,.84-.86,1.18-1.33,.2-.27,.44-.5,.67-.72l.25-.24c.2-.2,.38-.41,.56-.63,.12-.14,.24-.28,.36-.42,.1-.11,.2-.23,.29-.35,.15-.18,.29-.36,.46-.53,.14-.14,.28-.28,.43-.41,.14-.13,.28-.26,.41-.4,.15-.16,.32-.3,.49-.44,.1-.08,.19-.16,.29-.25,.26-.24,.5-.42,.73-.57,.11-.07,.22-.15,.33-.22,.18-.13,.37-.25,.56-.36,.24-.13,.48-.25,.73-.36,.23-.11,.43-.17,.63-.24l.37-.13c.14-.05,.29-.11,.43-.15,.21-.06,.43-.11,.65-.16,.22-.05,.41-.1,.63-.07,.13,.02,.25,.09,.33,.2,.08,.11,.11,.25,.09,.38-.03,.17-.1,.31-.16,.42-.12,.25-.2,.42-.29,.58-.16,.31-.36,.61-.57,.86-.12,.14-.24,.28-.37,.42-.14,.16-.27,.31-.41,.47-.19,.23-.4,.43-.61,.64l-.24,.23c-.67,.68-1.48,1.31-2.39,1.9l-.47,.3c-.64,.41-1.3,.84-1.99,1.21-.37,.19-.72,.42-1.07,.64-.2,.13-.4,.25-.61,.37-.23,.14-.46,.3-.68,.45l-.27,.18c-.08,.05-.12,.1-.17,.15-.08,.08-.17,.17-.33,.27-.1,.07-.29,.16-.52,.29-.42,.22-1,.52-1.65,.94-.08,.06-.18,.08-.27,.08Zm11.7-9.83s-.05,.01-.07,.02c-.12,.03-.24,.08-.35,.12-.09,.03-.18,.07-.27,.1l-.13,.04c-.17,.06-.33,.11-.49,.18-.26,.12-.48,.23-.7,.35-.17,.09-.32,.2-.48,.31-.12,.09-.25,.17-.37,.25-.18,.12-.38,.27-.59,.46-.1,.09-.21,.18-.32,.28-.14,.12-.29,.24-.42,.38-.15,.15-.3,.29-.45,.43-.13,.12-.27,.25-.4,.38-.14,.14-.27,.3-.39,.45-.11,.13-.21,.26-.33,.39-.12,.13-.23,.26-.34,.39-.2,.23-.4,.47-.62,.69-.09,.08-.18,.17-.27,.26-.2,.19-.41,.39-.55,.58-.03,.04-.06,.08-.09,.12,.33-.21,.67-.42,1.02-.6,.65-.35,1.3-.76,1.92-1.16l.47-.3c.85-.55,1.6-1.14,2.22-1.76l.25-.25c.18-.18,.37-.36,.53-.55,.14-.17,.28-.33,.43-.5,.12-.13,.23-.27,.35-.4,.16-.19,.31-.41,.43-.65Z"/>
        <path class="cls-1" d="M163.29,66.04c-.18,0-.37-.01-.54-.03l-.21-.02c-.61-.04-1.16-.11-1.62-.2-.73-.15-1.43-.39-2.15-.74-.1-.05-.2-.09-.3-.13-.21-.09-.43-.19-.63-.3l-.31-.19c-.18-.11-.35-.21-.54-.31-.58-.31-1.21-.78-1.87-1.39-.19-.17-.38-.34-.58-.51-.34-.29-.69-.58-1-.92-.39-.42-.88-.75-1.41-1.09-.27-.18-.49-.29-.7-.39l-.21-.11c-.31-.16-.62-.24-.99-.32-.17-.04-.35-.08-.53-.14-.25-.07-.4-.32-.35-.58,.05-.25,.29-.43,.55-.4,1.42,.16,2.1,.32,2.84,.51,.1,.03,.2,.04,.3,.06,.16,.03,.31,.05,.47,.1,.16,.05,.31,.1,.46,.15,.12,.04,.24,.08,.36,.12,.45,.14,.91,.28,1.36,.4l.31,.08c.41,.1,.83,.21,1.22,.39,.11,.05,.23,.09,.34,.14,.13,.05,.26,.1,.39,.16l.16,.07c.18,.08,.35,.16,.54,.23,.43,.16,.82,.43,1.18,.67l.25,.17c.26,.17,.49,.36,.72,.55,.18,.15,.37,.3,.57,.44,.47,.32,.85,.69,1.17,1.02l.2,.19c.11,.1,.22,.2,.32,.31,.1,.1,.17,.22,.25,.33,.04,.05,.07,.11,.11,.16,.18,.23,.38,.46,.57,.68,.12,.14,.15,.33,.09,.5-.06,.17-.21,.29-.39,.32-.13,.02-.27,.03-.4,.03Zm-9.66-6c.23,.18,.44,.37,.64,.58,.27,.29,.58,.56,.91,.84,.21,.18,.41,.35,.61,.54,.59,.55,1.15,.97,1.66,1.24,.2,.11,.39,.22,.59,.34l.3,.18c.17,.1,.34,.17,.52,.25,.11,.05,.22,.1,.33,.15,.65,.31,1.28,.53,1.93,.66,.4,.08,.87,.14,1.41,.18-.02-.03-.04-.06-.06-.09-.05-.07-.09-.14-.15-.2-.09-.09-.18-.18-.27-.26-.08-.07-.15-.14-.23-.21-.37-.37-.67-.65-1.03-.9-.22-.15-.43-.32-.64-.49-.2-.17-.41-.34-.63-.49l-.26-.17c-.32-.22-.65-.44-.97-.56-.21-.08-.4-.17-.6-.26l-.15-.07c-.11-.05-.22-.09-.33-.13-.14-.05-.27-.1-.41-.17-.31-.14-.68-.24-1.05-.33l-.32-.08c-.47-.12-.94-.26-1.41-.41-.13-.04-.26-.08-.39-.13,0,0,0,0-.01,0Z"/>
        <path class="cls-1" d="M140.78,61.96c-.13,0-.26-.05-.36-.16-.17-.18-.18-.47-.03-.66,.22-.27,.54-.59,.86-.91,.37-.37,.76-.75,.93-1.01,.11-.17,.24-.34,.37-.5l.31-.4c.19-.25,.38-.49,.57-.74,.58-.78,1.09-1.62,1.59-2.42,.31-.5,.64-.99,.97-1.47,.21-.3,.41-.61,.61-.92,.56-.85,1.14-1.59,1.79-2.25,1.09-1.1,2.36-1.93,3.46-2.59,.3-.18,.75-.43,1.22-.52,.06-.01,.13-.03,.2-.05,.24-.07,.51-.14,.78-.1,.22,.03,.4,.21,.43,.43,.04,.29-.04,.56-.1,.77l-.03,.1c-.1,.34-.21,.7-.41,1.07-.32,.58-.65,1.16-.98,1.73-.13,.21-.28,.42-.43,.62l-.18,.24c-.17,.24-.36,.43-.55,.61-.12,.12-.25,.25-.36,.38l-.7,.85c-.27,.32-.54,.56-.84,.81-.19,.16-.32,.3-.46,.43-.15,.15-.3,.3-.46,.44-.18,.16-.38,.3-.58,.43-.1,.07-.19,.13-.29,.2-.34,.25-.7,.48-1.05,.7-.36,.23-.72,.46-1.06,.71l-.27,.2c-.39,.29-.77,.58-1.17,.86-.27,.19-.52,.39-.78,.61-.13,.11-.29,.27-.5,.47-.48,.47-1.22,1.18-2.2,1.91-.09,.07-.19,.1-.3,.1Zm12.58-13.57s-.06,.01-.09,.02c-.31,.06-.66,.26-.89,.4-1.05,.63-2.25,1.41-3.26,2.44-.6,.61-1.15,1.29-1.67,2.09-.2,.31-.41,.62-.62,.93-.32,.47-.64,.95-.94,1.44-.35,.58-.74,1.21-1.16,1.83,.14-.1,.27-.21,.41-.31l.27-.2c.36-.27,.74-.52,1.13-.76,.34-.21,.67-.43,1-.67,.1-.07,.21-.15,.31-.22,.17-.12,.34-.23,.5-.37,.14-.12,.27-.25,.4-.38,.16-.16,.31-.32,.48-.46,.31-.27,.55-.47,.76-.72l.69-.85c.13-.16,.28-.31,.43-.46,.15-.15,.31-.3,.44-.48l.19-.26c.13-.17,.26-.35,.37-.53,.33-.56,.66-1.13,.97-1.71,.14-.25,.23-.51,.3-.77Z"/>
      </g>
      <g>
        <path class="cls-1" d="M254.47,2.94c-.16,0-.33-.04-.49-.11-.49-.23-.71-.74-.56-1.24,.07-.22,.18-.39,.33-.5,.09-.11,.21-.19,.36-.25,.44-.17,.91-.04,1.21,.32,.3,.37,.33,.88,.07,1.28-.21,.32-.56,.5-.92,.5Z"/>
        <path class="cls-1" d="M248.84,1.72c-.28,0-.54-.14-.69-.39-.26-.42-.07-.92,.25-1.17,.33-.25,.77-.21,1.05,.09,.1,.11,.16,.24,.19,.37,.08,.19,.08,.41-.01,.61-.13,.28-.43,.46-.75,.48-.01,0-.03,0-.04,0Z"/>
        <path class="cls-1" d="M248.67,8.33c-.29,0-.55-.12-.71-.33-.12-.17-.17-.37-.14-.57-.01-.21,.07-.42,.22-.58,.28-.3,.74-.4,1.1-.23,.33,.16,.51,.51,.45,.89-.06,.39-.34,.71-.68,.8-.07,.02-.14,.03-.21,.03h-.03Z"/>
      </g>
      <g>
        <path class="cls-1" d="M261.36,36.29c-.35,0-.66-.2-.84-.56-.13-.2-.18-.45-.13-.68,.05-.24,.2-.44,.41-.58,.24-.2,.56-.32,.86-.29,.32,.03,.57,.21,.7,.49,.08,.17,.1,.38,.05,.59,0,.1-.02,.2-.06,.3-.15,.41-.54,.71-.96,.72-.01,0-.03,0-.04,0Z"/>
        <path class="cls-1" d="M256.03,41.6s-.03,0-.05,0c-.14,0-.27-.04-.39-.1-.12-.05-.23-.12-.31-.22-.06-.06-.1-.12-.14-.19-.12-.21-.17-.45-.13-.69,.02-.1,.06-.2,.11-.3,.08-.18,.23-.35,.44-.47,.27-.17,.64-.21,.95-.11,.26,.09,.45,.27,.54,.52,.03,.08,.05,.17,.06,.26,.08,.27,.03,.58-.17,.86-.13,.18-.3,.3-.51,.36-.02,0-.03,.01-.05,.02-.11,.05-.23,.07-.35,.07Z"/>
        <path class="cls-1" d="M259.41,44.31c-.16,0-.33-.03-.48-.08-.53-.18-.81-.61-.73-1.1,.02-.09,.04-.18,.08-.27,.05-.41,.34-.76,.77-.92,.55-.19,1.12,.01,1.37,.51,.22,.43,.12,1.03-.08,1.37-.21,.34-.57,.48-.93,.48Z"/>
      </g>
      <g>
        <path class="cls-1" d="M200.7,43.53c-.15,0-.29-.04-.43-.12-.03-.01-.05-.03-.08-.04-.16-.1-.28-.23-.35-.4,0,0,0,0,0,0-.16-.34-.12-.7,.12-.97,0,0,.02-.02,.02-.03,.1-.11,.22-.2,.37-.26,.13-.06,.29-.09,.42-.08,.15-.01,.3,0,.44,.05,.35,.12,.57,.4,.59,.75,.03,.39-.15,.73-.47,.93-.14,.09-.31,.14-.48,.15-.05,0-.1,.01-.15,.01Z"/>
        <path class="cls-1" d="M200.94,39.42c-.38,0-.71-.16-.96-.44-.06-.05-.11-.1-.17-.17-.3-.36-.37-.86-.17-1.31,0-.02,.02-.04,.03-.06,.06-.2,.17-.39,.31-.53,.17-.16,.63-.5,1.4-.15,.49,.23,.77,.63,.76,1.1,.03,.37-.09,.79-.33,1.1-.21,.28-.5,.44-.81,.45-.02,0-.05,0-.07,0Z"/>
        <path class="cls-1" d="M196.72,39.46c-.17,0-.33-.05-.48-.15-.23-.15-.4-.4-.47-.68-.12-.28-.1-.61,.06-.88,.16-.26,.47-.42,.86-.43,.34,0,.8,.1,1.03,.44,.18,.26,.2,.59,.06,.9-.07,.16-.19,.3-.32,.42-.08,.11-.19,.2-.31,.27-.14,.08-.28,.11-.43,.11Z"/>
      </g>
      <g>
        <path class="cls-1" d="M172.68,58.99s-.05,0-.07,0c-.02,0-.04,0-.06,0-.16,0-.31-.04-.44-.13-.11-.09-.18-.2-.21-.33-.01-.02-.02-.05-.03-.07-.03-.07-.06-.16-.07-.24-.03-.2,.01-.39,.11-.53,.01-.03,.03-.05,.04-.07,.07-.11,.17-.19,.28-.24,.25-.18,.52-.17,.71-.09,.11,.02,.2,.04,.27,.08,.19,.1,.32,.25,.37,.45,.06,.22,.02,.48-.12,.72-.18,.31-.47,.48-.78,.48Z"/>
        <path class="cls-1" d="M169.07,62.58s-.07,0-.1,0c-.47-.04-.83-.39-.94-.94-.1-.47,.1-1.25,.7-1.44,.07-.02,.14-.03,.22-.04,.05-.01,.09-.02,.14-.02,.37-.03,.71,.07,.94,.29,.12,.12,.2,.26,.25,.42,.17,.24,.2,.54,.07,.84-.18,.44-.71,.88-1.29,.88Z"/>
        <path class="cls-1" d="M175.22,64.52c-.13,0-.27-.02-.4-.06-.55-.17-.91-.67-.89-1.23,0-.24,.07-.45,.18-.62,.04-.14,.11-.28,.21-.4,.44-.54,1.31-.33,1.75-.02,.57,.4,.65,1.12,.2,1.78-.24,.35-.63,.55-1.04,.55Z"/>
      </g>
    </g>
    <g>
      <g>
        <g>
          <path class="cls-1" d="M140.94,83.93c-.2,0-.39-.12-.47-.32-2.02-5.34-4.28-9.45-7.11-12.93-1.59-1.95-3.61-3.72-6.01-5.26-.38-.24-.75-.49-1.13-.73-1.82-1.19-3.53-2.31-5.48-3.07-2.14-.84-4.25-1.43-6.75-2.06-1.27-.32-2.64-.43-3.96-.53-1.49-.12-3.03-.24-4.51-.66-.44-.13-.87-.29-1.29-.46-.53-.21-1.03-.41-1.56-.52-1.64-.35-2.97-.71-4.05-1.11-.44-.16-.88-.33-1.33-.51-.94-.37-1.92-.75-2.92-1.01-.61-.16-1.23-.22-1.87-.28-.5-.05-1.01-.1-1.53-.19-.97-.18-1.9-.23-2.89-.28-.65-.04-1.3-.07-1.96-.14-.84-.09-1.69-.26-2.51-.42-.56-.11-1.12-.22-1.69-.31-1.43-.22-2.9-.26-4.32-.3-1.27-.04-2.58-.07-3.87-.24-3.72-.47-7.1-.7-10.32-.7-2.67,0-5.33-.48-7.91-.95-1.26-.23-2.57-.46-3.85-.64-1.73-.23-3.39-.76-4.99-1.27-.66-.21-1.32-.42-1.99-.61-1.25-.36-2.47-.83-3.66-1.3-1.1-.43-2.23-.87-3.36-1.21-3.93-1.17-7.14-3.49-10.63-6.18-.38-.29-.75-.57-1.12-.84-1.47-1.09-2.87-2.12-4.06-3.74-1.33-1.81-2.62-3.62-3.91-5.43l-.83-1.16c-1-1.4-2.06-2.74-3.07-4.03-.54-.68-1.08-1.37-1.62-2.07-.75-.97-1.32-1.63-2.03-2.34-.37-.37-.68-.84-.98-1.3-.25-.39-.49-.76-.76-1.05-.19-.2-.17-.52,.03-.71,.2-.19,.52-.17,.71,.03,.32,.35,.59,.77,.86,1.18,.28,.43,.55,.84,.85,1.14,.87,.86,1.47,1.6,2.12,2.44,.54,.7,1.07,1.38,1.61,2.06,1.03,1.3,2.09,2.65,3.1,4.07l.83,1.16c1.29,1.81,2.58,3.62,3.91,5.42,1.1,1.5,2.43,2.48,3.84,3.53,.37,.28,.75,.56,1.13,.85,3.41,2.63,6.55,4.9,10.31,6.02,1.17,.35,2.32,.8,3.44,1.23,1.16,.45,2.37,.92,3.57,1.27,.68,.19,1.35,.41,2.02,.62,1.63,.52,3.18,1.01,4.82,1.23,1.3,.18,2.62,.41,3.89,.64,2.53,.46,5.15,.93,7.73,.93,3.27,0,6.68,.23,10.45,.71,1.24,.16,2.53,.19,3.77,.23,1.45,.04,2.96,.08,4.45,.31,.58,.09,1.15,.2,1.73,.31,.84,.16,1.63,.32,2.43,.4,.64,.07,1.27,.1,1.9,.14,.98,.05,1.99,.11,3.02,.3,.47,.09,.94,.13,1.44,.18,.66,.06,1.34,.13,2.03,.31,1.05,.27,2.06,.67,3.03,1.05,.44,.17,.87,.34,1.3,.5,1.04,.38,2.32,.73,3.92,1.07,.62,.13,1.18,.36,1.72,.57,.39,.16,.78,.31,1.19,.43,1.38,.4,2.87,.51,4.31,.63,1.36,.11,2.77,.22,4.12,.56,2.54,.64,4.68,1.24,6.87,2.1,2.04,.8,3.88,2,5.66,3.17,.37,.24,.75,.49,1.12,.73,2.49,1.6,4.59,3.44,6.24,5.47,2.9,3.57,5.2,7.76,7.26,13.21,.1,.26-.03,.55-.29,.64-.06,.02-.12,.03-.18,.03Z"/>
          <path class="cls-1" d="M9.13,18.05c-.15,0-.29-.06-.39-.18-.5-.61-1.11-1.04-1.64-1.41-.26-.19-.51-.36-.71-.53-.19-.16-.37-.32-.56-.48-.42-.37-.86-.75-1.31-1.06-.17-.12-.34-.23-.51-.34-.41-.26-.83-.53-1.23-.89-.09-.08-.19-.17-.29-.25-.38-.32-.8-.68-1.09-1.14-.43-.7-.58-1.6-.38-2.31,.1-.36,.31-.63,.61-.79,.38-.21,.88-.22,1.42-.05,.76,.24,1.37,.54,1.9,.94l.16,.12c.57,.42,1.22,.91,1.69,1.48,.55,.66,1.03,1.26,1.46,1.99l.17,.28c.15,.25,.31,.5,.44,.8,.4,.94,.58,2.03,.77,3.25,.03,.22-.09,.44-.29,.53-.07,.03-.13,.04-.2,.04ZM2.34,9.51c-.1,0-.18,.02-.24,.05-.04,.02-.09,.06-.13,.18-.12,.44,0,1.06,.27,1.51,.2,.33,.55,.62,.88,.9,.11,.09,.21,.18,.31,.27,.35,.31,.71,.54,1.1,.79,.18,.11,.36,.23,.54,.35,.5,.34,.96,.74,1.4,1.13,.18,.16,.36,.32,.55,.47,.19,.16,.41,.31,.65,.48,.22,.16,.46,.33,.71,.52-.11-.54-.25-1.08-.45-1.54-.1-.24-.24-.45-.37-.67l-.18-.3c-.39-.67-.85-1.23-1.36-1.85-.4-.48-.99-.92-1.52-1.31l-.16-.12c-.44-.33-.95-.58-1.61-.79-.14-.05-.28-.07-.4-.07Z"/>
        </g>
        <g>
          <g>
            <path class="cls-1" d="M9.88,32.01c-.06,0-.12,0-.17-.03-.26-.09-.39-.38-.3-.64,.14-.39,.59-.46,1.1-.53,.1-.01,.19-.03,.24-.04,.49-.19,1-.33,1.51-.47,.77-.21,1.54-.25,2.12-.27l.39-.02c.24-.01,.48-.02,.72-.02,.2,0,.41-.02,.63-.05,.2-.03,.39-.08,.57-.12,.34-.08,.68-.17,1.1-.16,.28,0,.49,.24,.49,.51,0,.28-.25,.49-.51,.49-.28-.01-.53,.06-.83,.13-.21,.05-.42,.1-.65,.14-.27,.04-.52,.06-.8,.07-.22,0-.44,0-.65,.02l-.42,.02c-.53,.02-1.22,.06-1.89,.24-.49,.13-.96,.26-1.43,.45-.1,.04-.23,.06-.43,.09-.11,.02-.32,.05-.43,.08-.09,.09-.21,.14-.34,.14Z"/>
            <path class="cls-1" d="M9.08,33.26c-.11,0-.22-.01-.33-.04-.3-.07-.56-.21-.76-.41-.39-.3-.47-.69-.46-.99,.01-.27,.12-.48,.26-.65,.05-.1,.12-.2,.2-.29,.06-.07,.13-.13,.2-.18,.15-.13,.33-.22,.51-.26,.18-.08,.4-.12,.66-.02,.39,.04,.72,.21,.94,.48,.25,.31,.34,.73,.24,1.18-.12,.55-.44,.83-.69,.96-.08,.04-.15,.08-.24,.1-.16,.08-.35,.12-.54,.12Z"/>
          </g>
          <g>
            <path class="cls-1" d="M20.81,33.36c-.13,0-.27-.05-.37-.16-.12-.13-.21-.28-.3-.43-.07-.11-.16-.27-.22-.32-.13-.11-.21-.25-.28-.38-.03-.04-.05-.09-.08-.13-.06-.03-.18-.12-.3-.22-.14-.11-.29-.22-.42-.3l-.53-.35c-.4-.26-.79-.52-1.21-.75-.41-.23-.85-.42-1.32-.61-.45-.19-.92-.39-1.37-.64l-.24-.13c-.38-.21-.76-.41-1.13-.63l-.13-.08c-.18-.1-.35-.2-.54-.29-.4-.19-.8-.5-1.19-.8-.15-.12-.3-.23-.44-.33-.23-.16-.28-.47-.12-.7,.16-.23,.47-.28,.7-.12,.15,.11,.31,.23,.47,.36,.35,.27,.71,.55,1.02,.69,.21,.1,.41,.21,.61,.33l.13,.08c.37,.21,.74,.42,1.11,.62l.24,.13c.4,.22,.83,.4,1.28,.59,.47,.2,.95,.4,1.41,.66,.43,.24,.85,.51,1.27,.79l.52,.34c.14,.09,.31,.22,.48,.35,.11,.08,.22,.16,.31,.23,.16,.11,.26,.28,.34,.42,.02,.04,.05,.09,.07,.12,.16,.13,.3,.35,.42,.55,.06,.1,.13,.22,.18,.27,.19,.2,.18,.52-.02,.71-.1,.09-.22,.13-.34,.13Z"/>
            <path class="cls-1" d="M10.47,27.13c-.53,0-1.07-.3-1.36-.67-.5-.63-.23-1.49,.31-1.96,.33-.29,.82-.38,1.29-.25,.5,.14,.9,.49,1.05,.92,.14,.4,.07,.93-.17,1.33-.19,.32-.46,.52-.78,.58-.11,.03-.22,.04-.34,.04Z"/>
          </g>
        </g>
        <path class="cls-1" d="M23.13,41.96c-.31,0-.63-.01-.94-.04h-.15c-.47-.05-.94-.09-1.4-.16-.28-.04-.56-.1-.84-.16-.27-.06-.53-.12-.8-.15l-.33-.04c-.33-.04-.67-.08-1-.19l-.28-.09c-.27-.09-.55-.18-.83-.26-.64-.18-1.4-.38-1.9-.93-.28-.3-.33-.61-.31-.82,.02-.36,.23-.71,.62-1.02,.24-.2,.57-.31,.75-.37,.45-.14,.89-.26,1.35-.35,1.35-.29,2.7-.1,3.73,.09,.62,.12,1.2,.3,1.76,.48l.3,.1c.47,.15,.89,.36,1.3,.56,.29,.14,.58,.29,.89,.4,1.51,.59,3.48,1.3,5.14,1.86,.25,.08,.39,.34,.32,.6-.07,.25-.32,.41-.57,.37-.72-.13-1.63-.08-2.44-.04-.39,.02-.76,.05-1.08,.04-.55,.01-1.09,.03-1.64,.06-.54,.03-1.09,.07-1.65,.07Zm-4.59-3.73c-.42,0-.86,.04-1.28,.13-.43,.09-.85,.2-1.27,.33-.17,.05-.33,.12-.41,.19-.22,.18-.26,.29-.26,.32,.36,.4,.94,.56,1.45,.7,.33,.09,.62,.19,.91,.28l.28,.09c.24,.08,.52,.11,.81,.14,.12,.01,.24,.03,.36,.04,.29,.04,.58,.11,.87,.17,.26,.05,.51,.11,.77,.15,.44,.06,.89,.1,1.34,.14h.15c.8,.08,1.6,.04,2.44-.02,.57-.03,1.15-.05,1.7-.07,.18,0,.38,0,.59-.01-.82-.3-1.63-.6-2.33-.87-.33-.13-.65-.28-.96-.44-.4-.19-.77-.38-1.17-.5l-.3-.1c-.56-.18-1.08-.35-1.64-.45-.6-.11-1.31-.22-2.05-.22Z"/>
        <path class="cls-1" d="M36.13,45.35c-.15,0-.29-.07-.39-.19-.72-.91-1.35-1.61-1.76-2.08-.15-.17-.28-.31-.37-.42-.15-.18-.27-.36-.38-.55-.05-.08-.09-.15-.14-.23-.18-.27-.4-.53-.61-.78-.1-.12-.21-.24-.3-.36-.84-1.03-1.48-2.14-2.05-3.18-.54-.98-1.08-1.96-1.52-2.98-.16-.38-.35-.77-.55-1.15-.35-.7-.71-1.42-.93-2.19-.07-.24-.14-.47-.22-.7-.26-.83-.54-1.69-.54-2.64,0-.44-.02-1.07,.46-1.37,.37-.23,.75-.14,1.11,.26l.17,.18c.36,.36,.74,.74,1.07,1.18,.24,.32,.46,.66,.67,.99,.17,.26,.34,.52,.52,.77,.44,.62,.78,1.24,1.12,2.06,.12,.28,.25,.54,.38,.82,.16,.32,.31,.65,.45,.98,.11,.26,.18,.54,.25,.81,.05,.19,.1,.38,.17,.56,.05,.14,.11,.28,.16,.43,.11,.28,.22,.55,.29,.84l.11,.45c.13,.52,.25,1.03,.43,1.55,.09,.26,.15,.53,.21,.8,.04,.16,.08,.33,.12,.49,.07,.26,.18,.51,.28,.76l.29,.73c.1,.26,.2,.51,.3,.77,.19,.46,.64,1.13,1.03,1.71,.24,.35,.46,.68,.62,.95,.13,.23,.07,.52-.15,.67-.09,.06-.18,.09-.28,.09Zm-8.78-17.71c0,.06,0,.11,0,.15v.11c0,.8,.24,1.55,.49,2.34,.08,.24,.15,.48,.22,.73,.2,.68,.53,1.36,.86,2.02,.2,.4,.4,.8,.57,1.21,.41,.97,.94,1.93,1.46,2.85,.57,1.04,1.18,2.1,1.97,3.07,.09,.12,.19,.23,.29,.34,.02,.02,.04,.05,.06,.07-.07-.19-.14-.38-.2-.58-.05-.18-.09-.35-.13-.53-.05-.24-.11-.48-.19-.71-.18-.55-.32-1.09-.45-1.62l-.11-.45c-.06-.24-.16-.48-.25-.72-.06-.16-.12-.31-.18-.47-.07-.21-.13-.42-.19-.63-.06-.23-.12-.47-.22-.69-.13-.31-.27-.62-.42-.92-.14-.29-.28-.57-.4-.87-.31-.75-.62-1.3-1.01-1.86-.19-.26-.37-.54-.54-.81-.2-.32-.41-.63-.64-.93-.29-.39-.62-.72-.98-1.07l-.04-.04Z"/>
        <g>
          <g>
            <path class="cls-1" d="M34.14,52.47c-.15,0-.29-.06-.39-.19-.17-.21-.14-.53,.08-.71,.22-.18,.54-.26,.84-.33,.13-.03,.26-.06,.34-.1l.31-.14c.18-.08,.36-.17,.54-.25,.45-.2,.89-.39,1.35-.56,.23-.09,.45-.2,.66-.3,.29-.14,.58-.29,.9-.4,.44-.15,.86-.31,1.29-.47l.67-.25c.42-.16,.87-.21,1.31-.27,.14-.02,.28-.04,.42-.06,.24-.04,.47-.09,.7-.15,.18-.04,.36-.09,.55-.12,.73-.15,1.46-.22,2.43-.23h0c.27,0,.5,.22,.5,.49,0,.28-.22,.5-.49,.51-.9,.01-1.57,.07-2.24,.21-.17,.03-.34,.08-.51,.12-.26,.06-.52,.13-.79,.17-.14,.02-.29,.04-.45,.06-.38,.05-.77,.1-1.09,.21l-.66,.25c-.44,.17-.88,.33-1.33,.49-.27,.09-.52,.22-.78,.34-.25,.12-.49,.24-.75,.34-.44,.17-.86,.35-1.3,.54-.18,.08-.35,.16-.52,.24l-.31,.15c-.13,.06-.32,.11-.52,.16-.15,.04-.39,.1-.46,.14-.09,.08-.2,.11-.31,.11Z"/>
            <path class="cls-1" d="M33.47,54.15c-.15,0-.31-.03-.48-.08-.31-.06-.61-.21-.84-.38-.44-.33-.65-.91-.54-1.52,.12-.62,.52-1.1,1.06-1.24,.45-.12,.91-.05,1.29,.18,.22,.08,.41,.21,.55,.37,.03,.03,.06,.07,.09,.11,.26,.32,.33,.81,.2,1.28-.06,.41-.29,.78-.65,1.05-.2,.15-.44,.22-.69,.22Z"/>
          </g>
          <g>
            <path class="cls-1" d="M39.81,57.41c-.28,0-.5-.22-.5-.5v-.3c-.01-.28-.02-.6,.02-.88,.05-.37,.1-.74,.16-1.1l.05-.32c.13-.88,.34-1.7,.62-2.44,.11-.29,.22-.58,.32-.88,.29-.85,.77-1.56,1.23-2.24,.16-.23,.47-.29,.69-.13,.23,.16,.29,.47,.13,.7-.45,.65-.87,1.27-1.11,1.99-.1,.31-.21,.61-.33,.91-.25,.68-.45,1.44-.57,2.24l-.05,.32c-.06,.36-.11,.72-.16,1.09-.03,.22-.02,.48-.01,.72v.32c0,.28-.22,.5-.49,.5Z"/>
            <path class="cls-1" d="M39.83,59.74s-.09,0-.13,0c-.79-.09-1.45-.68-1.55-1.41-.02-.11-.02-.23-.02-.34,0,0,0,0,0-.01-.04-.45,.1-.87,.38-1.15,.2-.2,.47-.32,.77-.36,.18-.05,.37-.07,.58-.05,.63,.05,1.17,.42,1.42,.97,.04,.09,.07,.18,.09,.27,.14,.44,.02,.96-.33,1.42-.33,.43-.77,.67-1.21,.67Z"/>
          </g>
        </g>
        <path class="cls-1" d="M55.86,50.99s-.09,0-.13-.02c-1.25-.34-2.13-.87-2.78-1.26-.24-.14-.44-.27-.62-.36-.28-.14-.54-.3-.8-.46l-.28-.17c-.34-.21-.73-.36-1.14-.51-.44-.17-.89-.34-1.32-.6-.18-.11-.36-.19-.55-.28-.22-.1-.44-.21-.65-.33-.29-.18-.57-.39-.84-.61l-.19-.15c-.31-.24-.62-.47-.94-.7l-.59-.43c-.3-.22-.56-.47-.8-.71-.15-.14-.29-.29-.45-.42-.6-.52-1.35-1.27-1.81-2.37-.3-.74-.44-1.81,.19-2.41,.3-.29,.8-.41,1.48-.35,.42,.03,.84,.19,1.31,.49,.19,.12,.39,.23,.58,.34,.36,.2,.73,.41,1.08,.68,.36,.29,.67,.62,.98,.93,.15,.15,.29,.3,.44,.45,.6,.59,1.06,1.11,1.48,1.7,.28,.39,.59,.74,.92,1.12,.21,.24,.42,.48,.62,.73,.23,.28,.44,.56,.65,.85,.39,.52,.75,1.01,1.2,1.45,.12,.11,.26,.22,.39,.33,.21,.16,.42,.33,.58,.51,.55,.6,1.41,1.14,2.25,1.64,.22,.13,.3,.39,.21,.62-.08,.19-.26,.31-.46,.31Zm-12.53-11.16c-.31,0-.45,.06-.48,.09-.22,.21-.15,.82,.05,1.3,.3,.72,.76,1.32,1.54,2,.17,.15,.33,.3,.49,.46,.23,.22,.45,.44,.71,.63l.58,.42c.32,.24,.65,.47,.96,.71l.2,.16c.24,.19,.48,.38,.74,.54,.17,.11,.36,.19,.54,.28,.22,.1,.44,.21,.65,.34,.35,.21,.74,.36,1.16,.52,.43,.16,.88,.33,1.31,.59l.03,.02c-.33-.37-.62-.77-.91-1.16-.2-.27-.41-.55-.62-.81-.19-.24-.39-.47-.6-.7-.33-.38-.68-.77-.99-1.2-.38-.54-.8-1.02-1.36-1.56-.16-.15-.31-.31-.47-.47-.3-.31-.58-.6-.89-.85-.28-.22-.6-.4-.93-.59-.22-.12-.43-.24-.64-.37-.32-.21-.59-.31-.85-.33-.08,0-.16,0-.22,0Z"/>
        <path class="cls-1" d="M50,60.31c-.43,0-.93-.04-1.24-.41-.13-.16-.27-.45-.17-.88,.2-.92,1.18-1.36,1.89-1.68,.18-.08,.34-.15,.48-.23,.8-.44,1.61-.83,2.49-1.2l.73-.31c.27-.12,.54-.23,.81-.34,.34-.14,.68-.26,1.02-.38,.25-.09,.5-.18,.75-.28,1.08-.42,2.13-1,3.15-1.55l.68-.37c.37-.2,.76-.36,1.15-.52l.4-.17c.17-.07,.34-.13,.52-.18l.47-.16c.46-.17,1.03-.37,2.25-.58,.25-.04,.5,.11,.57,.36,.07,.25-.06,.51-.3,.6-.23,.09-.46,.17-.7,.26-.67,.24-1.37,.49-1.91,.87-.11,.08-.21,.17-.31,.25-.13,.11-.25,.22-.39,.32-.65,.45-1.17,.87-1.6,1.26-1.11,1.03-2.21,1.99-3.27,2.84-1.91,1.56-4.56,2.49-7.07,2.49h-.17c-.06,0-.13,0-.2,0Zm10.41-6.41h-.02c-1.04,.58-2.12,1.18-3.27,1.62-.26,.1-.52,.19-.78,.29-.32,.12-.65,.23-.97,.37-.27,.11-.53,.22-.79,.34l-.74,.32c-.85,.35-1.63,.73-2.4,1.15-.16,.09-.35,.17-.55,.26-.55,.25-1.23,.56-1.32,.99,.05,.09,.44,.08,.61,.08h.17s.02,0,.02,0c2.29,0,4.69-.85,6.44-2.26,1.04-.85,2.12-1.79,3.22-2.8,.12-.11,.25-.22,.38-.34Z"/>
        <g>
          <g>
            <path class="cls-1" d="M78.49,52.85c-.79,0-1.62-.46-1.96-.73-.07-.05-.22-.21-.37-.39-.11-.13-.23-.26-.3-.33-.1-.09-.22-.18-.33-.26-.25-.19-.53-.4-.75-.69-.12-.17-.24-.33-.36-.5-.2-.28-.39-.55-.62-.82-.27-.32-.46-.66-.64-.99-.07-.13-.15-.27-.23-.4-.37-.62-.78-1.26-1.24-1.83-.1-.12-.2-.23-.31-.35-.12-.13-.24-.26-.35-.4-.12-.14-.19-.28-.25-.39-.06-.12-.1-.19-.16-.24-.2-.19-.22-.5-.03-.71,.19-.2,.5-.22,.71-.03,.19,.18,.29,.37,.37,.52,.05,.09,.08,.16,.14,.22,.1,.12,.21,.24,.31,.35,.12,.13,.24,.26,.35,.39,.5,.61,.93,1.3,1.32,1.94,.09,.14,.17,.29,.25,.43,.17,.3,.33,.59,.53,.83,.24,.29,.45,.58,.67,.88,.11,.16,.23,.32,.35,.48,.13,.18,.34,.33,.55,.5,.13,.1,.27,.2,.39,.31,.09,.08,.24,.25,.39,.41,.1,.11,.19,.22,.24,.26,.29,.22,.96,.55,1.41,.51,.29-.02,.52,.19,.54,.46,.02,.28-.19,.51-.46,.54-.05,0-.09,0-.14,0Z"/>
            <path class="cls-1" d="M70.61,45.27c-.17,0-.35-.03-.53-.1-1.08-.4-1.63-.88-1.67-1.47-.05-.71,.32-1.66,1.04-2.02,.65-.32,1.48-.11,1.97,.23,.43,.29,.65,.68,.67,1.21,.13,.71-.09,1.56-.73,1.94-.25,.15-.5,.22-.75,.22Z"/>
          </g>
          <g>
            <path class="cls-1" d="M74.65,49.89s-.1,0-.15-.02c-1.02-.32-2.05-.64-3.07-.96l-.26-.08c-.53-.17-1.08-.34-1.62-.46l-.43-.09c-.38-.08-.77-.15-1.15-.29-.27-.09-.61-.14-1.05-.14-.28,0-.51-.23-.5-.5,0-.27,.21-.49,.48-.5h0s0,0,.01,0c.57,0,1.02,.07,1.39,.2,.32,.11,.66,.18,1.02,.25,.15,.03,.3,.06,.45,.09,.58,.13,1.15,.31,1.7,.48l.26,.08c1.03,.32,2.05,.64,3.08,.96,.26,.08,.41,.36,.33,.63-.07,.21-.26,.35-.48,.35Z"/>
            <path class="cls-1" d="M65.74,48.81c-.67,0-1.04-.54-1.28-.9-.4-.58-.37-1.13,.04-1.7,.34-.47,.91-.75,1.47-.74,.5,.02,.94,.27,1.2,.7,0,0,0,0,0,0,.31,.39,.39,.91,.19,1.39-.03,.08-.07,.16-.11,.23-.01,.03-.02,.05-.03,.08-.13,.29-.32,.52-.55,.66-.13,.08-.27,.14-.43,.16,0,0,0,0,0,0-.16,.08-.28,.12-.5,.12Z"/>
          </g>
        </g>
        <path class="cls-1" d="M73.66,58.85c-.34,0-.63-.03-.87-.17-.16-.1-.51-.38-.24-.97,.13-.28,.36-.52,.57-.73,.29-.28,.62-.56,.94-.79,.25-.19,.52-.34,.79-.49,.18-.1,.36-.2,.53-.31,.52-.35,1.02-.61,1.47-.8l.49-.2c1.13-.46,2.3-.95,3.55-1.07,1.05-.1,1.99-.15,2.85-.15,.99,0,1.97-.03,2.95-.07l.85-.03c.25,0,.42,.14,.49,.35,.07,.21-.01,.44-.2,.57-.52,.34-1.89,1.13-3.35,1.62-.98,.33-1.95,.76-2.89,1.17-.66,.29-1.32,.58-1.98,.84-.23,.09-.45,.19-.67,.29-.33,.15-.67,.3-1.02,.42-.3,.1-.59,.15-.87,.2-.19,.03-.37,.06-.56,.11-.77,.2-1.55,.21-2.29,.21h-.31c-.08,0-.17,0-.25,0Zm11.81-4.71c-1.4,.04-2.75,0-4.48,.18-1.1,.11-2.2,.56-3.27,1l-.49,.2c-.39,.16-.83,.39-1.29,.7-.19,.13-.4,.24-.6,.35-.23,.13-.46,.26-.68,.42-.29,.21-.58,.46-.84,.71-.03,.03-.09,.08-.15,.15,.08,0,.16,0,.22,0h.33c.72,0,1.39,0,2.04-.18,.21-.06,.43-.09,.64-.13,.24-.04,.48-.08,.72-.16,.31-.11,.62-.25,.92-.38,.24-.11,.48-.22,.72-.31,.66-.26,1.3-.54,1.95-.83,.96-.42,1.95-.86,2.97-1.2,.45-.15,.89-.33,1.3-.52Z"/>
        <path class="cls-1" d="M102.14,57.23c-.09,0-.19-.03-.27-.08-.64-.42-1.22-.72-1.65-.94-.24-.12-.42-.22-.52-.29-.16-.1-.25-.2-.33-.27-.05-.05-.09-.09-.17-.14l-.27-.18c-.23-.15-.45-.31-.68-.45-.2-.12-.4-.25-.61-.37-.35-.22-.71-.44-1.07-.64-.69-.37-1.35-.79-1.99-1.21l-.47-.3c-.92-.58-1.72-1.22-2.39-1.9l-.24-.23c-.21-.21-.42-.41-.61-.64-.13-.16-.27-.32-.41-.47-.12-.14-.25-.28-.37-.42-.21-.25-.41-.55-.57-.86-.09-.16-.17-.33-.24-.5-.1-.2-.16-.34-.2-.51-.02-.13,0-.27,.09-.38,.08-.11,.2-.18,.33-.2,.21-.03,.41,.02,.55,.05,.29,.06,.51,.11,.73,.17,.15,.04,.29,.1,.43,.15l.37,.13c.2,.07,.4,.14,.6,.23,.28,.13,.53,.25,.76,.38,.19,.11,.38,.24,.56,.36,.11,.08,.22,.15,.33,.23,.23,.15,.47,.33,.73,.57,.09,.09,.19,.17,.29,.25,.17,.14,.33,.28,.49,.44,.13,.14,.27,.27,.41,.4,.14,.13,.29,.27,.43,.41,.16,.16,.31,.35,.46,.53,.1,.12,.19,.24,.29,.35,.12,.14,.24,.28,.36,.42,.18,.21,.36,.43,.56,.63l.24,.24c.23,.22,.48,.45,.68,.72,.34,.46,.77,.91,1.19,1.33l.43,.44c.13,.14,.23,.24,.42,.41,.14,.13,.37,.3,.62,.48,.36,.26,.77,.56,1.06,.85,.18,.18,.2,.47,.03,.67-.1,.12-.24,.18-.39,.18Zm-11.7-9.83c.13,.23,.28,.46,.43,.65,.11,.14,.23,.27,.35,.4,.15,.16,.29,.33,.43,.5,.16,.2,.35,.37,.53,.55l.25,.25c.62,.62,1.37,1.21,2.22,1.76l.47,.3c.62,.4,1.26,.82,1.91,1.16,.35,.18,.68,.39,1.02,.6-.03-.04-.06-.08-.09-.12-.14-.2-.35-.39-.55-.58-.09-.09-.18-.17-.27-.26-.22-.22-.42-.45-.62-.69-.11-.13-.22-.26-.34-.39-.11-.12-.22-.26-.33-.39-.13-.16-.25-.31-.39-.45-.13-.13-.26-.25-.39-.37-.15-.14-.31-.28-.45-.43-.13-.14-.28-.25-.42-.38-.11-.09-.21-.18-.32-.28-.21-.19-.4-.34-.59-.46-.13-.08-.25-.16-.37-.25-.16-.11-.31-.22-.48-.31-.21-.12-.44-.23-.66-.33-.19-.09-.36-.14-.52-.2l-.13-.04c-.09-.03-.18-.07-.27-.1-.12-.04-.23-.09-.35-.12-.02,0-.05-.01-.07-.02Z"/>
        <path class="cls-1" d="M99.14,66.04c-.13,0-.27,0-.4-.03-.18-.03-.33-.15-.39-.32-.06-.17-.03-.36,.09-.5,.19-.21,.38-.45,.57-.68,.04-.05,.08-.11,.11-.16,.08-.11,.15-.23,.25-.33,.1-.11,.21-.21,.32-.31l.2-.19c.32-.32,.71-.7,1.17-1.02,.2-.14,.38-.29,.57-.44,.23-.19,.46-.38,.72-.55l.25-.17c.35-.24,.75-.51,1.17-.67,.19-.07,.36-.15,.54-.23l.15-.07c.13-.06,.26-.11,.39-.16,.12-.04,.23-.09,.34-.14,.39-.18,.82-.29,1.22-.39l.31-.08c.46-.12,.91-.25,1.36-.4,.12-.04,.24-.08,.36-.12,.15-.05,.31-.1,.46-.15,.16-.05,.31-.08,.47-.1,.1-.02,.2-.03,.3-.06,.74-.19,1.41-.35,2.84-.51,.25-.02,.5,.15,.55,.4,.05,.25-.1,.51-.35,.58-.18,.05-.36,.09-.53,.14-.36,.09-.68,.16-.99,.32l-.21,.11c-.21,.11-.43,.21-.63,.35-.59,.39-1.09,.72-1.48,1.14-.31,.34-.66,.63-1,.92-.2,.17-.39,.33-.58,.51-.66,.61-1.29,1.08-1.87,1.39-.18,.1-.36,.21-.54,.31l-.31,.19c-.2,.12-.41,.21-.63,.3-.1,.04-.2,.09-.3,.13-.72,.35-1.43,.59-2.15,.74-.46,.1-1.01,.16-1.62,.2l-.21,.02c-.17,.01-.35,.03-.54,.03Zm9.66-6s0,0-.01,0c-.13,.04-.26,.09-.39,.13-.47,.15-.93,.28-1.41,.41l-.32,.08c-.36,.09-.74,.18-1.05,.33-.13,.06-.27,.11-.41,.17-.11,.04-.22,.08-.33,.13l-.15,.07c-.2,.09-.4,.18-.61,.26-.31,.12-.65,.34-.97,.56l-.26,.18c-.23,.15-.43,.32-.63,.49-.21,.17-.41,.34-.64,.49-.36,.24-.66,.52-1.03,.9-.07,.08-.15,.15-.23,.22-.09,.09-.18,.17-.27,.26-.06,.06-.1,.13-.15,.2-.02,.03-.04,.06-.06,.09,.54-.04,1.01-.1,1.41-.18,.64-.13,1.27-.35,1.93-.66,.11-.05,.22-.1,.33-.15,.18-.08,.36-.15,.52-.25l.3-.18c.19-.12,.38-.23,.59-.34,.51-.27,1.07-.69,1.66-1.24,.2-.18,.4-.36,.61-.54,.33-.28,.64-.54,.91-.84,.2-.21,.42-.41,.64-.58Z"/>
        <path class="cls-1" d="M121.66,61.96c-.1,0-.21-.03-.3-.1-.99-.73-1.72-1.44-2.2-1.91-.2-.2-.37-.36-.5-.47-.26-.22-.5-.42-.78-.61-.4-.28-.78-.57-1.17-.86l-.27-.2c-.34-.26-.7-.48-1.06-.71-.36-.23-.71-.45-1.05-.7-.09-.07-.19-.13-.29-.2-.2-.14-.4-.28-.58-.43-.16-.14-.31-.29-.46-.44-.13-.14-.27-.27-.42-.4-.34-.29-.62-.52-.88-.84l-.7-.85c-.11-.14-.24-.26-.36-.38-.19-.19-.38-.38-.55-.61l-.18-.24c-.15-.2-.3-.41-.43-.62-.33-.57-.66-1.15-.98-1.72-.2-.37-.32-.73-.41-1.07l-.03-.1c-.06-.21-.14-.47-.1-.76,.03-.22,.2-.4,.43-.43,.27-.04,.54,.04,.78,.1,.07,.02,.14,.04,.2,.05,.47,.09,.92,.34,1.22,.52,1.1,.66,2.37,1.49,3.46,2.59,.65,.66,1.24,1.39,1.79,2.25,.2,.31,.41,.61,.61,.91,.33,.49,.66,.97,.97,1.47,.5,.81,1.01,1.65,1.59,2.42,.19,.25,.38,.5,.57,.74l.32,.4c.13,.16,.25,.32,.37,.49,.17,.25,.55,.64,.93,1.01,.32,.32,.65,.64,.86,.91,.16,.2,.15,.48-.03,.66-.1,.1-.23,.16-.36,.16Zm-12.58-13.57c.07,.25,.16,.52,.3,.77,.32,.57,.64,1.14,.97,1.7,.11,.18,.24,.36,.37,.53l.19,.26c.13,.18,.28,.33,.44,.48,.15,.15,.3,.3,.43,.46l.69,.85c.21,.25,.45,.45,.72,.68,.21,.18,.37,.34,.53,.5,.13,.13,.26,.26,.4,.38,.16,.13,.33,.25,.5,.37,.1,.07,.21,.14,.31,.22,.32,.24,.66,.45,1,.67,.38,.24,.76,.49,1.12,.76l.27,.21c.14,.1,.27,.21,.41,.31-.42-.62-.81-1.25-1.16-1.83-.3-.49-.62-.96-.94-1.44-.21-.31-.42-.62-.62-.93-.52-.8-1.06-1.48-1.67-2.09-1.01-1.02-2.22-1.81-3.26-2.44-.23-.14-.58-.33-.89-.4-.03,0-.06-.01-.09-.02Z"/>
      </g>
      <g>
        <path class="cls-1" d="M7.97,2.94c-.36,0-.71-.18-.92-.5-.26-.4-.23-.91,.07-1.28,.3-.36,.77-.49,1.21-.32,.15,.06,.26,.14,.36,.25,.15,.12,.26,.28,.33,.5,.16,.5-.07,1.01-.56,1.24-.16,.07-.32,.11-.49,.11Z"/>
        <path class="cls-1" d="M13.6,1.72s-.03,0-.04,0c-.32-.02-.61-.2-.75-.48-.09-.2-.1-.41-.01-.61,.02-.14,.08-.26,.19-.37,.28-.31,.72-.35,1.05-.09,.33,.25,.51,.75,.25,1.17-.15,.24-.4,.39-.69,.39Z"/>
        <path class="cls-1" d="M13.77,8.33s-.02,0-.04,0c-.07,0-.13,0-.2-.03-.34-.09-.62-.41-.68-.8-.06-.38,.11-.73,.45-.89,.36-.17,.82-.07,1.1,.23,.16,.17,.23,.37,.22,.58,.03,.21-.02,.41-.14,.57-.16,.21-.42,.33-.71,.33Z"/>
      </g>
      <g>
        <path class="cls-1" d="M1.08,36.29s-.03,0-.04,0c-.41-.02-.81-.32-.96-.72-.04-.1-.06-.2-.06-.3-.04-.21-.02-.42,.05-.59,.13-.28,.39-.46,.7-.49,.3-.03,.62,.09,.86,.29,.21,.13,.36,.34,.41,.58,.05,.23,0,.47-.13,.68-.18,.35-.49,.56-.84,.56Z"/>
        <path class="cls-1" d="M6.41,41.6c-.12,0-.24-.02-.35-.07-.02,0-.03-.01-.05-.02-.2-.05-.38-.17-.51-.36-.2-.28-.25-.59-.17-.86,0-.09,.03-.18,.06-.26,.09-.25,.28-.43,.54-.52,.3-.1,.68-.06,.95,.11,.2,.12,.35,.29,.43,.47,.06,.09,.09,.19,.11,.3,.04,.24,0,.48-.13,.69-.04,.07-.08,.13-.14,.19-.09,.09-.2,.17-.31,.22-.12,.06-.25,.09-.39,.1-.02,0-.03,0-.05,0Z"/>
        <path class="cls-1" d="M3.03,44.31c-.36,0-.72-.14-.93-.48-.21-.34-.31-.94-.08-1.37,.26-.49,.82-.7,1.37-.51,.44,.15,.72,.51,.77,.92,.04,.08,.06,.17,.08,.27,.08,.49-.21,.92-.73,1.1-.15,.05-.32,.08-.49,.08Z"/>
      </g>
      <g>
        <path class="cls-1" d="M61.73,43.53s-.1,0-.15-.01c-.17-.01-.33-.07-.48-.15-.32-.19-.5-.54-.47-.93,.02-.35,.25-.64,.59-.75,.14-.05,.28-.07,.44-.05,.12,0,.28,.02,.41,.08,.15,.06,.27,.15,.37,.26,0,0,.02,.02,.03,.03,.24,.27,.28,.63,.12,.97,0,0,0,0,0,0-.07,.16-.19,.3-.35,.39-.03,.02-.05,.03-.08,.04-.13,.08-.28,.12-.43,.12Z"/>
        <path class="cls-1" d="M61.49,39.42s-.05,0-.07,0c-.31-.02-.6-.18-.81-.45-.23-.31-.36-.73-.33-1.1,0-.48,.27-.88,.76-1.1,.77-.36,1.24-.01,1.41,.15,.14,.14,.25,.32,.31,.53,.01,.02,.02,.04,.03,.06,.2,.45,.13,.96-.17,1.31-.05,.06-.11,.12-.17,.17-.24,.29-.58,.44-.96,.44Z"/>
        <path class="cls-1" d="M65.72,39.46c-.15,0-.29-.04-.43-.11-.12-.07-.23-.16-.31-.27-.13-.11-.24-.25-.32-.42-.14-.31-.12-.64,.06-.91,.23-.34,.69-.44,1.03-.44,.39,.01,.7,.17,.86,.43,.17,.28,.18,.6,.06,.88-.08,.28-.25,.54-.47,.68-.15,.1-.32,.15-.48,.15Z"/>
      </g>
      <g>
        <path class="cls-1" d="M89.76,58.99c-.31,0-.6-.18-.78-.48-.14-.24-.19-.5-.12-.72,.06-.19,.19-.35,.37-.45,.07-.04,.16-.07,.27-.08,.19-.08,.46-.09,.71,.09,.11,.05,.21,.13,.28,.24,.02,.02,.03,.05,.04,.07,.1,.15,.14,.33,.11,.53-.01,.09-.04,.17-.07,.24,0,.03-.02,.05-.03,.07-.03,.13-.1,.25-.21,.33-.12,.1-.28,.14-.44,.13-.02,0-.04,0-.06,0-.02,0-.05,0-.07,0Z"/>
        <path class="cls-1" d="M93.36,62.58c-.58,0-1.11-.44-1.29-.88-.12-.3-.09-.6,.07-.84,.04-.16,.13-.3,.25-.42,.23-.22,.57-.33,.94-.3,.05,0,.1,.01,.14,.02,.07,0,.15,.01,.22,.04,.61,.18,.8,.97,.7,1.44-.11,.55-.47,.9-.94,.94-.03,0-.07,0-.1,0Z"/>
        <path class="cls-1" d="M87.22,64.52c-.41,0-.8-.2-1.04-.55-.45-.67-.37-1.38,.2-1.78,.44-.31,1.3-.51,1.75,.02,.1,.12,.17,.26,.21,.4,.11,.17,.18,.38,.18,.62,.01,.56-.35,1.05-.89,1.23-.13,.04-.27,.06-.4,.06Z"/>
      </g>
    </g>
  </g>
  <g>
    <path class="cls-1" d="M121.02,71.03c-.22,0-.45-.02-.68-.05-.82-.12-1.65-.31-2.18-.89-.31-.34-.47-.68-.47-1.04,0-.08,0-.49,.06-.79,.19-.95,1.39-1.3,2.04-1.48,1.83-.52,3.36-.68,4.83-.48,.33,.05,.67,.08,1.01,.12,.37,.04,.75,.08,1.12,.13,1.04,.15,2.06,.32,3.1,.49l.73,.12c.22,.04,.39,.21,.42,.43,.03,.22-.1,.43-.3,.52-1.46,.61-2.45,1-3.42,1.33-.47,.16-.96,.29-1.44,.4-.31,.08-.6,.19-.91,.32-.36,.14-.74,.29-1.15,.38-.21,.05-.42,.1-.63,.15-.67,.16-1.37,.33-2.12,.33Zm2.34-3.81c-1,0-2.07,.17-3.29,.52-.31,.09-1.26,.36-1.33,.72-.03,.15-.04,.41-.04,.59,0,.1,.07,.22,.21,.37,.36,.39,1.19,.51,1.58,.57,.83,.12,1.56-.06,2.42-.27,.21-.05,.43-.1,.65-.15,.34-.07,.66-.2,1-.34,.32-.13,.66-.26,1.03-.36,.47-.12,.93-.23,1.37-.38,.54-.19,1.09-.39,1.72-.64-.69-.11-1.37-.22-2.06-.32-.36-.05-.72-.09-1.08-.13-.35-.04-.7-.07-1.04-.12-.37-.05-.74-.08-1.12-.08Z"/>
    <path class="cls-1" d="M140.93,71.03c-.75,0-1.44-.17-2.12-.33-.21-.05-.42-.1-.63-.15-.42-.09-.79-.24-1.15-.38-.31-.12-.6-.24-.9-.31-.49-.12-.99-.25-1.46-.41-.97-.33-1.96-.72-3.42-1.33-.21-.09-.33-.3-.3-.52,.03-.22,.2-.4,.42-.43l.74-.12c1.04-.17,2.06-.34,3.09-.49,.37-.05,.75-.09,1.12-.13,.34-.04,.67-.07,1.01-.12,1.47-.2,3-.05,4.83,.48,.65,.19,1.85,.53,2.04,1.48,.05,.24,.06,.58,.06,.79,0,.36-.16,.69-.47,1.04-.53,.58-1.36,.77-2.18,.89-.23,.03-.46,.05-.68,.05Zm-7.65-3.17c.64,.25,1.18,.45,1.72,.64,.44,.15,.91,.27,1.36,.38,.38,.1,.72,.23,1.04,.36,.34,.13,.66,.26,1,.34,.22,.05,.44,.1,.65,.15,.85,.21,1.59,.39,2.42,.27,.4-.06,1.22-.18,1.58-.57,.14-.15,.21-.27,.21-.37,0-.18-.01-.45-.04-.59-.07-.35-1.02-.63-1.33-.72-1.69-.48-3.09-.62-4.42-.45-.34,.05-.69,.08-1.04,.12-.36,.04-.72,.07-1.08,.13-.69,.1-1.37,.21-2.06,.32Z"/>
    <path class="cls-1" d="M131.04,68.85c-.24,0-.47-.07-.7-.21-.37-.23-.57-.66-.5-1.13,.04-.27,.15-.51,.32-.7,.06-.11,.14-.21,.24-.29,.34-.27,.78-.29,1.19-.07,.45,.25,.74,.73,.7,1.18-.05,.48-.31,.88-.71,1.08-.17,.09-.36,.13-.54,.13Z"/>
  </g>
</svg>