<?xml version="1.0" encoding="UTF-8"?>
<svg id="_レイヤー_1" data-name="レイヤー 1" xmlns="http://www.w3.org/2000/svg" viewBox="0 0 743.05 348">
  <defs>
    <style>
      .cls-1 {
        letter-spacing: .1em;
      }

      .cls-2 {
        letter-spacing: .1em;
      }

      .cls-3 {
        font-size: 19px;
      }

      .cls-3, .cls-4, .cls-5, .cls-6 {
        fill: #507564;
      }

      .cls-3, .cls-5 {
        font-family: Mamelon-5-Hi-Regular-83pv-RKSJ-H, Mamelon;
      }

      .cls-7 {
        fill: #527665;
      }

      .cls-8 {
        fill: #58685a;
      }

      .cls-9 {
        letter-spacing: .25em;
      }

      .cls-10 {
        fill: none;
        stroke: #527665;
      }

      .cls-10, .cls-6, .cls-11 {
        stroke-miterlimit: 10;
      }

      .cls-5 {
        font-size: 23.33px;
      }

      .cls-6 {
        font-family: HiraKakuProN-W3-83pv-RKSJ-H, 'Hiragino Kaku Gothic ProN';
        font-size: 16.21px;
        letter-spacing: .19em;
        stroke: #00361c;
        stroke-width: .25px;
      }

      .cls-11 {
        fill: #f2f2f2;
        stroke: #507564;
        stroke-width: 6px;
      }

      .cls-12 {
        letter-spacing: .15em;
      }
    </style>
  </defs>
  <rect class="cls-11" x="3" y="3" width="737.05" height="342"/>
  <g>
    <text class="cls-3" transform="translate(109.28 266.91)"><tspan class="cls-2" x="0" y="0">TEL</tspan><tspan x="43.91" y="0">：</tspan><tspan class="cls-1" x="62.91" y="0">054-355-5107</tspan><tspan x="0" y="33.25">FAX：</tspan><tspan class="cls-1" x="64.07" y="33.25">054-355-5108</tspan></text>
    <text class="cls-3" transform="translate(411.55 267.14)"><tspan class="cls-1" x="0" y="0">月～金</tspan><tspan x="62.7" y="0">：9：0</tspan><tspan class="cls-9" x="125.97" y="0">0～</tspan><tspan x="167.68" y="0">17：30</tspan><tspan class="cls-1" x="0" y="33.25">定休日</tspan><tspan x="62.7" y="33.25">：</tspan><tspan class="cls-12" x="81.7" y="33.25">土日祝</tspan></text>
  </g>
  <line class="cls-10" x1="36.52" y1="227.37" x2="706.52" y2="227.37"/>
  <line class="cls-10" x1="36.52" y1="221" x2="706.52" y2="221"/>
  <rect class="cls-10" x="14.26" y="14" width="714.53" height="320"/>
  <text class="cls-6" transform="translate(149.48 178.24)"><tspan x="0" y="0" xml:space="preserve">HAMADA  TAKAYUKI  TAX  ACCOUNTANT  OFFICE</tspan></text>
  <g>
    <path class="cls-4" d="M69.26,128.98c-.52-1.48,1.2-2.21,2.34-2.45,1.25-.26,2.5-.45,3.73-.78,2.49-.68,4.88-1.73,6.94-3.31,.29-.22,.3-.71-.11-.82-1.35-.38-3-.37-4.19,.48s-1.26,2.49-1.53,3.85c-.36,1.79-.97,3.52-1.53,5.25-.29,.91-.58,1.82-.88,2.72-.2,.63-.39,2.06-1.18,2.19-.57,.09-.33,.96,.24,.87,1.27-.2,1.53-1.96,1.85-2.95,.56-1.74,1.14-3.48,1.68-5.23,.25-.82,.48-1.64,.66-2.47,.15-.73,.22-1.48,.42-2.2,.52-1.87,2.6-2.09,4.23-1.63l-.11-.82c-2.48,1.89-5.41,3-8.44,3.63-1.3,.27-2.8,.32-3.92,1.11-.89,.63-1.44,1.75-1.06,2.82,.19,.54,1.06,.31,.87-.24h0Z"/>
    <path class="cls-4" d="M78.91,130.77c.33-.54,.77-1.08,1.4-1.25,.7-.19,1.39,.13,1.56,.85,.24,1.02-.19,2.5-.86,3.28-.25,.29-.63,.76-1.02,.17-.11-.17-.07-.45-.04-.63,.07-.48,.33-.93,.67-1.27,.74-.75,1.8-1.06,2.82-.76l-.31-.31c.39,1.18,1.49,2.03,2.76,1.95,.8-.05,.89-.87,1.16-1.51,.18-.42,.33-.99,.61-1.36,.5-.67,1.08-.49,1.7-.12,1.32,.78,2.54,1.88,4.12,2.05,1.22,.13,2.45-.27,3.1-1.36,.3-.5-.48-.95-.78-.45-.85,1.43-2.76,.97-3.94,.29-1.07-.61-2.46-2.07-3.8-1.83s-1.54,2-2.06,2.96c-.26,.49-.5,.53-1.03,.27-.35-.17-.67-.45-.85-.8-.3-.58-.4-.71-1.1-.78-1.96-.21-4.5,1.63-3.92,3.81,.25,.95,1.15,1.38,2,.82,1.01-.68,1.49-1.95,1.65-3.11,.18-1.26,0-2.63-1.41-3.02s-2.53,.55-3.2,1.65c-.3,.5,.48,.95,.78,.45h0Z"/>
    <path class="cls-4" d="M93.51,126.37c-2.13,2.52-4.27,5.03-6.4,7.55-.37,.44,.26,1.08,.64,.64,2.13-2.52,4.27-5.03,6.4-7.55,.37-.44-.26-1.08-.64-.64h0Z"/>
  </g>
  <path class="cls-4" d="M64.62,141.71c-4.14-5.05-7.02-11.06-8.36-17.45-.35-1.67-.65-3.38-.56-5.1,.09-1.8,.76-3.52,1.58-5.11,1.36-2.62,3.19-4.94,5.34-6.94,4.64-4.31,10.57-6.89,16.73-8.09,3.45-.67,6.98-.9,10.5-.84,3.01,.05,7.32-.2,9.62,2.14,2.65,2.69-.25,5.69-2.56,7.28-2.73,1.87-5.77,3.19-8.98,4-2.86,.72-5.79,1.03-8.74,1.12-2.73,.08-5.61,.16-8.29-.36-1.84-.36-3.3-1.1-4.22-2.82s-1.03-3.81-.76-5.69c.83-5.87,6.21-9.93,10.57-13.33,2.49-1.95,5.25-3.51,7.76-5.44,1.44-1.11,2.67-2.58,2.2-4.52-.54-2.21-2.87-3.23-4.42-4.63-.92-.83-1.53-1.81-1.15-3.09,.49-1.65,2.09-2.94,3.42-3.93,1.15-.85,.03-2.81-1.14-1.94-2.33,1.73-5.19,4.29-4.58,7.54,.45,2.38,2.63,3.56,4.35,4.96,.62,.51,1.52,1.25,1.36,2.17-.11,.64-.76,1.15-1.23,1.54-2.37,1.93-5.12,3.41-7.55,5.28-4.97,3.82-10.83,8.36-11.79,14.99-.63,4.31,.71,9.23,5.21,10.74,2.73,.92,5.84,.84,8.68,.83,3.2-.02,6.41-.26,9.55-.92,3.5-.73,6.9-2.02,9.94-3.92,2.6-1.63,5.63-3.99,5.7-7.36s-2.88-5.51-5.79-6.22c-3.64-.89-7.74-.77-11.46-.56-7.3,.42-14.64,2.32-20.72,6.49-5.23,3.58-10.62,9.42-11.33,16-.39,3.55,.69,7.46,1.79,10.8s2.67,6.69,4.6,9.71c.96,1.49,2.01,2.92,3.14,4.29,.92,1.12,2.5-.48,1.59-1.59h0Z"/>
  <path class="cls-4" d="M61.8,141.81c2.67,3.54,5.92,6.92,9.72,9.26,2.16,1.33,4.71,1.12,7.16,1.09s5.11-.05,7.61-.42c7.43-1.09,12.57-8.87,15.39-15.19,2.66-5.95,3.01-12.37,3.74-18.77,.42-3.71,1.46-7.75,4.51-10.2,3.66-2.94,8.92-.72,10.37,3.51,.74,2.16,.55,4.33-.23,6.45s-1.92,4.58-3.54,6.29c-1.33,1.41-3.7,3.18-5.64,1.89-2.25-1.5,.06-3.71,1.85-4.04,1.42-.26,.82-2.43-.6-2.17-3.77,.7-6.29,5.53-2.53,8.06s8.29-1.24,10.24-4.43c2.26-3.71,4.06-8.2,2.66-12.52-1.31-4.06-5.53-7.25-9.91-6.65s-7.28,4.93-8.52,8.89c-1.37,4.41-1.25,9.24-1.93,13.78-1.04,6.9-3.92,13.46-8.81,18.54-1.64,1.7-3.53,3.22-5.81,3.95-2.7,.87-5.8,.74-8.62,.78-1.64,.02-3.68,.28-5.25-.27-1.37-.48-2.63-1.6-3.73-2.51-2.31-1.9-4.4-4.06-6.2-6.45-.86-1.14-2.82-.02-1.94,1.14h0Z"/>
  <path class="cls-4" d="M63.67,142.76c-6.08,.82-19.71,2.87-17.04,11.91,1.21,4.1,5.89,5.86,9.6,6.97,5.25,1.56,10.86,1.85,16.31,1.91,6.84,.07,13.74-.07,20.51-1.08,3.43-.51,6.86-.85,10.18-1.92,4.19-1.36,8.39-3.15,11.51-6.39,1.82-1.89,2.7-4.41,1.81-6.96-.76-2.2-2.53-3.47-4.64-4.29-4.01-1.55-8.62-1.81-12.88-1.84-1.45,0-1.45,2.24,0,2.25,3.33,.02,6.72,.25,9.96,1.05,1.78,.44,4.03,1.04,5.05,2.71,1.11,1.81,.6,3.89-.77,5.37-2.67,2.87-6.4,4.56-10.06,5.75-3.13,1.02-6.22,1.43-9.47,1.92-6.09,.91-12.17,1.11-18.32,1.19-3.97,.05-7.96-.05-11.91-.51-4.17-.48-8.98-1.38-12.49-3.87-1.68-1.19-2.77-3.09-2.36-5.2,.47-2.46,3.06-3.6,5.18-4.39,3.34-1.24,6.9-1.93,10.43-2.41,1.43-.19,.82-2.36-.6-2.17h0Z"/>
  <text class="cls-5" transform="translate(148.58 86.07)"><tspan x="0" y="0">税理士・公認会計士</tspan></text>
  <g>
    <g>
      <path class="cls-8" d="M172.86,107.41c-.63-.82-1.21-1.66-1.8-2.51-.36-.49-.69-1.01-.99-1.54,0,0,0,0,0,0-.17-.29-.59-.3-.77-.02-1.02,1.6-.53,4.41,.95,6.32,1.48,1.91,3.47,2.29,5.11,1.48,.27-.13,.33-.49,.12-.71-.28-.3-.57-.6-.82-.87-.61-.71-1.23-1.41-1.8-2.15Z"/>
      <path class="cls-8" d="M177.07,104.38c-1.48-1.91-4.08-3.09-5.89-2.49-.32,.1-.41,.51-.18,.74,.02,.02,.03,.03,.04,.04,.44,.42,.85,.87,1.24,1.34,.67,.79,1.34,1.56,1.97,2.37,.57,.74,1.09,1.51,1.63,2.28,.19,.3,.41,.64,.62,.97,.16,.25,.52,.28,.72,.06,1.19-1.38,1.33-3.4-.15-5.31Z"/>
    </g>
    <g>
      <circle class="cls-7" cx="411.34" cy="144.27" r="2.9"/>
      <circle class="cls-7" cx="467.07" cy="145.83" r="2.69"/>
      <circle class="cls-7" cx="440.74" cy="138.27" r="2.59"/>
      <circle class="cls-7" cx="519.1" cy="144.91" r="2.68"/>
      <circle class="cls-7" cx="578.5" cy="111.22" r="2.85"/>
      <circle class="cls-7" cx="552.93" cy="146.24" r="2.76"/>
      <circle class="cls-7" cx="626.27" cy="146.36" r="2.57"/>
      <circle class="cls-7" cx="635.35" cy="128.06" r="2.56"/>
      <circle class="cls-7" cx="635.11" cy="112.67" r="2.24"/>
      <ellipse class="cls-7" cx="670.09" cy="147.35" rx="3.09" ry="2.85"/>
      <circle class="cls-7" cx="522.01" cy="123.63" r="2.76"/>
      <ellipse class="cls-7" cx="690.91" cy="123.07" rx="3.09" ry="2.85"/>
      <g>
        <g>
          <path class="cls-7" d="M157.48,132.35c-1.21,5.47-3.44,11.56-5.71,16.21-.39,.82-1.31,1.21-2.18,.92-.73-.24-1.11-1.06-.77-1.74,2.18-4.45,4.5-10.31,5.76-16.11,.15-.82,.97-1.31,1.74-1.11,.82,.19,1.35,1.02,1.16,1.84Zm10.35,12.78c.29,.82-.1,1.74-.87,2.03-2.27,.92-5.37,1.6-7.79,1.84-.77,.1-1.5-.53-1.55-1.36-.05-.77,.53-1.45,1.35-1.55,2.03-.29,4.94-.87,7.07-1.69,.73-.29,1.55,.05,1.79,.73Zm-9.24-16.02c-.1-.82,.48-1.55,1.31-1.65,3.58-.53,8.13-1.6,12.73-3.44-.48-.24-.82-.73-.82-1.31v-4.35h-6.48c-.73,0-1.36-.53-1.36-1.31,0-.73,.58-1.31,1.36-1.31h16.26c.73,0,1.35,.53,1.35,1.31,0,.73-.58,1.31-1.35,1.31h-6.87v4.35c0,.15,0,.29-.05,.44,1.89-.87,3.77-1.89,5.56-3.1,.68-.44,1.55-.19,1.94,.44,.39,.77,.19,1.74-.53,2.18-2.37,1.55-4.89,2.81-7.45,3.82h8.32c1.45,0,2.61,1.16,2.61,2.61v11.32c0,1.4-1.16,2.61-2.61,2.61h-16.79c-1.5,0-2.61-1.21-2.61-2.61v-10.65c-.97,.19-1.94,.39-2.85,.53-.77,.15-1.55-.44-1.65-1.21Zm.48-5.03c-.1-.77,.39-1.45,1.16-1.65,2.27-.48,4.5-1.16,6.34-1.94,.63-.29,1.36,.05,1.6,.68,.24,.77-.1,1.65-.82,1.98-2.03,.92-4.4,1.6-6.68,2.03-.73,.14-1.45-.39-1.6-1.11Zm.05-7.31v-3.19c0-1.45,1.16-2.61,2.61-2.61h23.42c1.45,0,2.61,1.16,2.61,2.61l-3,.1h-22.65v3.1c0,.82-.68,1.45-1.5,1.45-.87,0-1.5-.63-1.5-1.45Zm22.94,12.34h-15.97v2.13h15.97v-2.13Zm0,6.73v-2.18h-15.97v2.18h15.97Zm-15.97,4.55h15.97v-2.08h-15.97v2.08Zm23.32,7.31c-.15,.92-.97,1.5-1.79,1.4-2.03-.29-4.65-.97-7.11-1.79-.82-.29-1.21-1.26-.92-2.08,.29-.77,1.21-1.16,2.03-.82,2.08,.87,4.45,1.4,6.48,1.65,.82,.15,1.4,.87,1.31,1.65Z"/>
          <path class="cls-7" d="M239.6,110.38c1.4,0,2.61,1.11,2.61,2.61v32.28c0,1.45-1.21,2.61-2.61,2.61h-30c-1.45,0-2.61-1.21-2.61-2.61v-32.28c0-1.5,1.21-2.61,2.61-2.61h30Zm-16.5,2.95h-13.02v13.26h13.02v-13.26Zm-13.02,16.21v15.34h13.02v-15.34h-13.02Zm29.03-2.95v-13.26h-13.02v13.26h13.02Zm-13.02,18.29h13.02v-15.34h-13.02v15.34Z"/>
          <path class="cls-7" d="M274.15,144.45c.29,.82-.1,1.74-.92,2.03-3.39,1.36-7.84,2.27-11.37,2.56-.87,.1-1.6-.53-1.69-1.4-.1-.77,.48-1.5,1.31-1.6,4.06-.44,7.79-1.26,10.84-2.42,.77-.29,1.6,.1,1.84,.82Zm-12.53-20.76c-.73,0-1.31-.58-1.31-1.31,0-.68,.58-1.26,1.31-1.26h17.42v-2.08h-10.21c-1.55,0-2.66-1.21-2.66-2.66v-2.95c0-1.45,1.11-2.66,2.66-2.66h10.21v-1.45c0-.87,.68-1.5,1.5-1.5,.87,0,1.5,.68,1.5,1.5v1.45h10.26c1.55,0,2.66,1.21,2.66,2.66v2.95c0,1.45-1.21,2.66-2.66,2.66h-10.26v2.08h17.42c.68,0,1.26,.53,1.26,1.26s-.53,1.31-1.26,1.31h-37.84Zm29.81,1.79c1.5,0,2.66,1.26,2.66,2.66v12.05c0,1.5-1.26,2.66-2.66,2.66h-21.73c-1.45,0-2.66-1.21-2.66-2.66v-12.05c0-1.45,1.21-2.66,2.66-2.66h21.73Zm-22.21-8.95h9.82v-3.24h-9.82v3.24Zm21.73,11.71h-20.81v2.18h20.81v-2.18Zm-20.81,4.84v2.23h20.81v-2.23h-20.81Zm0,7.02h20.81v-2.18h-20.81v2.18Zm21.77-26.81h-9.87v3.24h9.87v-3.24Zm9,34.36c-.1,.87-.87,1.5-1.69,1.4-3.53-.34-8.08-1.21-11.37-2.52-.82-.34-1.21-1.21-.92-2.08,.24-.73,1.06-1.11,1.84-.82,3.1,1.21,6.82,2.03,10.84,2.37,.77,.1,1.4,.82,1.31,1.65Z"/>
          <path class="cls-7" d="M355.19,145.61c.82,0,1.45,.63,1.45,1.4,0,.82-.68,1.4-1.45,1.4h-14.23c-7.31,0-12.68-3.39-15-9.29-1.84,3.44-4.26,7.11-6.19,9.29-.63,.73-1.74,.77-2.56,.1-.68-.63-.73-1.69-.1-2.37,3.34-3.63,5.9-7.64,7.98-12.48,.34-.77,1.21-1.11,1.98-.82,.82,.34,1.21,1.26,.87,1.98l-.29,.73c.39,1.6,1.16,3.58,2.56,5.37,6.15-4.16,13.26-12.34,17.27-21.44h-26.03c-.87,0-1.5-.68-1.5-1.5s.63-1.5,1.5-1.5h27.97c1.26,0,2.18,1.21,1.69,2.37-3.82,10.06-12.05,19.65-18.63,24.24,2.03,1.5,4.74,2.52,8.47,2.52h14.23Z"/>
          <path class="cls-7" d="M383.98,135.64c-.48-1.89-1.11-3.39-1.79-4.69v16.69c0,.82-.68,1.45-1.5,1.45s-1.5-.63-1.5-1.45v-15c-1.35,2.76-3.15,5.52-5.32,7.74-.58,.53-1.5,.44-1.94-.19-.53-.73-.44-1.74,.19-2.47,3.73-4.11,6.39-9.53,6.97-14.18,0-.1,.05-.19,.05-.29h-5.42c-.82,0-1.5-.68-1.5-1.5s.68-1.5,1.5-1.5h5.47v-6.63c-1.6,.29-3.19,.48-4.84,.63-.82,.05-1.5-.58-1.55-1.36-.1-.77,.48-1.5,1.31-1.6,4.4-.39,8.81-1.45,11.61-2.52,.73-.29,1.55,.05,1.79,.73,.29,.87-.05,1.74-.82,2.08-1.26,.48-2.81,.97-4.5,1.4v7.26h4.4c.82,0,1.5,.68,1.5,1.5s-.63,1.5-1.5,1.5h-4.4v2.56l.15,.15c1.69,2.03,3.53,5.52,4.36,8.47,.24,.82-.24,1.69-1.06,2.03-.68,.29-1.45-.1-1.65-.82Zm29.76,10.26c-1.45,2.18-3.1,3-6.15,3-4.55,0-6.39-1.4-6.39-4.79v-13.6h-2.95c-.68,8.18-4.89,14.71-11.52,18-.77,.34-1.65-.05-1.94-.82-.34-.82,.05-1.69,.87-2.13,5.47-2.76,9-8.32,9.58-15.05h-2.66c-1.45,0-2.61-1.16-2.61-2.61v-8.76c0-1.45,1.16-2.61,2.61-2.61h7.69c2.08-2.08,3.82-4.98,4.74-7.98,.24-.82,1.02-1.26,1.79-1.02,.82,.29,1.31,1.16,1.06,1.94-.68,2.32-2.03,4.98-3.63,7.06h3.53c1.45,0,2.61,1.21,2.61,2.61v8.76c0,1.45-1.16,2.61-2.61,2.61h-3.58v13.36c0,1.69,.82,2.13,3.73,2.13,1.65,0,2.42-.39,3.34-1.84,.44-.68,1.31-.92,1.94-.48,.77,.53,.97,1.5,.53,2.23Zm-20.71-26.47v8.18h14.32v-8.18h-14.32Z"/>
          <path class="cls-7" d="M441.76,140.67c-3.29,1.69-8.27,3.63-12.1,4.55-.82,.19-1.65-.34-1.84-1.21-.15-.82,.39-1.65,1.26-1.89,1.5-.34,2.95-.82,4.4-1.31v-14.42h-3.44c-.87,0-1.55-.73-1.55-1.55,0-.87,.68-1.55,1.55-1.55h3.44v-9.53h-3.73c-.82,0-1.5-.68-1.5-1.5,0-.87,.63-1.55,1.5-1.55h10.6c.87,0,1.55,.68,1.55,1.55,0,.82-.73,1.5-1.55,1.5h-3.73v9.53h3.48c.87,0,1.5,.73,1.5,1.55,0,.87-.68,1.55-1.5,1.55h-3.48v13.21c1.6-.68,3.1-1.4,4.31-2.08,.68-.39,1.55-.05,1.79,.68,.29,.97-.1,1.98-.97,2.47Zm25.36,4.74c.82,0,1.5,.68,1.5,1.55,0,.82-.68,1.55-1.5,1.55h-24.1c-.82,0-1.5-.73-1.5-1.55s.68-1.55,1.5-1.55h10.55v-5.76h-7.79c-.87,0-1.55-.68-1.55-1.5s.68-1.55,1.55-1.55h7.79v-5.9h-7.11c-1.45,0-2.61-1.16-2.61-2.61v-16.07c0-1.45,1.21-2.61,2.61-2.61h17.23c1.5,0,2.61,1.16,2.61,2.61v16.07c0,1.5-1.16,2.61-2.61,2.61h-7.11v5.9h7.79c.87,0,1.55,.73,1.55,1.55,0,.87-.73,1.5-1.55,1.5h-7.79v5.76h10.55Zm-13.55-33.1h-6.68v6.34h6.68v-6.34Zm-6.68,15.48h6.68v-6.34h-6.68v6.34Zm16.36-9.15v-6.34h-6.68v6.34h6.68Zm-6.68,9.15h6.68v-6.34h-6.68v6.34Z"/>
          <path class="cls-7" d="M521.98,123.35c.87,0,1.55,.73,1.55,1.55-.05,.82-.73,1.5-1.55,1.5h-16.16v18.19h13.21c.82,0,1.5,.63,1.5,1.5,0,.82-.68,1.5-1.5,1.5h-29.52c-.82,0-1.5-.63-1.5-1.5,0-.82,.68-1.5,1.5-1.5h13.21v-18.19h-16.16c-.82,0-1.5-.68-1.55-1.5,0-.87,.73-1.55,1.55-1.55h16.16v-12.77c0-.92,.73-1.55,1.55-1.55,.87,0,1.55,.68,1.55,1.55v12.77h16.16Z"/>
          <path class="cls-7" d="M578.98,133.42c.77,0,1.35,.63,1.35,1.4s-.63,1.4-1.35,1.4h-2.61v2.81c0,1.45-1.16,2.61-2.61,2.61h-12.15v2.32c0,4.11-1.84,5.23-8.52,5.03-.82-.05-1.5-.73-1.45-1.65,0-.82,.68-1.5,1.55-1.45,4.98,.1,5.42,.05,5.42-1.94v-2.32h-13.69c-.73,0-1.35-.58-1.35-1.36s.58-1.4,1.35-1.4h13.69v-2.66h-17.18c-.77,0-1.36-.63-1.36-1.4s.63-1.4,1.36-1.4h17.18v-2.42h-13.69c-.73,0-1.35-.58-1.35-1.4,0-.73,.58-1.36,1.35-1.36h13.69v-2.85h-9.97c-1.5,0-2.61-1.21-2.61-2.61v-3.19c0-1.5,1.16-2.61,2.61-2.61h9.97v-2.9h-16.74c-.77,0-1.35-.63-1.35-1.4s.63-1.36,1.35-1.36h16.74v-1.98c0-.87,.68-1.5,1.5-1.5s1.5,.63,1.5,1.5v1.98h16.94c.77,0,1.35,.63,1.35,1.36,0,.82-.63,1.4-1.35,1.4h-16.94v2.9h10.21c1.45,0,2.61,1.16,2.61,2.61v3.19c0,1.45-1.21,2.61-2.61,2.61h-10.21v2.85h12.15c1.45,0,2.61,1.16,2.61,2.61v2.56h2.61Zm-30-10.64h9.63v-3.19h-9.63v3.19Zm22.4-3.19h-9.77v3.19h9.77v-3.19Zm-9.77,11.42v2.42h11.76v-2.42h-11.76Zm11.76,7.89v-2.66h-11.76v2.66h11.76Z"/>
          <path class="cls-7" d="M609.52,134.14c-.73-.29-1.02-1.26-.63-1.98,.87-1.6,1.45-3.44,1.84-5.61h-4.16l.05,16.79c0,4.11-2.42,6.15-6.77,5.66-.82-.1-1.4-.87-1.31-1.74,.1-.77,.82-1.31,1.6-1.21,2.08,.29,3.58,.05,3.58-2.71l-.05-10.65c-1.6,2.81-3.68,5.47-5.9,7.4-.58,.48-1.5,.34-1.94-.34s-.34-1.6,.34-2.18c3.34-2.95,5.9-6.97,7.11-11.03h-5.9c-.82,0-1.45-.68-1.45-1.5s.63-1.45,1.45-1.45h6.87c-1.21-2.27-3.15-5.03-5.13-7.06-.58-.58-.48-1.5,.15-1.89,.87-.53,1.94-.44,2.56,.34,.87,1.02,1.84,2.32,2.76,3.68,1.69-1.4,3.77-3.44,5.27-6.73h-11.61c-.82,0-1.45-.63-1.45-1.45s.68-1.45,1.45-1.45h13.6c1.16,0,1.98,1.11,1.65,2.18-1.89,5.32-4.89,8.23-7.21,10.11,.48,.77,.92,1.55,1.26,2.27h4.16c1.26,0,2.27,1.11,2.13,2.32-.34,2.32-.87,4.84-2.03,7.4-.34,.82-1.35,1.21-2.27,.82Zm23.32-1.02c1.4,0,2.52,1.21,2.47,2.56-.19,2.81-.44,6.34-.77,8.23-.68,3.97-3.44,5.52-8.71,4.98-.77-.1-1.35-.87-1.21-1.69,.1-.82,.87-1.36,1.69-1.31,3.63,.34,4.94-.29,5.27-2.52,.29-1.65,.53-4.74,.68-7.35h-7.36c-1.84,6-5.76,10.21-11.81,12.53-.77,.29-1.6-.14-1.84-.92-.24-.82,.19-1.69,1.02-2.03,4.79-1.98,7.89-5.03,9.48-9.58h-6.19c-.82,0-1.45-.63-1.45-1.45s.68-1.45,1.45-1.45h6.97c.24-1.21,.39-2.47,.48-3.82,.1-.82,.77-1.5,1.6-1.5s1.45,.68,1.4,1.45c-.1,1.36-.24,2.66-.44,3.87h7.26Zm3.63-3.73c-.1,.82-.87,1.36-1.65,1.16-3.63-.92-7.02-2.66-10.06-5.13-2.42,1.94-5.32,3.53-8.61,4.65-.73,.29-1.6-.15-1.84-.97-.24-.77,.19-1.65,.97-1.94,2.81-1.06,5.23-2.32,7.21-3.77-1.4-1.4-2.71-3-3.92-4.74-.44-.73-.29-1.65,.44-2.18,.63-.44,1.55-.24,2.03,.44,1.16,1.69,2.37,3.19,3.73,4.5,1.89-1.84,3.29-3.97,4.26-6.48h-9.68c-1.36,1.89-2.9,3.53-4.4,4.6-.58,.44-1.4,.29-1.89-.34-.44-.58-.34-1.4,.19-1.94,2.76-2.56,4.98-5.76,6.1-8.61,.34-.82,1.16-1.31,1.98-1.06s1.26,1.11,.97,1.89c-.34,.87-.73,1.79-1.21,2.66h13.94c.77,0,1.4,.63,1.4,1.4,0,.82-.63,1.4-1.4,1.4h-2.76c-.97,3.14-2.76,6-5.23,8.47,2.42,1.89,5.13,3.24,8.08,4.06,.87,.24,1.45,1.07,1.36,1.94Z"/>
          <path class="cls-7" d="M653.45,112.71c-.87,0-1.5-.73-1.5-1.55s.63-1.55,1.5-1.55h16.94c.87,0,1.55,.73,1.55,1.55,0,.87-.73,1.55-1.55,1.55h-16.94Zm16.89,17.37c0,1.45-1.21,2.61-2.61,2.61h-10.06c0,2.52-.1,9.53-2.03,15.29-.34,.92-1.31,1.45-2.32,1.26-.77-.14-1.21-1.02-.87-1.79,2.27-5.37,2.23-11.86,2.23-17.86v-9.1c0-1.45,1.16-2.61,2.61-2.61h10.45c1.45,0,2.61,1.16,2.61,2.61v9.58Zm-3-.34v-8.9h-9.63v8.9h9.63Zm23.42-6.77c.82,0,1.5,.68,1.5,1.5s-.68,1.45-1.5,1.45h-3.82v21.68c0,.82-.68,1.5-1.5,1.5s-1.5-.68-1.5-1.5v-21.68h-7.74c-.1,8.57-1.16,16.16-3.15,22.26-.24,.87-1.16,1.4-2.08,1.21-.73-.15-1.16-.92-.92-1.69,1.98-5.95,3.05-14.13,3.05-23.18v-9.05c0-1.5,1.11-2.76,2.66-3,5.56-.77,10.6-2.03,14.42-3.58,.73-.34,1.55,.1,1.74,.82,.29,.92-.19,1.84-1.02,2.18-3.97,1.55-9.15,2.81-14.71,3.63v7.45h14.57Z"/>
        </g>
        <circle class="cls-7" cx="154.95" cy="131.65" r="2.62"/>
        <ellipse class="cls-7" cx="185.98" cy="114.64" rx="2.25" ry="3.43" transform="translate(-13.43 25.39) rotate(-7.54)"/>
        <circle class="cls-7" cx="299.47" cy="121.11" r="2.58"/>
        <circle class="cls-7" cx="299.59" cy="146.51" r="2.57"/>
        <circle class="cls-7" cx="355.1" cy="145.22" r="3.19"/>
      </g>
      <circle class="cls-7" cx="600.09" cy="146.24" r="2.76"/>
    </g>
    <g>
      <path class="cls-8" d="M152.18,110.58c-.72-.54-1.4-1.12-2.09-1.69-.42-.33-.81-.69-1.18-1.07,0,0,0,0,0,0-.21-.21-.56-.12-.65,.16-.49,1.58,.56,3.83,2.24,5.1,1.68,1.27,3.44,1.13,4.63,.07,.2-.17,.17-.49-.06-.62-.3-.18-.61-.38-.89-.55-.67-.46-1.35-.9-2-1.39Z"/>
      <path class="cls-8" d="M155.03,107.07c-1.68-1.27-4.14-1.66-5.52-.75-.24,.16-.23,.52,.02,.66,.02,.01,.03,.02,.04,.02,.47,.25,.92,.54,1.35,.85,.74,.51,1.48,1,2.2,1.54,.65,.49,1.26,1.02,1.89,1.54,.23,.21,.49,.44,.74,.68,.19,.18,.5,.12,.62-.12,.69-1.44,.34-3.16-1.34-4.43Z"/>
    </g>
    <g>
      <path class="cls-8" d="M152.05,122.19c-.7-.56-1.36-1.16-2.04-1.75-.41-.34-.79-.71-1.15-1.1,0,0,0,0,0,0-.2-.22-.56-.14-.65,.14-.54,1.56,.45,3.85,2.09,5.16,1.65,1.32,3.41,1.23,4.63,.21,.2-.17,.18-.48-.04-.63-.3-.19-.6-.39-.87-.57-.66-.48-1.32-.94-1.96-1.45Z"/>
      <path class="cls-8" d="M155,118.76c-1.64-1.32-4.09-1.78-5.5-.91-.25,.15-.25,.51,0,.67,.02,.01,.03,.02,.04,.02,.46,.27,.9,.56,1.33,.89,.73,.53,1.45,1.04,2.16,1.61,.64,.51,1.23,1.06,1.85,1.6,.23,.21,.48,.46,.72,.7,.19,.18,.5,.13,.62-.1,.73-1.41,.43-3.15-1.21-4.47Z"/>
    </g>
    <g>
      <path class="cls-8" d="M335.02,113.07c-.59-.76-1.13-1.55-1.69-2.34-.34-.46-.65-.94-.93-1.44,0,0,0,0,0,0-.16-.27-.55-.28-.72-.02-.95,1.49-.5,4.12,.88,5.91,1.39,1.79,3.25,2.14,4.78,1.38,.25-.12,.31-.46,.12-.66-.26-.28-.53-.56-.76-.82-.57-.67-1.15-1.31-1.68-2.01Z"/>
      <path class="cls-8" d="M338.96,110.24c-1.38-1.79-3.82-2.89-5.51-2.33-.3,.1-.39,.47-.17,.69,.02,.02,.03,.03,.04,.04,.41,.39,.8,.81,1.16,1.26,.63,.73,1.26,1.46,1.85,2.22,.54,.69,1.02,1.41,1.52,2.13,.18,.28,.38,.6,.58,.91,.15,.24,.49,.27,.67,.05,1.12-1.29,1.24-3.18-.14-4.97Z"/>
    </g>
    <g>
      <path class="cls-8" d="M395.89,111.39c-.55-.71-1.06-1.45-1.57-2.18-.32-.43-.6-.88-.86-1.34,0,0,0,0,0,0-.14-.26-.51-.27-.67-.02-.89,1.39-.46,3.84,.82,5.51,1.29,1.67,3.02,1.99,4.45,1.29,.23-.12,.29-.43,.11-.62-.25-.26-.49-.52-.71-.76-.53-.62-1.07-1.22-1.57-1.87Z"/>
      <path class="cls-8" d="M399.56,108.76c-1.29-1.66-3.56-2.69-5.13-2.17-.28,.09-.36,.44-.15,.65,.02,.02,.03,.03,.03,.03,.38,.37,.74,.76,1.08,1.17,.58,.68,1.17,1.36,1.72,2.07,.5,.65,.95,1.32,1.42,1.99,.17,.26,.36,.55,.54,.85,.14,.22,.45,.25,.63,.05,1.04-1.2,1.16-2.96-.13-4.63Z"/>
    </g>
  </g>
</svg>