<?xml version="1.0" encoding="UTF-8"?>
<svg id="_レイヤー_1" data-name="レイヤー 1" xmlns="http://www.w3.org/2000/svg" xmlns:xlink="http://www.w3.org/1999/xlink" viewBox="0 0 211.03 148.77">
  <defs>
    <style>
      .cls-1 {
        fill: none;
      }

      .cls-2 {
        clip-path: url(#clippath);
      }

      .cls-3 {
        fill: #fff;
      }

      .cls-4 {
        fill: #d7d5d5;
      }

      .cls-5 {
        fill: #557968;
      }
    </style>
    <clipPath id="clippath">
      <path class="cls-1" d="M110.66,107.91c-.89-2.22-1.15-4.51-1.75-6.77-.4-1.51-2.04-3.88-1.87-5.42,.06-.55,.36-1.13,.14-1.64-.2-.47-.76-.69-1.03-1.12-.51-.83,.26-1.91,.08-2.87-.11-.58-.56-1.03-.84-1.56-.59-1.13,.08-1.99-.09-3.05-.12-.74-.51-1.68-.61-2.33-.17-1.19-.3-2.49-.48-3.73-.65-4.65-2-9.29-3.01-13.88-.73-3.33-.86-6.22-1.02-9.57-.02-.38-.04-.79-.28-1.09-.26-.33-.7-.45-.98-.76-.74-.8,.07-2.08,0-3.17-.09-1.5-1.51-2.75-1.83-4.22-.37-1.69-.18-4.15-.5-6.04-.76-4.47-1.52-8.93-2.34-13.39-.44-2.36,2.53-3.94,.79-6.42,2.7-1.16,1.75-3.98,2.99-6.18-.13,.24-11.28-.26-12.03-.24-.9,.03-1.8,.07-2.7,.11-2.51-.12-4.97-.33-7.45-.68-.86-.12-1.61,.45-2.4,.85-.64-.23-1.28-.55-1.93-.41-.42,.09-.78,.36-1.17,.56-1.03-.24-2.06-.57-3.08-.39-.06,.01-.11,.03-.17,.04-.06-.01-.11-.03-.17-.04-1.02-.18-2.06,.14-3.08,.39-.38-.2-.74-.47-1.17-.56-.65-.14-1.29,.17-1.93,.41-.8-.4-1.54-.98-2.4-.85-2.49,.36-4.95,.56-7.45,.68-.9-.04-1.8-.07-2.7-.11-.75-.03-11.89,.48-12.03,.24,1.23,2.2,.29,5.02,2.99,6.18-1.74,2.48,1.23,4.06,.79,6.42-.83,4.45-1.58,8.92-2.34,13.39-.32,1.89-.13,4.36-.5,6.04-.32,1.47-1.74,2.72-1.83,4.22-.06,1.09,.75,2.36,0,3.17-.28,.31-.73,.43-.98,.76-.24,.3-.26,.71-.28,1.09-.15,3.36-.29,6.24-1.02,9.57-1,4.58-2.35,9.23-3.01,13.88-.18,1.25-.31,2.55-.48,3.73-.09,.66-.49,1.59-.61,2.33-.17,1.07,.5,1.92-.09,3.05-.27,.53-.72,.98-.84,1.56-.19,.96,.59,2.04,.08,2.87-.27,.44-.83,.65-1.03,1.12-.22,.51,.08,1.09,.14,1.64,.18,1.54-1.47,3.91-1.87,5.42-.6,2.26-.86,4.55-1.75,6.77-2.5,6.26,7.27,18.96,7.39,19.13,1.2,1.65,8.96,1.16,10.93,1.33,1.55,.14,3.16,.27,4.61-.28,.43-.16,.87-.38,1.32-.31,.32,.05,.6,.24,.9,.36,.89,.34,1.99-.03,2.49-.84,.14,.6,.86,.88,1.48,.85,.62-.04,1.2-.29,1.82-.34,.58-.05,1.16,.09,1.73,.2,1.04,.2,2.09,.33,3.15,.38,.9,.04,1.84,0,2.71-.23,.32,.61,2.85,.66,4.99,.25,2.14,.41,4.67,.36,4.99-.25,.87,.23,1.81,.27,2.71,.23,1.06-.05,2.11-.18,3.15-.38,.57-.11,1.15-.25,1.73-.2,.61,.05,1.2,.31,1.82,.34,.62,.04,1.33-.24,1.48-.85,.5,.81,1.61,1.18,2.49,.84,.3-.12,.58-.31,.9-.36,.45-.07,.89,.15,1.32,.31,1.46,.55,3.06,.41,4.61,.28,1.98-.18,9.57,.62,10.76-1.03,.12-.17,10.07-13.18,7.56-19.44Z"/>
    </clipPath>
  </defs>
  <path class="cls-5" d="M205.47,113.01c-3.64-.96-7.85,.09-10.29,1-.11-3.01-.83-5.73-2.35-6.47-2.85-1.38-6.88-1.31-9.95-1.61-3.94-.37-10.84-2.16-14.47-.3-.45,.23-.95,.52-1.42,.34-.46-.19-.68-.78-1.16-.92-.68-.19-1.23,.65-1.93,.74-.47,.06-.9-.22-1.35-.39-.78-.3-1.63-.24-2.46-.19-3.41,.23-6.82,.47-10.22,.7-.73,.05-1.5,.12-2.07,.58-.22-.25-.44-.5-.66-.75-.08,.89-1.37,.88-2.24,.7-2.63-.55-6.28-.11-8.74,1.09-2.56,1.25-1.54,9.95-1.54,13.68,0,3.38,.98,7.36,2.49,10.36,.2,.4,.45,.83,.88,.95,.6,.17,1.44-.27,1.75,.27-.73,.71-.22,1.93,.32,2.79,.58,.93,1.41,1.99,2.5,1.86-.16,.38-.24,.79-.21,1.2,.39,.03,.78,.05,1.17,.08,.11,2.99,3.01,4.3,5.78,4.97,.21,1.64,.21,3.2,.21,3.2,0,0,3.85,1.03,5.9,1.28,2.05,.26,4.88,.77,8.98,.51s7.44-.26,9.5-.51c2.05-.26,3.59-.26,3.85-1.28,.12-.46,.13-1.72,.1-2.95,1.22-.15,2.41-.32,3.58-.82,1.33-.57,2.48-2.22,3.68-2.65,.56-.2,.95-.79,.92-1.38,.83-.53,1.59-1.17,2.26-1.89,.41-.44,.76-.91,1.1-1.4,1.05,.18,2.5,.18,4.02,.06,3.08-.26,6.16-1.03,9.24-2.82,3.08-1.8,6.67-3.08,7.96-8.73,1.28-5.65-.26-10.01-5.13-11.3Zm-21.05,0c-2.31,.26-10.01,.26-16.17,.26s-13.61,.26-16.94,.26-10.53,0-10.78-1.03c-.26-1.03,.77-1.8,2.57-2.05s10.78-1.03,13.86-1.03,6.42,0,8.47-.26c0,0,6.93,.77,9.76,.77s10.53,.26,12.84,1.54c2.31,1.28-1.28,1.28-3.59,1.54Zm21.31,12.84c-.77,2.31-2.05,3.08-5.39,4.11-3.34,1.03-6.67,1.8-8.73,1.8-.05,0-.1,.01-.16,.01,.43-1.11,.8-2.24,1.17-3.36,.3-.92,.58-2,.03-2.79,.88-.16,1.18-1.56,.43-2.06,.89-.8,1.56-2.87,1.89-5.28,.98-.36,1.95-.71,2.55-.91,1.54-.51,5.13-1.03,7.7-.26,2.57,.77,1.28,6.42,.51,8.73Z"/>
  <g>
    <g>
      <path class="cls-5" d="M110.66,107.91c-.89-2.22-1.15-4.51-1.75-6.77-.4-1.51-2.04-3.88-1.87-5.42,.06-.55,.36-1.13,.14-1.64-.2-.47-.76-.69-1.03-1.12-.51-.83,.26-1.91,.08-2.87-.11-.58-.56-1.03-.84-1.56-.59-1.13,.08-1.99-.09-3.05-.12-.74-.51-1.68-.61-2.33-.17-1.19-.3-2.49-.48-3.73-.65-4.65-2-9.29-3.01-13.88-.73-3.33-.86-6.22-1.02-9.57-.02-.38-.04-.79-.28-1.09-.26-.33-.7-.45-.98-.76-.74-.8,.07-2.08,0-3.17-.09-1.5-1.51-2.75-1.83-4.22-.37-1.69-.18-4.15-.5-6.04-.76-4.47-1.52-8.93-2.34-13.39-.44-2.36,2.53-3.94,.79-6.42,2.7-1.16,1.75-3.98,2.99-6.18-.13,.24-11.28-.26-12.03-.24-.9,.03-1.8,.07-2.7,.11-2.51-.12-4.97-.33-7.45-.68-.86-.12-1.61,.45-2.4,.85-.64-.23-1.28-.55-1.93-.41-.42,.09-.78,.36-1.17,.56-1.03-.24-2.06-.57-3.08-.39-.06,.01-.11,.03-.17,.04-.06-.01-.11-.03-.17-.04-1.02-.18-2.06,.14-3.08,.39-.38-.2-.74-.47-1.17-.56-.65-.14-1.29,.17-1.93,.41-.8-.4-1.54-.98-2.4-.85-2.49,.36-4.95,.56-7.45,.68-.9-.04-1.8-.07-2.7-.11-.75-.03-11.89,.48-12.03,.24,1.23,2.2,.29,5.02,2.99,6.18-1.74,2.48,1.23,4.06,.79,6.42-.83,4.45-1.58,8.92-2.34,13.39-.32,1.89-.13,4.36-.5,6.04-.32,1.47-1.74,2.72-1.83,4.22-.06,1.09,.75,2.36,0,3.17-.28,.31-.73,.43-.98,.76-.24,.3-.26,.71-.28,1.09-.15,3.36-.29,6.24-1.02,9.57-1,4.58-2.35,9.23-3.01,13.88-.18,1.25-.31,2.55-.48,3.73-.09,.66-.49,1.59-.61,2.33-.17,1.07,.5,1.92-.09,3.05-.27,.53-.72,.98-.84,1.56-.19,.96,.59,2.04,.08,2.87-.27,.44-.83,.65-1.03,1.12-.22,.51,.08,1.09,.14,1.64,.18,1.54-1.47,3.91-1.87,5.42-.6,2.26-.86,4.55-1.75,6.77-2.5,6.26,7.27,18.96,7.39,19.13,1.2,1.65,8.96,1.16,10.93,1.33,1.55,.14,3.16,.27,4.61-.28,.43-.16,.87-.38,1.32-.31,.32,.05,.6,.24,.9,.36,.89,.34,1.99-.03,2.49-.84,.14,.6,.86,.88,1.48,.85,.62-.04,1.2-.29,1.82-.34,.58-.05,1.16,.09,1.73,.2,1.04,.2,2.09,.33,3.15,.38,.9,.04,1.84,0,2.71-.23,.32,.61,2.85,.66,4.99,.25,2.14,.41,4.67,.36,4.99-.25,.87,.23,1.81,.27,2.71,.23,1.06-.05,2.11-.18,3.15-.38,.57-.11,1.15-.25,1.73-.2,.61,.05,1.2,.31,1.82,.34,.62,.04,1.33-.24,1.48-.85,.5,.81,1.61,1.18,2.49,.84,.3-.12,.58-.31,.9-.36,.45-.07,.89,.15,1.32,.31,1.46,.55,3.06,.41,4.61,.28,1.98-.18,9.57,.62,10.76-1.03,.12-.17,10.07-13.18,7.56-19.44Z"/>
      <path class="cls-4" d="M87.89,26.64c0-1.55-8.52-1.52-14.3-1.52s-15.21,.3-18.56,.3-4.26,1.52-1.83,2.13c2.43,.61,10.04,.61,12.78,.61s10.34,.3,13.08,.3,8.82,.3,8.82-1.83Z"/>
      <path class="cls-5" d="M38.55,46.29c.12-.49,.18-1.03-.12-1.42-.19-.25-.48-.39-.77-.51-11.75-5.25-26.42-.68-33.71,9.47-4.96,6.9-4.6,21.06-2.48,24.16,2.12,3.11,7.08,10.35,9.2,13.12,3.72,4.82-1.14,9.68-4.15,13.16-.46,.54-.96,1.18-.82,1.87,.09,.44,.42,.79,.76,1.1,1,.88,2.18,1.57,3.45,2,.36,.12,.75,.22,1.12,.13,.41-.11,.72-.44,1-.75,2.36-2.64,4.77-5.36,6.06-8.63,3.17-8.01-3.07-13.38-7.43-19.23-2.83-3.8-5.66-10.7-4.25-15.88,1.42-5.18,3.19-11.39,9.2-13.81,6.01-2.41,11.32-3.11,14.15-2.07,2.34,.85,4.53,1.68,6.8,2.78,.79-1.71,1.43-3.49,1.92-5.31,.02-.06,.03-.11,.04-.17Z"/>
      <path class="cls-5" d="M106.45,104.53c3.04-.3,15.21-.61,19.47-9.43s3.35-26.17,6.39-34.08c3.04-7.91,5.78-16.13,12.17-17.04,0,0-4.26-3.65-6.09-4.26-1.83-.61-5.17,3.96-7.61,7.3-2.43,3.35-4.87,9.74-5.48,14.6-.61,4.87-2.13,22.82-3.96,26.77-1.83,3.96-5.17,7-9.13,7.61-3.96,.61-9.13,0-9.13,0l3.35,8.52Z"/>
      <path class="cls-5" d="M43.77,16.9s17.65-7,19.47-7.91c0,0-1.52-6.09,0-7.91,1.52-1.83,7.3-.91,9.13-.3,1.83,.61-.61,7.61-.61,7.61l18.26,9.13-46.25-.61Z"/>
    </g>
    <g class="cls-2">
      <g>
        <path class="cls-3" d="M31.21,91.54c.06-.2,.12-.4,.17-.6,.21,.56,2.45-.91,2.96-.79,.11,.03,.22,.09,.33,.11,.23,.02,.39-.25,.31-.52,.16,.07,.32,.14,.48,.21,.05,.02,.11,.04,.15,.02,.05-.03,.05-.12,.06-.19,.04-.17,.19-.23,.33-.28,.67-.21,1.22-.53,1.91-.67,.11-.02,.23-.04,.34-.06,.07-.01,.14-.03,.2-.06,.09-.06,.15-.17,.24-.23,.11-.08,.25-.07,.39-.02,.87-.49,1.75-.98,2.62-1.46,.16-.09,.32-.18,.49-.25,.49-.21,2.05-.89,2.25,.05,.07,.32-.15,.68-.42,.84-.37,.22-.42,0-.82-.06-.04,0-.07,0-.11,0-.27,.06-.3,.53-.54,.65-.29,.15-.78-.24-.96,.07-.06,.11-.06,.27-.14,.36-.08,.08-.21,.05-.33,.05-.42-.01-.73,.32-1.11,.45-.11,.04-.23,.04-.35,.02-.01,.05-.03,.1-.05,.13-.49,.7-1.38,.75-2.03,1.2-.82,.57-2.04,.47-2.97,.8-.22,.08-.5,.14-.7-.09,.28,.32-1.97,1.41-2.05,1.44-.15,.06-.29,.12-.45,.14-.14,.01-.28,0-.41,.03-.14,.04-.24,.16-.34,.26-.49,.46-1.1,.74-1.77,.8-.19,.02-.4,.02-.53,.16-.14,.14-.19,.41-.37,.47-.2,.07-.45-.16-.66-.2-.04,0-.07,0-.11,0-.27,.06-.3,.53-.54,.65-.29,.15-.78-.24-.96,.07-.06,.11-.06,.27-.14,.36-.08,.08-.21,.05-.33,.05-.42-.01-.73,.32-1.11,.45-.38,.13-.99-.13-1.03-.64,.9-.51,1.81-1.01,2.71-1.51,.16-.09,.32-.18,.49-.25,.27-.12,.55-.19,.83-.27,.19-.06,.38-.12,.57-.18,.19-.06,.37-.12,.56-.19,.7-.23,1.41-.47,1.96-.98,.28-.26,.64-.59,.99-.31Z"/>
        <path class="cls-3" d="M32.72,94.47c.37,.12,.72-.02,1.05-.16,.58-.24,1.17-.49,1.75-.73,.32-.13,.63-.27,.95-.4,.37,.15,.77-.03,.91-.4-.18,.49,1.24-.39,1.23-.39,.49-.3,1.07-.4,1.59-.64,.22-.1,.44-.2,.66-.3,.2-.09,.41-.19,.61-.28,.42-.2,.85-.39,1.27-.59,.15-.07,.37-.14,.59-.18,.06-.06,.13-.1,.2-.14,.65-.31,1.3-.61,1.95-.92,.3-.14,.65-.38,.6-.79,.67-.15,1.34-.3,2-.46,.36-.08,.77-.21,.87-.62,.37,.12,.72-.02,1.05-.16,.58-.24,1.17-.49,1.75-.73,.32-.13,.63-.27,.95-.4,.37,.15,.77-.03,.91-.4-.14,.36,1.1-.32,1.23-.35,.44-.1,1.21,.08,1.11,.68-.08,.46-1.56,.65-1.99,.86-.17,.08-.34,.17-.51,.25-1.34,.67-2.68,1.35-4.11,1.79-.21,.06-.42,.12-.61,.24-.1,.06-.18,.13-.29,.17-.25,.1-.56,0-.84-.11,0,.49-.43,.72-.8,.88-.77,.32-1.54,.64-2.32,.96-.05,.19-.35,.25-.59,.42-.7,.5-1.12,.43-1.48,.61-.36,.19-1.19,.51-1.66,.7-1.02,.42-2.09,.6-3.06,1.09-.17,.08-.34,.17-.51,.25-1.34,.67-2.68,1.35-4.11,1.79-.21,.06-.42,.12-.61,.24-.1,.06-.18,.13-.29,.17-.25,.1-.56,0-.84-.11,0,.49-.43,.72-.8,.88-.79,.33-1.57,.66-2.36,.98-.25,.11-.53,.21-.81,.1-.28-.11-.53-.54-.39-.8,.06-.11,.16-.16,.26-.2,.65-.31,1.3-.61,1.95-.92,.3-.14,.65-.38,.6-.79,.67-.15,1.34-.3,2-.46,.36-.08,.77-.21,.87-.62Z"/>
        <path class="cls-3" d="M71.43,90.47c-.32-.18-.85,.01-1.32,.23-.72,.33-1.29,.39-1.86,.97-.2,.2-.59,.34-.73,.09-.06,.24-.12,.48-.18,.72-.34-.24-.81-.04-1.17,.16-.57,.32-1.14,.63-1.72,.95-.18,.1-.37,.2-.57,.2-.23,0-.49-.12-.68,.01-.08,.05-.12,.14-.18,.21-.2,.24-.52,.32-.82,.39-.52,.12-1.03,.25-1.55,.37-.18,.04-.38,.1-.5,.25-.11,.15-.12,.38-.28,.49-.18,.13-.43,0-.65,.02-.26,.02-.45,.24-.65,.4-.2,.17-.5,.29-.7,.14-.74,.44-1.53,.78-2.34,1.04-.38,.12-.54,.28-.78,.43-.19,.12-.17,.25-.48,.25-.46,0-1.11,.06-1.51,.31-.32,.2-.37,.61-.87,.52-.12-.02-.24-.08-.37-.06-.27,.02-.41,.31-.58,.51-.18,.2-.59,.27-.64,0-.1,.31-.44,.52-.76,.49-.18-.02-.37-.1-.53-.03-.14,.06-.22,.22-.31,.34-.42,.53-1.28,.44-1.78,.89-.16,.15-.29,.36-.49,.44-.36,.15-.85-.13-1.12,.15-.1,.11-.14,.27-.25,.37-.13,.12-.32,.13-.5,.14-1.03,.08-2.01,.73-2.47,1.66,.26,.35,.81,.26,1.23,.12,.67-.21,1.34-.42,2.01-.63,.28-.09,.56-.18,.79-.36,.17-.13,.3-.3,.49-.38,.32-.13,.7,.03,1.01-.12,.11-.06,.2-.15,.3-.23,.17-.13,.36-.22,.56-.31,.83-.39,1.67-.78,2.5-1.17,.8-.37,1.61-.75,2.45-1.02,.19-.06,.39-.12,.53-.25,.08-.08,.14-.17,.22-.25,.24-.24,.67-.24,.93-.02,.16-.38,.57-.59,.95-.75,1.01-.45,2.03-.9,3.04-1.34l1.93-.85c.71-.31,1.42-.63,2.13-.94,1.26-.56,2.57-1.36,3.94-1.51,.53-.06,1.02-.04,1.45-.41,.27-.22,.38-.72,.76-.81,.43-.1,.6-.04,.91-.18,.31-.14,.43-.1,1.19-.41,.76-.3,1.43-.51,1.28-.83s-1.28-.41-1.28-.41Z"/>
        <path class="cls-3" d="M45.6,105.06c-.16-.98,1.5-1.54,2.22-1.86,.91-.4,.99-.43,1.58-.7,.59-.27,1.05-.4,1.95-.47,.9-.07,.45-.27,.77-.53s.4-.29,.94-.32c.55-.02,.97-.24,1.26-.44,.29-.2,.37-.24,.89-.2,.52,.03,.43-.21,.63-.52,.2-.31,.64-.38,1.37-.53,.2-.04,.37-.03,.52,0,.08-.18,.21-.33,.4-.39,.24-.07,.52,0,.74-.14,.4-.23,.41-1,.87-1.01,.3,0,.57,.37,.84,.25,.11-.05,.18-.17,.25-.27,.2-.28,1.42-.59,1.41-.66-.06-.29,.5-.51,.98-.7,.48-.19,.74-.47,1.66-.87,.91-.4,.99-.43,1.58-.7,.59-.27,1.05-.4,1.95-.47,.9-.07,.45-.27,.77-.53s.4-.29,.94-.32c.55-.03,.97-.24,1.26-.44,.29-.2,.37-.24,.89-.2,.52,.03,.43-.21,.63-.52,.2-.31,.64-.38,1.37-.53,.73-.14,1.1,.24,1.43,.7,.5,.69-1.14,1.36-1.57,1.58-.43,.21-.72,.42-.96,.51-.24,.09-.66-.16-1.12-.03-.46,.13-.12,.42-.52,.57-.4,.16-1.3,.36-2.02,.64-.73,.28-.83,.37-1.29,.5-.46,.13-.68,.03-1.17,.08-.49,.05-.15,.33-.5,.51-.35,.18-.47,0-1.06,.13s-.35,.64-.84,.83c-.83,.32-1.81,.67-2.58,1.09-.37,.2-.52,.69-.92,.83-.32,.11-.68-.06-1.02-.03-.51,.05-.87,.53-1.36,.66-.03,0-.05,0-.08,0-.14,.54-1.28,1.03-1.63,1.2-.43,.21-.72,.42-.96,.51-.24,.09-.66-.16-1.12-.03-.46,.13-.12,.42-.52,.57-.4,.16-1.3,.36-2.02,.64-.73,.28-.83,.37-1.29,.5-.46,.13-.68,.03-1.17,.08-.49,.05-.15,.33-.5,.51-.35,.18-.47,0-1.06,.13-.51,.12-.54,.78-1.01,1.01-.16,.08-.35,.1-.53,.12-.23,.02-.46,.04-.68-.03-.28-.09-.51-.32-.59-.59-.01-.04-.02-.09-.03-.13Z"/>
        <path class="cls-3" d="M63.32,88.31c-.3,0-.56-.38-.84-.27-.11,.05-.18,.16-.25,.26-.21,.28-1.44,.57-1.42,.64,.05,.3-.51,.5-.99,.68-.49,.18-.75,.46-1.67,.84s-1,.41-1.59,.67-1.06,.38-1.96,.43c-.9,.05-.46,.26-.78,.51-.32,.25-.4,.28-.95,.3s-.98,.22-1.27,.42c-.3,.2-.38,.23-.9,.19s-.43,.2-.64,.51c-.21,.31-.65,.37-1.38,.5-.2,.03-.37,.03-.52,0-.08,.18-.22,.33-.41,.38-.24,.07-.52,0-.74,.12-.41,.23-.43,1-.89,.99-.3,0-.56-.38-.84-.27-.11,.05-.18,.16-.25,.26-.21,.28-1.44,.57-1.42,.64,.05,.3-.51,.5-.99,.68-.49,.18-.75,.46-1.67,.84s-1,.41-1.59,.67c-.59,.26-1.06,.38-1.96,.43-.9,.05-.46,.26-.78,.51-.32,.25-.4,.28-.95,.3s-.98,.22-1.27,.42c-.3,.2-.38,.23-.9,.19-.52-.04-.43,.2-.64,.51-.21,.31-.65,.37-1.38,.5s-1.09-.26-1.41-.73c-.48-.7,1.17-1.34,1.6-1.54,.43-.2,.73-.4,.97-.49,.24-.09,.66,.17,1.12,.05,.46-.12,.13-.41,.53-.56,.41-.15,1.3-.33,2.03-.6,.73-.26,.84-.35,1.3-.47,.46-.12,.68-.02,1.17-.06,.49-.04,.16-.33,.51-.51s.46,.02,1.06-.11c.6-.12,.37-.64,.85-.81,.84-.3,1.82-.63,2.6-1.04,.37-.19,.54-.68,.93-.81,.33-.11,.68,.08,1.02,.05,.51-.04,.88-.51,1.37-.63,.03,0,.05,0,.08,0,.16-.54,1.3-1,1.65-1.17,.43-.2,.73-.4,.97-.49,.24-.09,.66,.17,1.12,.05,.46-.12,.13-.41,.53-.56,.41-.15,1.3-.33,2.03-.6s.84-.35,1.3-.47c.46-.12,.68-.02,1.17-.06,.49-.04,.16-.33,.51-.51,.35-.17,.46,.02,1.06-.11,.6-.12,.37-.64,.85-.81,.84-.3,1.82-.63,2.6-1.04,.37-.19,.54-.68,.93-.81,.33-.11,.68,.08,1.02,.05,.51-.04,.88-.51,1.37-.63,.4-.1,.87,.09,1.04,.47,.17,.38-.03,.89-.42,1.01-.24,.07-.52,0-.74,.12-.41,.23-.43,1-.89,.99Z"/>
        <path class="cls-3" d="M36.81,101.32c0-.41,.44-.66,.82-.81,.49-.2,.97-.39,1.46-.59,.24-.1,.48-.19,.74-.2,.16,0,.33,.03,.48-.01,.13-.04,.24-.13,.35-.22,.83-.7,1.82-1.21,2.88-1.46,.16-.04,.32-.07,.45-.16,.12-.08,.23-.21,.38-.23,.16-.02,.32,.11,.48,.09,.31-.03,.4-.5,.71-.59,.18-.05,.37,.07,.57,.06,.27,0,.48-.24,.67-.43,.3-.29,.59-.2,.94-.26,.52-.09,1.08-.39,1.58-.57,.19-.07,.35-.09,.5-.1,.06-.16,.19-.31,.39-.42,.44-.24,2.43-.94,3.51-1.45,1.09-.51,2.73-1.32,3.67-1.68,.95-.36,2.82-1.01,3.54-1.25,.73-.25,2.03-.87,2.56-1.09s2.51-.92,3.77-1.37c1.26-.46,1.68,.6,1.43,.81-.25,.2-.95,.36-1.45,.49s-2.11,1.13-2.59,1.17c-.48,.04-1.64,.81-1.8,1.04-.16,.23-.51-.15-.88-.17-.37-.02-.63,.55-1.02,.9-.38,.35-1.32,.07-2.03-.06-.71-.12-1.13,.96-1.51,1.31s-.64,.27-1.12,.31c-.48,.04-.64,.27-.8,.5-.16,.23-.72,.53-.72,.53-.91,.2-1.81,.48-2.71,.71-.06,.02-.13,.03-.19,.07-.12,.07-.19,.22-.29,.31-.08,.07-.18,.11-.27,.15-.71,.29-1.42,.58-2.14,.87-.17,.07-.36,.14-.54,.13-.13,0-.25-.05-.38-.01-.18,.05-.28,.26-.44,.34-.25,.12-.57-.06-.8,.1-.13,.09-.18,.26-.3,.35-.26,.2-.7-.05-.95,.16-.08,.06-.12,.16-.19,.23-.08,.08-.18,.13-.29,.17-.59,.25-1.19,.49-1.78,.74-.15,.06-.31,.13-.47,.12-.18,0-.37-.1-.54-.03-.23,.1-.28,.44-.51,.53-.12,.04-.24,.01-.37,.01-.16,0-.31,.07-.45,.14-1.1,.52-2.38,1.55-3.67,1.44-.33-.03-.67-.28-.68-.62Z"/>
      </g>
      <g>
        <path class="cls-3" d="M105.72,101.76c-.06-.2-.12-.4-.17-.6-.21,.56-2.45-.91-2.96-.79-.11,.03-.22,.09-.33,.11-.23,.02-.39-.25-.31-.52-.16,.07-.32,.14-.48,.21-.05,.02-.11,.04-.15,.02-.05-.03-.05-.12-.06-.19-.04-.17-.19-.23-.33-.28-.67-.21-1.22-.53-1.91-.67-.11-.02-.23-.04-.34-.06-.07-.01-.14-.03-.2-.06-.09-.06-.15-.17-.24-.23-.11-.08-.25-.07-.39-.02-.87-.49-1.75-.98-2.62-1.46-.16-.09-.32-.18-.49-.25-.49-.21-2.05-.89-2.25,.05-.07,.32,.15,.68,.42,.84,.37,.22,.42,0,.82-.06,.04,0,.07,0,.11,0,.27,.06,.3,.53,.54,.65,.29,.15,.78-.24,.96,.07,.06,.11,.06,.27,.14,.36,.08,.08,.21,.05,.33,.05,.42-.01,.73,.32,1.11,.45,.11,.04,.23,.04,.35,.02,.01,.05,.03,.1,.05,.13,.49,.7,1.38,.75,2.03,1.2,.82,.57,2.04,.47,2.97,.8,.22,.08,.5,.14,.7-.09-.28,.32,1.97,1.41,2.05,1.44,.15,.06,.29,.12,.45,.14,.14,.01,.28,0,.41,.03,.14,.04,.24,.16,.34,.26,.49,.46,1.1,.74,1.77,.8,.19,.02,.4,.02,.53,.16,.14,.14,.19,.41,.37,.47,.2,.07,.45-.16,.66-.2,.04,0,.07,0,.11,0,.27,.06,.3,.53,.54,.65,.29,.15,.78-.24,.96,.07,.06,.11,.06,.27,.14,.36,.08,.08,.21,.05,.33,.05,.42-.01,.73,.32,1.11,.45,.38,.13,.99-.13,1.03-.64-.9-.5-1.81-1.01-2.71-1.51-.16-.09-.32-.18-.49-.25-.27-.12-.55-.19-.83-.27-.19-.06-.38-.12-.57-.18-.19-.06-.37-.12-.56-.19-.7-.23-1.41-.47-1.96-.98-.28-.26-.64-.59-.99-.31Z"/>
        <path class="cls-3" d="M104.21,104.69c-.37,.12-.72-.02-1.05-.16-.58-.24-1.17-.49-1.75-.73-.32-.13-.63-.27-.95-.4-.37,.15-.77-.03-.91-.4,.18,.49-1.24-.39-1.23-.39-.49-.3-1.07-.4-1.59-.64-.22-.1-.44-.2-.66-.3-.2-.09-.41-.19-.61-.28-.42-.2-.85-.39-1.27-.59-.15-.07-.37-.14-.59-.18-.06-.06-.13-.1-.2-.14-.65-.31-1.3-.61-1.95-.92-.3-.14-.65-.38-.6-.79-.67-.15-1.34-.3-2-.46-.36-.08-.77-.21-.87-.62-.37,.12-.72-.02-1.05-.16-.58-.24-1.17-.49-1.75-.73-.32-.13-.63-.27-.95-.4-.37,.15-.77-.03-.91-.4,.14,.36-1.1-.32-1.23-.35-.44-.1-1.21,.08-1.11,.68,.08,.46,1.56,.65,1.99,.86,.17,.08,.34,.17,.51,.25,1.34,.67,2.68,1.35,4.11,1.79,.21,.06,.42,.12,.61,.24,.09,.06,.18,.13,.29,.17,.25,.1,.56,0,.84-.11,0,.49,.43,.72,.8,.88,.77,.32,1.54,.64,2.31,.96,.05,.19,.35,.25,.59,.42,.7,.5,1.12,.43,1.48,.61s1.19,.51,1.66,.7c1.02,.42,2.09,.6,3.06,1.09,.17,.08,.34,.17,.51,.25,1.34,.67,2.68,1.35,4.11,1.79,.21,.06,.42,.12,.61,.24,.09,.06,.18,.13,.29,.17,.25,.1,.56,0,.84-.11,0,.49,.43,.72,.8,.88,.79,.33,1.57,.65,2.36,.98,.25,.11,.53,.21,.81,.1,.28-.11,.53-.54,.39-.8-.06-.11-.16-.16-.26-.2-.65-.31-1.3-.61-1.95-.92-.3-.14-.65-.38-.6-.79-.67-.15-1.34-.3-2-.46-.36-.08-.77-.21-.87-.62Z"/>
        <path class="cls-3" d="M65.5,100.69c.32-.18,.85,.01,1.32,.23,.72,.33,1.29,.39,1.86,.97,.2,.2,.59,.34,.73,.09,.06,.24,.12,.48,.18,.72,.34-.24,.81-.04,1.17,.16,.57,.32,1.14,.63,1.71,.95,.18,.1,.37,.2,.57,.2,.23,0,.49-.12,.68,.01,.08,.05,.12,.14,.18,.21,.2,.24,.52,.32,.82,.39,.52,.12,1.03,.25,1.55,.37,.18,.04,.38,.1,.5,.25,.11,.15,.12,.38,.28,.49,.18,.13,.43,0,.65,.02,.26,.02,.45,.24,.65,.4,.2,.17,.5,.29,.7,.14,.74,.44,1.53,.78,2.34,1.04,.38,.12,.54,.28,.78,.43,.19,.12,.17,.25,.48,.25,.46,0,1.11,.06,1.51,.31,.32,.2,.37,.61,.87,.52,.12-.02,.24-.08,.37-.06,.27,.02,.41,.31,.58,.51,.18,.2,.59,.27,.64,0,.1,.31,.44,.52,.76,.49,.18-.02,.37-.1,.53-.03,.14,.06,.22,.22,.31,.34,.42,.53,1.28,.44,1.78,.89,.16,.15,.29,.36,.49,.44,.36,.15,.85-.13,1.12,.15,.1,.11,.14,.27,.25,.37,.13,.12,.32,.13,.5,.14,1.03,.08,2.01,.73,2.47,1.66-.26,.35-.81,.26-1.23,.12-.67-.21-1.34-.42-2.01-.63-.28-.09-.56-.18-.79-.36-.17-.13-.3-.3-.49-.38-.32-.13-.7,.03-1.01-.12-.11-.06-.2-.15-.3-.23-.17-.13-.36-.22-.56-.31-.83-.39-1.67-.78-2.5-1.17-.8-.37-1.61-.75-2.45-1.02-.19-.06-.39-.12-.53-.25-.08-.08-.14-.17-.22-.25-.24-.24-.67-.24-.93-.02-.16-.38-.57-.59-.95-.75-1.01-.45-2.03-.9-3.04-1.34l-1.93-.85c-.71-.31-1.42-.63-2.13-.94-1.26-.56-2.57-1.36-3.94-1.51-.53-.06-1.02-.04-1.45-.41-.27-.22-.38-.72-.76-.81-.43-.1-.6-.04-.91-.18-.31-.14-.43-.1-1.19-.41-.76-.3-1.43-.51-1.28-.83,.14-.31,1.28-.41,1.28-.41Z"/>
        <path class="cls-3" d="M91.33,115.28c.16-.98-1.5-1.54-2.22-1.86-.91-.4-.99-.43-1.58-.7-.59-.27-1.05-.4-1.95-.47-.9-.07-.45-.27-.77-.53-.32-.26-.4-.29-.94-.32-.55-.02-.97-.24-1.26-.44-.29-.2-.37-.24-.89-.2-.52,.03-.43-.21-.63-.52-.2-.31-.64-.38-1.37-.53-.2-.04-.37-.03-.52,0-.08-.18-.21-.33-.4-.39-.24-.07-.52,0-.74-.14-.4-.23-.41-1-.87-1.01-.3,0-.57,.37-.84,.25-.11-.05-.18-.17-.25-.27-.2-.28-1.42-.59-1.41-.66,.06-.29-.5-.51-.98-.7-.48-.19-.74-.47-1.66-.87-.91-.4-.99-.43-1.58-.7-.59-.27-1.05-.4-1.95-.47-.9-.07-.45-.27-.77-.53s-.4-.29-.94-.32c-.55-.02-.97-.24-1.26-.44-.29-.2-.37-.24-.89-.2-.52,.03-.43-.21-.63-.52-.2-.31-.64-.38-1.37-.53-.73-.14-1.1,.24-1.43,.7-.5,.69,1.14,1.36,1.57,1.58,.43,.21,.72,.42,.96,.51,.24,.09,.66-.16,1.12-.03,.46,.13,.12,.42,.52,.57,.4,.16,1.3,.36,2.02,.64,.73,.28,.83,.37,1.29,.5,.46,.13,.68,.03,1.17,.08,.49,.05,.15,.33,.5,.51,.35,.18,.47,0,1.06,.13,.6,.14,.35,.64,.84,.83,.83,.32,1.81,.67,2.58,1.09,.36,.2,.52,.69,.92,.83,.32,.11,.68-.06,1.02-.03,.51,.05,.87,.53,1.36,.66,.03,0,.05,0,.08,0,.14,.54,1.28,1.03,1.63,1.2,.43,.21,.72,.42,.96,.51s.66-.16,1.12-.03c.46,.13,.12,.42,.52,.57,.4,.16,1.3,.36,2.02,.64,.73,.28,.83,.37,1.29,.5,.46,.13,.68,.03,1.17,.08,.49,.05,.15,.33,.5,.51,.35,.18,.46,0,1.06,.13,.51,.12,.54,.78,1.01,1.01,.16,.08,.35,.1,.53,.12,.23,.02,.46,.04,.68-.03,.28-.09,.51-.32,.59-.59,.01-.04,.02-.09,.03-.13Z"/>
        <path class="cls-3" d="M73.61,98.53c.3,0,.56-.38,.84-.27,.11,.05,.18,.16,.25,.26,.21,.28,1.44,.57,1.42,.64-.05,.3,.51,.5,.99,.68,.49,.18,.75,.46,1.67,.84s1,.41,1.59,.67c.59,.26,1.06,.38,1.96,.43s.46,.26,.78,.51,.4,.28,.95,.3,.98,.22,1.27,.42c.3,.2,.38,.23,.9,.19,.52-.04,.43,.2,.64,.51,.21,.31,.65,.37,1.38,.5,.2,.03,.37,.03,.52,0,.08,.18,.22,.33,.41,.38,.24,.07,.52,0,.74,.12,.41,.23,.43,1,.89,.99,.3,0,.56-.38,.84-.27,.11,.05,.18,.16,.25,.26,.21,.28,1.44,.57,1.42,.64-.05,.3,.51,.5,.99,.68,.49,.18,.75,.46,1.67,.84,.92,.38,1,.41,1.59,.67,.59,.26,1.06,.38,1.96,.43,.9,.05,.46,.26,.78,.51,.32,.25,.4,.28,.95,.3s.98,.22,1.27,.42c.3,.2,.38,.23,.9,.19,.52-.04,.43,.2,.64,.51,.21,.31,.65,.37,1.38,.5,.73,.13,1.09-.26,1.41-.73,.48-.7-1.17-1.34-1.6-1.54-.43-.2-.73-.4-.97-.49-.24-.09-.66,.17-1.12,.05-.46-.12-.13-.41-.53-.56-.41-.15-1.3-.33-2.03-.6-.73-.26-.84-.35-1.3-.47-.46-.12-.68-.02-1.17-.06-.49-.04-.16-.33-.51-.5-.35-.17-.46,.02-1.06-.11-.6-.12-.37-.64-.85-.81-.84-.3-1.82-.63-2.6-1.04-.37-.19-.54-.68-.93-.81-.33-.11-.68,.08-1.02,.05-.51-.04-.88-.51-1.37-.63-.03,0-.05,0-.08,0-.16-.54-1.3-1-1.65-1.17-.43-.2-.73-.4-.97-.49-.24-.09-.66,.17-1.12,.05s-.13-.41-.53-.56c-.41-.15-1.3-.33-2.03-.6-.73-.27-.84-.35-1.3-.47-.46-.12-.68-.02-1.17-.06-.49-.04-.16-.33-.51-.51s-.46,.02-1.06-.11c-.6-.12-.37-.64-.85-.81-.84-.3-1.82-.63-2.6-1.04-.37-.19-.54-.68-.93-.81-.33-.11-.68,.08-1.02,.05-.51-.04-.88-.51-1.37-.63-.4-.1-.87,.09-1.04,.47-.17,.38,.03,.89,.42,1.01,.24,.07,.52,0,.74,.12,.41,.23,.43,.99,.89,.99Z"/>
        <path class="cls-3" d="M100.12,111.54c0-.41-.44-.66-.82-.81-.49-.2-.97-.39-1.46-.59-.24-.1-.48-.19-.74-.2-.16,0-.33,.03-.48-.01-.13-.04-.24-.13-.35-.22-.83-.7-1.82-1.21-2.88-1.46-.16-.04-.32-.07-.45-.16-.12-.08-.23-.21-.38-.23-.16-.02-.32,.11-.48,.09-.31-.03-.4-.5-.71-.59-.18-.05-.37,.07-.57,.06-.27,0-.48-.24-.67-.43-.3-.29-.59-.2-.94-.26-.52-.09-1.08-.39-1.58-.57-.19-.07-.35-.09-.5-.1-.06-.16-.19-.31-.39-.42-.44-.24-2.43-.94-3.51-1.45-1.09-.51-2.73-1.32-3.67-1.68-.95-.36-2.82-1.01-3.54-1.25-.73-.25-2.03-.87-2.56-1.09-.53-.21-2.51-.92-3.77-1.37-1.26-.46-1.68,.6-1.43,.81s.95,.36,1.45,.49,2.11,1.13,2.59,1.17c.48,.04,1.64,.81,1.8,1.04,.16,.23,.51-.15,.88-.17,.37-.02,.63,.55,1.02,.9,.38,.35,1.32,.07,2.03-.06,.71-.12,1.13,.96,1.51,1.31,.38,.35,.64,.27,1.12,.31,.48,.04,.64,.27,.8,.5,.16,.23,.72,.53,.72,.53,.91,.2,1.81,.48,2.71,.71,.06,.02,.13,.03,.19,.07,.12,.07,.19,.22,.29,.31,.08,.07,.18,.11,.27,.15,.71,.29,1.42,.58,2.14,.87,.17,.07,.36,.14,.54,.13,.13,0,.25-.05,.37-.01,.18,.05,.28,.26,.44,.34,.25,.12,.57-.06,.8,.1,.13,.09,.18,.26,.3,.35,.26,.2,.7-.05,.95,.16,.08,.06,.12,.16,.19,.23,.08,.08,.18,.13,.29,.17,.59,.25,1.19,.49,1.78,.74,.15,.06,.31,.13,.47,.12,.18,0,.37-.1,.54-.03,.23,.1,.28,.44,.51,.53,.12,.04,.24,.01,.37,.01,.16,0,.31,.07,.45,.14,1.1,.52,2.38,1.55,3.67,1.44,.33-.03,.67-.28,.68-.62Z"/>
      </g>
    </g>
  </g>
</svg>