<?xml version="1.0" encoding="UTF-8"?>
<svg id="_レイヤー_1" data-name="レイヤー 1" xmlns="http://www.w3.org/2000/svg" viewBox="0 0 252.27 15.59">
  <defs>
    <style>
      .cls-1 {
        fill: #eaeae8;
      }
    </style>
  </defs>
  <g>
    <g>
      <path class="cls-1" d="M.4,8.92c-.21,0-.39-.17-.4-.38-.01-.22,.16-.41,.38-.42,.23-.01,.46-.03,.7-.05,.63-.05,1.28-.05,1.9-.1,.25-.02,.5-.04,.76-.03,.97,.04,1.97,.02,2.92,.01,.49,0,.99-.01,1.48-.01h4c.63,0,1.25-.03,1.88-.06,.64-.03,1.28-.06,1.92-.06h3.13c.22,0,.4,.18,.4,.4s-.18,.4-.4,.4h-3.13c-.63,0-1.26,.03-1.88,.06-.64,.03-1.28,.06-1.92,.06h-4c-.49,0-.98,0-1.47,.01-.97,.01-1.97,.02-2.96-.01-.22,0-.44,.01-.66,.03-.63,.05-1.27,.05-1.91,.1-.24,.02-.47,.04-.71,.05,0,0-.01,0-.02,0Z"/>
      <path class="cls-1" d="M20.97,9.63s-.08,0-.12,0c-.38-.02-.67-.11-.99-.31-.29-.17-.61-.36-.89-.92-.1-.19-.03-.42,.16-.53l.16-.09c.36-.21,.71-.41,1.21-.42,.25,0,.47,0,.68,0,.56,.01,1.18,.41,1.27,1.04,.04,.3-.04,.57-.24,.79-.31,.34-.83,.45-1.23,.45Zm-1.09-1.28c.11,.12,.23,.19,.38,.28,.22,.13,.38,.18,.63,.2,.29,.02,.61-.07,.72-.19,.03-.03,.04-.06,.04-.13-.03-.19-.29-.35-.5-.35-.21,0-.41,0-.62,0-.25,0-.43,.08-.65,.2Z"/>
    </g>
    <g>
      <path class="cls-1" d="M10.14,8.74c-.17,0-.33-.11-.38-.28-.07-.21,.05-.44,.26-.5,.53-.17,.99-.51,1.47-.87,.26-.2,.53-.4,.82-.58,.25-.16,.52-.28,.78-.4,.23-.11,.46-.21,.68-.35,.28-.17,.54-.32,.8-.46,.35-.19,.69-.38,1.03-.62,.18-.13,.43-.09,.56,.09,.13,.18,.09,.43-.09,.56-.38,.28-.76,.48-1.12,.68-.25,.13-.5,.27-.76,.43-.25,.16-.51,.28-.78,.4-.23,.11-.47,.21-.69,.35-.27,.17-.52,.36-.77,.54-.52,.39-1.06,.79-1.71,1-.04,.01-.08,.02-.12,.02Z"/>
      <path class="cls-1" d="M16.21,5.44c-.14,0-.29-.01-.45-.04-.14-.03-.25-.12-.3-.25s-.03-.27,.06-.38c.04-.06,.1-.18,.15-.29,.12-.27,.26-.58,.54-.74,.01-.01,.07-.06,.13-.11,.36-.3,.55-.44,.73-.49,.39-.09,.74-.04,1,.13,.16,.1,.35,.31,.41,.68,.1,.62-.28,1.13-.97,1.3-.35,.09-.62,.15-.81,.15-.14,.02-.31,.03-.5,.03Zm1.24-1.54c-.05,0-.12,0-.19,.02-.05,.03-.29,.23-.4,.32-.11,.1-.21,.17-.25,.19-.03,.02-.08,.11-.12,.19,.02,0,.04,0,.06,0,.06,0,.11-.01,.14-.01,.12,0,.41-.07,.56-.11,.49-.12,.46-.33,.45-.41-.02-.11-.06-.14-.07-.14-.03-.02-.09-.04-.18-.04Z"/>
    </g>
    <g>
      <path class="cls-1" d="M12.51,12.95c-.1,0-.21-.04-.29-.12-.12-.13-.44-.27-.7-.38-.19-.08-.36-.16-.49-.23-.43-.25-.86-.5-1.26-.81-.28-.22-.57-.44-.87-.67-.92-.72-1.88-1.47-2.84-2.02-.19-.11-.26-.35-.15-.55,.11-.19,.35-.26,.55-.15,1.02,.58,2,1.35,2.94,2.09,.29,.23,.58,.45,.86,.67,.37,.28,.77,.51,1.18,.75,.11,.06,.26,.13,.41,.2,.35,.15,.72,.31,.95,.55,.16,.16,.15,.41,0,.57-.08,.08-.18,.11-.28,.11Z"/>
      <path class="cls-1" d="M14.14,14.13c-.07,0-.12,0-.16,0-.8-.08-1.31-.73-1.72-1.25l-.15-.18c-.08-.1-.11-.24-.07-.37,.04-.13,.14-.23,.27-.26,.58-.17,1.18-.03,1.69,.13,.37,.12,.95,.48,1.03,1.02,.06,.4-.23,.65-.33,.74-.18,.16-.39,.19-.55,.19Zm-.9-1.32c.24,.27,.51,.48,.82,.51,.09,.01,.12,0,.12,0,.04-.04,.06-.06,.06-.06-.02-.04-.25-.24-.48-.32-.17-.05-.34-.1-.52-.13Z"/>
    </g>
  </g>
  <path class="cls-1" d="M25.5,9.23s-.05,0-.08,0c-.32-.03-.5-.17-.59-.28-.08-.1-.18-.29-.14-.56,.07-.58,.47-.69,.64-.71,.32-.04,.6,.09,.76,.32,.03,.04,.06,.08,.09,.13,.13,.24,.12,.54-.04,.78-.14,.21-.38,.34-.64,.34Z"/>
  <g>
    <g>
      <path class="cls-1" d="M48.69,8.96h-2.52c-.57,0-1.16-.02-1.8-.08-.41-.03-.83-.02-1.25-.01-.48,.01-.94,.01-1.42,.02-.74,.01-1.5,.03-2.25-.06-.56-.06-1.13-.04-1.74-.02-.32,.01-.63,.03-.95,.03h-1.18c-.06,0-.19,0-.32-.02-.14-.01-.27-.02-.34-.02l-.36,.03c-.3,.02-.66,.05-.78,.05-.23,.02-.41-.16-.42-.38,0-.22,.16-.41,.38-.42,.12,0,.46-.03,.76-.05l.37-.03c.08,0,.27,0,.46,.02,.11,0,.21,.02,.26,.02h1.18c.3,0,.61-.01,.91-.03,.61-.03,1.24-.05,1.86,.02,.7,.08,1.43,.07,2.15,.05,.47,0,.94,0,1.41-.02,.44-.01,.89-.02,1.33,.01,.62,.05,1.19,.07,1.74,.07h2.52c.27,0,.53-.02,.8-.04,.15-.01,.32-.03,.48-.06,.33-.04,.66-.09,.98-.07,.22,0,.39,.2,.38,.42,0,.22-.19,.39-.42,.38-.26,0-.55,.03-.84,.07-.18,.02-.36,.05-.53,.06-.29,.02-.57,.04-.86,.04Z"/>
      <path class="cls-1" d="M31.58,9.57s-.07,0-.11,0c-.37,0-.74-.17-.98-.44-.21-.23-.31-.51-.29-.81,.03-.36,.2-.67,.5-.87,.32-.23,.75-.3,1.14-.19,.23,.07,.46,.15,.68,.24l.29,.11c.11,.04,.21,.08,.32,.12,.15,.07,.31,.14,.81,.39,.13,.07,.22,.2,.23,.35,0,.15-.08,.29-.21,.36-.26,.14-.53,.28-.8,.42,0,0-.02,0-.04,.02-.02,.02-.04,.03-.06,.04-.2,.11-.4,.14-.56,.16l-.15,.02c-.24,.05-.48,.07-.76,.07Zm-.11-1.56c-.11,0-.22,.03-.31,.09-.1,.07-.15,.16-.16,.28,0,.08,.02,.15,.08,.21,.09,.1,.25,.17,.41,.18,.27,0,.48-.01,.69-.06l.18-.03c.08-.01,.16-.02,.22-.04,.1-.08,.23-.12,.29-.13,0,0,0,0,0,0-.02,0-.04-.02-.05-.02-.12-.06-.21-.09-.29-.12l-.32-.12c-.2-.08-.39-.16-.59-.21-.05-.01-.1-.02-.16-.02Z"/>
    </g>
    <g>
      <path class="cls-1" d="M42.49,8.88s-.07,0-.1-.01c-.31-.08-1.1-.5-1.29-.62-.24-.15-.51-.25-.81-.36-.19-.07-.38-.15-.57-.23-.39-.18-.77-.39-1.15-.6l-.34-.19c-.19-.1-.37-.19-.56-.28-.53-.24-.99-.53-1.48-.83l-.08-.05c-.19-.12-.25-.36-.13-.55,.12-.19,.36-.25,.55-.13l.09,.05c.46,.29,.9,.56,1.39,.78,.21,.09,.41,.19,.61,.3l.34,.19c.36,.2,.73,.4,1.1,.57,.17,.08,.34,.14,.51,.21,.32,.12,.64,.24,.95,.44,.21,.13,.9,.48,1.07,.53,.21,.06,.34,.28,.28,.49-.05,.18-.21,.3-.39,.3Z"/>
      <path class="cls-1" d="M36.18,5.77s-.05,0-.08,0c-.13-.03-.26-.06-.41-.09-.28-.07-.57-.14-.79-.15-.45-.02-1-.37-1.25-.68-.2-.25-.3-.47-.27-.85,.02-.32,.21-.6,.49-.75,.6-.3,1.3,0,1.73,.43,.48,.48,.7,.97,.95,1.55,.06,.14,.03,.29-.06,.41-.08,.09-.19,.15-.31,.15Zm-1.78-1.85c-.06,0-.12,.01-.17,.04-.01,0-.05,.02-.05,.09-.01,.13,0,.16,.1,.3,.14,.17,.47,.37,.65,.38,.17,0,.36,.03,.54,.07-.12-.21-.25-.39-.43-.56-.17-.17-.42-.31-.64-.31Z"/>
    </g>
    <g>
      <path class="cls-1" d="M38.13,12.46c-.2,0-.37-.15-.4-.35-.03-.22,.13-.42,.35-.44,.11-.03,.71-.31,.83-.38,.21-.12,.4-.22,.63-.31,.09-.03,.17-.09,.25-.14,.08-.05,.17-.1,.26-.15,.14-.07,.28-.13,.43-.19l.26-.11c.53-.24,1.15-.53,1.71-.88,.15-.09,.3-.16,.45-.23,.1-.04,.19-.09,.29-.14,.56-.31,1.21-.57,1.83-.83l.33-.14c.21-.09,.44,.01,.52,.22,.08,.2-.01,.44-.22,.52l-.34,.14c-.61,.25-1.23,.5-1.75,.79-.11,.06-.23,.11-.34,.17-.12,.06-.24,.11-.36,.18-.59,.37-1.24,.67-1.8,.93l-.28,.12c-.13,.05-.26,.11-.38,.17-.06,.03-.13,.07-.19,.11-.12,.08-.25,.15-.39,.21-.19,.07-.35,.16-.52,.26-.05,.03-.88,.45-1.14,.48-.02,0-.03,0-.05,0Z"/>
      <path class="cls-1" d="M36.38,14.86c-.25,0-.48-.1-.67-.29-.46-.47-.25-1.21,.06-1.7,.12-.2,.32-.39,.59-.58,.13-.09,.61-.35,.75-.4,.53-.16,.67-.18,1.16-.22,.18-.01,.34,.09,.41,.26,.06,.17,0,.36-.13,.46-.16,.12-.25,.37-.36,.67-.12,.33-.26,.7-.53,1.02-.44,.51-.85,.77-1.24,.78-.01,0-.02,0-.03,0Zm1.12-2.25s-.1,.03-.16,.05c-.07,.03-.43,.22-.52,.28-.18,.13-.31,.25-.38,.35-.18,.28-.25,.62-.16,.72,.05,.05,.08,.06,.1,.05,.04,0,.26-.03,.66-.5,.18-.21,.28-.49,.39-.78,.02-.06,.04-.11,.06-.17Z"/>
    </g>
  </g>
  <g>
    <g>
      <path class="cls-1" d="M55.7,8.92c-.21,0-.39-.17-.4-.38-.01-.22,.16-.41,.38-.42,.23-.01,.46-.03,.7-.05,.63-.05,1.28-.05,1.9-.1,.25-.02,.5-.04,.76-.03,.97,.04,1.97,.02,2.92,.01,.49,0,.99-.01,1.48-.01h4c.63,0,1.25-.03,1.88-.06,.64-.03,1.28-.06,1.92-.06h3.13c.22,0,.4,.18,.4,.4s-.18,.4-.4,.4h-3.13c-.63,0-1.26,.03-1.88,.06-.64,.03-1.28,.06-1.92,.06h-4c-.49,0-.98,0-1.47,.01-.97,.01-1.97,.02-2.96-.01-.22,0-.44,.01-.66,.03-.63,.05-1.27,.05-1.91,.1-.24,.02-.47,.04-.71,.05,0,0-.01,0-.02,0Z"/>
      <path class="cls-1" d="M76.27,9.63s-.08,0-.12,0c-.38-.02-.67-.11-.99-.31-.29-.17-.61-.36-.89-.92-.1-.19-.03-.42,.16-.53l.16-.09c.36-.21,.71-.42,1.21-.42,.25,0,.47,0,.68,0,.56,.01,1.18,.41,1.27,1.04,.04,.3-.04,.57-.24,.79-.31,.34-.83,.45-1.23,.45Zm-1.09-1.28c.11,.12,.23,.19,.38,.28,.22,.13,.38,.18,.63,.2,.29,.02,.61-.07,.72-.19,.03-.03,.04-.06,.04-.13-.03-.2-.29-.35-.5-.35-.21,0-.41,0-.62,0-.25,0-.44,.08-.65,.2Z"/>
    </g>
    <g>
      <path class="cls-1" d="M65.44,8.74c-.17,0-.33-.11-.38-.28-.07-.21,.05-.44,.26-.5,.53-.17,.99-.51,1.47-.87,.26-.2,.53-.4,.82-.58,.25-.16,.52-.28,.78-.4,.23-.11,.46-.21,.68-.35,.28-.17,.54-.32,.8-.46,.35-.19,.69-.38,1.03-.62,.18-.13,.43-.09,.56,.09s.09,.43-.09,.56c-.38,.28-.76,.48-1.12,.68-.25,.13-.5,.27-.76,.44-.25,.16-.51,.28-.78,.4-.23,.11-.47,.21-.69,.35-.27,.17-.52,.36-.77,.54-.52,.39-1.06,.79-1.71,1-.04,.01-.08,.02-.12,.02Z"/>
      <path class="cls-1" d="M71.51,5.44c-.14,0-.29-.01-.45-.04-.14-.03-.25-.12-.3-.25-.05-.13-.03-.27,.06-.38,.04-.06,.1-.18,.15-.29,.12-.27,.26-.58,.54-.74,.01-.01,.07-.06,.13-.11,.36-.3,.55-.44,.73-.49,.39-.09,.74-.04,1,.13,.16,.1,.35,.31,.41,.68,.1,.62-.28,1.13-.97,1.3-.35,.09-.61,.15-.81,.15-.14,.02-.31,.03-.5,.03Zm1.24-1.54c-.05,0-.12,0-.19,.02-.05,.03-.29,.23-.4,.32-.11,.1-.21,.17-.25,.19-.03,.02-.08,.11-.12,.19,.02,0,.04,0,.06,0,.06,0,.11-.01,.14-.01,.12,0,.41-.07,.56-.11,.49-.12,.46-.33,.45-.41-.02-.11-.06-.14-.07-.14-.03-.02-.09-.04-.18-.04Z"/>
    </g>
    <g>
      <path class="cls-1" d="M67.81,12.95c-.1,0-.21-.04-.29-.12-.12-.13-.44-.27-.7-.38-.19-.08-.36-.16-.49-.23-.43-.25-.86-.5-1.26-.81-.28-.22-.57-.44-.87-.67-.92-.72-1.88-1.47-2.84-2.02-.19-.11-.26-.35-.15-.55,.11-.19,.35-.26,.55-.15,1.02,.58,2,1.35,2.94,2.09,.29,.23,.58,.45,.86,.67,.37,.28,.77,.51,1.18,.75,.11,.06,.26,.13,.41,.2,.35,.15,.72,.31,.95,.55,.16,.16,.15,.41,0,.57-.08,.08-.18,.11-.28,.11Z"/>
      <path class="cls-1" d="M69.44,14.13c-.07,0-.12,0-.16,0-.8-.08-1.31-.73-1.72-1.25l-.15-.18c-.08-.1-.11-.24-.07-.37,.04-.13,.14-.23,.27-.26,.58-.17,1.18-.03,1.69,.13,.37,.12,.95,.48,1.03,1.02,.06,.4-.22,.65-.33,.74-.18,.16-.39,.19-.55,.19Zm-.9-1.32c.24,.27,.51,.48,.82,.51,.09,0,.12,0,.12,0,.04-.04,.06-.06,.06-.06-.02-.04-.25-.24-.48-.32-.17-.05-.34-.1-.52-.13Z"/>
    </g>
  </g>
  <path class="cls-1" d="M80.8,9.23s-.05,0-.08,0c-.32-.03-.5-.17-.59-.28-.08-.1-.18-.29-.14-.56,.07-.56,.43-.69,.64-.71,.31-.04,.6,.09,.76,.32,.04,.04,.07,.08,.09,.13,.13,.24,.12,.54-.04,.78-.14,.21-.38,.34-.64,.34Z"/>
  <g>
    <g>
      <path class="cls-1" d="M103.99,8.96h-2.52c-.57,0-1.16-.02-1.8-.08-.41-.03-.83-.02-1.25-.01-.48,.01-.94,.01-1.42,.02-.74,.01-1.51,.02-2.25-.06-.56-.06-1.13-.04-1.74-.02-.32,.01-.63,.03-.95,.03h-1.18c-.06,0-.19,0-.32-.02-.14-.01-.27-.02-.34-.02l-.35,.03c-.3,.02-.67,.05-.79,.05-.22,.02-.41-.16-.42-.38,0-.22,.16-.41,.38-.42,.12,0,.47-.03,.76-.05l.36-.03c.08,0,.27,0,.46,.02,.11,0,.21,.02,.26,.02h1.18c.3,0,.61-.01,.91-.03,.61-.03,1.23-.05,1.86,.02,.7,.08,1.43,.07,2.15,.05,.47,0,.94,0,1.41-.02,.44-.01,.89-.02,1.33,.01,.62,.05,1.19,.07,1.74,.07h2.52c.27,0,.53-.02,.8-.04,.15-.01,.32-.03,.48-.06,.32-.04,.66-.09,.98-.07,.22,0,.39,.2,.38,.42,0,.22-.2,.41-.42,.38-.25,0-.55,.03-.84,.07-.18,.02-.36,.05-.53,.06-.29,.02-.57,.04-.86,.04Z"/>
      <path class="cls-1" d="M86.88,9.57s-.07,0-.11,0c-.37,0-.74-.17-.98-.44-.21-.23-.31-.51-.28-.81,.03-.36,.2-.67,.5-.87,.32-.23,.75-.3,1.14-.19,.24,.07,.46,.16,.69,.25l.28,.11c.11,.04,.21,.08,.32,.12,.14,.06,.29,.13,.81,.39,.13,.07,.22,.2,.23,.35,0,.15-.08,.29-.21,.36-.26,.14-.53,.28-.8,.42,0,0-.02,0-.04,.01-.02,.02-.04,.03-.06,.04-.2,.11-.4,.14-.57,.16l-.15,.02c-.24,.05-.48,.07-.76,.07Zm-.11-1.56c-.11,0-.22,.03-.31,.09-.1,.07-.15,.16-.16,.28,0,.08,.02,.15,.08,.21,.09,.1,.25,.17,.41,.18,.27,0,.48-.01,.69-.06l.19-.03c.08-.01,.16-.02,.22-.04,.1-.08,.23-.12,.29-.13,0,0,0,0,0,0-.03-.01-.05-.02-.07-.03-.11-.05-.2-.08-.28-.11l-.31-.12c-.2-.08-.39-.16-.6-.22-.05-.01-.1-.02-.16-.02Z"/>
    </g>
    <g>
      <path class="cls-1" d="M97.79,8.88s-.07,0-.1-.01c-.31-.08-1.1-.5-1.29-.62-.24-.15-.51-.25-.81-.36-.19-.07-.38-.15-.57-.23-.39-.18-.77-.39-1.15-.6l-.34-.18c-.19-.1-.37-.19-.56-.28-.53-.24-.98-.52-1.47-.82l-.1-.06c-.19-.12-.25-.36-.13-.55,.12-.19,.36-.24,.55-.13l.1,.06c.46,.29,.89,.56,1.37,.77,.21,.09,.41,.19,.61,.3l.34,.19c.36,.2,.73,.4,1.1,.58,.17,.08,.34,.14,.51,.21,.32,.12,.64,.24,.95,.44,.21,.13,.9,.48,1.07,.53,.21,.06,.34,.28,.28,.49-.05,.18-.21,.3-.39,.3Z"/>
      <path class="cls-1" d="M91.48,5.77s-.05,0-.08,0c-.13-.03-.26-.06-.41-.09-.28-.07-.56-.14-.79-.15-.45-.02-1-.37-1.25-.68-.2-.25-.3-.47-.27-.85,.03-.33,.21-.6,.49-.74,.6-.3,1.3,0,1.73,.43,.48,.48,.7,.96,.95,1.55,.06,.14,.03,.29-.06,.41-.08,.09-.19,.15-.31,.15Zm-1.78-1.85c-.06,0-.12,.01-.17,.04-.01,0-.05,.02-.05,.09-.01,.13,0,.16,.1,.3,.14,.17,.47,.37,.65,.38,.17,0,.36,.03,.54,.07-.12-.21-.25-.39-.43-.56-.17-.17-.42-.31-.64-.31Z"/>
    </g>
    <g>
      <path class="cls-1" d="M93.43,12.46c-.2,0-.37-.15-.4-.35-.03-.22,.13-.42,.35-.44,.11-.03,.71-.31,.83-.38,.21-.12,.4-.22,.63-.31,.09-.03,.17-.09,.25-.14,.08-.05,.17-.1,.26-.15,.14-.07,.28-.13,.43-.19l.26-.11c.53-.24,1.15-.53,1.71-.88,.15-.09,.3-.16,.45-.23,.1-.04,.19-.09,.29-.14,.56-.31,1.21-.57,1.83-.83l.33-.14c.21-.09,.44,.01,.52,.22,.09,.2-.01,.44-.22,.52l-.34,.14c-.61,.25-1.23,.5-1.75,.79-.11,.06-.23,.11-.34,.17-.12,.06-.24,.11-.36,.18-.59,.37-1.24,.67-1.8,.93l-.28,.12c-.13,.05-.26,.11-.38,.17-.06,.03-.13,.07-.19,.11-.12,.08-.25,.15-.39,.21-.19,.07-.35,.16-.52,.26,0,0-.87,.45-1.14,.48-.02,0-.03,0-.05,0Z"/>
      <path class="cls-1" d="M91.68,14.86c-.25,0-.48-.1-.67-.29-.46-.47-.25-1.21,.06-1.7,.12-.19,.32-.38,.59-.58,.13-.09,.61-.35,.75-.4,.53-.16,.67-.18,1.16-.22,.18-.01,.34,.09,.41,.25,.06,.17,0,.36-.13,.46-.16,.12-.25,.37-.36,.67-.12,.33-.26,.7-.53,1.02-.44,.51-.85,.77-1.24,.78-.01,0-.02,0-.03,0Zm1.12-2.25s-.1,.03-.16,.05c-.07,.03-.43,.22-.52,.28-.19,.13-.31,.25-.38,.35-.18,.28-.25,.62-.16,.72,.05,.05,.08,.06,.1,.05,.04,0,.26-.03,.66-.5,.18-.21,.28-.49,.39-.78,.02-.06,.04-.11,.06-.17Z"/>
    </g>
  </g>
  <g>
    <path class="cls-1" d="M125.88,7.72c-.1,0-.21-.04-.29-.12-.43-.43-.64-.88-.87-1.35l-.1-.21c-.08-.17-.17-.36-.23-.54-.16-.44-.23-.89-.23-1.51,0-.14,0-.29,0-.43-.02-.48-.04-.98,.1-1.46,.15-.51,.45-1.07,.78-1.45,.29-.33,.63-.64,1.14-.65h.1c.38-.01,.81-.03,1.21,.28,1.37,1.04,1.26,3.11,1.2,3.72-.06,.58-.16,1.13-.26,1.7-.05,.25-.37,1.31-.44,1.48-.08,.2-.32,.3-.52,.22-.2-.08-.3-.32-.21-.52,.05-.13,.36-1.13,.39-1.32,.1-.55,.19-1.08,.25-1.64,.11-1.04-.06-2.37-.89-3-.17-.13-.37-.13-.7-.12h-.11c-.19,0-.35,.15-.56,.38-.26,.29-.5,.74-.61,1.14-.1,.36-.09,.79-.07,1.21,0,.16,.01,.31,.01,.46,0,.51,.05,.88,.18,1.23,.06,.15,.13,.32,.2,.47l.1,.22c.21,.44,.38,.79,.71,1.13,.16,.16,.15,.41,0,.57-.08,.08-.18,.11-.28,.11Z"/>
    <path class="cls-1" d="M128.74,8.75s-.04,0-.06,0c-.22-.02-.39-.21-.37-.43,.02-.22,.19-.39,.43-.37,.13,0,.47-.16,.66-.27,.17-.09,.33-.17,.46-.21,.51-.18,1.01-.39,1.51-.61,.88-.38,1.94-1.15,2.05-2.07,.05-.41-.19-.54-.27-.58-.2-.1-.47-.25-.61-.27-.33-.04-.71,.05-1.1,.16-1.53,.42-2.76,1.82-3.41,2.98-.11,.19-.35,.26-.54,.16-.19-.11-.26-.35-.16-.54,.94-1.69,2.4-2.95,3.9-3.37,.47-.13,.93-.24,1.41-.18,.29,.04,.61,.21,.84,.33,.55,.29,.8,.8,.73,1.41-.15,1.25-1.4,2.22-2.53,2.71-.51,.22-1.03,.44-1.56,.63-.1,.04-.22,.1-.35,.17-.32,.17-.69,.36-1.03,.36Z"/>
    <path class="cls-1" d="M132.98,11.75c-.11,0-.21,0-.3,0-.4,0-.69-.06-.96-.12-.12-.02-.24-.05-.36-.07-.36-.06-.79-.15-1.22-.38-.41-.22-.88-.56-1.34-.96-.12-.1-.24-.19-.36-.28-.19-.14-.38-.27-.54-.44-.16-.16-.16-.41,0-.57,.16-.16,.41-.16,.57,0,.14,.13,.29,.24,.44,.35,.14,.1,.29,.21,.42,.32,.41,.36,.83,.66,1.19,.85,.26,.14,.54,.23,.97,.29,.13,.02,.26,.05,.39,.07,.25,.05,.49,.1,.73,.1,.58,0,1.27,.02,1.63-.23,.21-.15,.32-.32,.33-.53,.01-.36-.28-.84-.7-1.16-.38-.29-.91-.51-1.61-.65-1.04-.21-2.12,.04-3.17,.29l-.29,.07c-.22,.05-.43-.08-.48-.3-.05-.21,.08-.43,.3-.48l.29-.07c1.08-.25,2.31-.54,3.51-.3,.83,.17,1.46,.43,1.94,.8,.48,.37,1.03,1.07,1.01,1.82,0,.33-.14,.79-.68,1.16-.48,.33-1.14,.37-1.7,.37Z"/>
    <path class="cls-1" d="M128.84,15.59c-.1,0-.19-.01-.29-.03-.53-.11-.96-.6-1.18-1.02-.32-.61-.55-1.24-.65-1.84-.04-.26-.09-.53-.14-.79-.12-.65-.24-1.31-.3-2-.02-.22,.15-.41,.37-.43,.22-.02,.41,.15,.43,.37,.05,.64,.17,1.26,.29,1.92,.05,.27,.1,.53,.14,.8,.08,.51,.29,1.08,.56,1.6,.17,.32,.43,.57,.64,.61,.2,.04,.3-.01,.36-.06,.28-.23,.41-.91,.41-1.44,0-.44-.04-.86-.11-1.28-.14-.84-.74-1.35-1.43-1.93l-.13-.11c-.17-.14-.19-.4-.04-.56,.14-.17,.4-.19,.56-.04l.13,.11c.74,.63,1.51,1.28,1.7,2.41,.08,.47,.12,.93,.12,1.42,0,.35-.05,1.53-.71,2.07-.21,.17-.46,.26-.74,.26Z"/>
    <path class="cls-1" d="M122.28,15c-.09,0-.18,0-.28-.03-.68-.12-1.24-.69-1.33-1.35-.22-1.61,1.19-2.52,1.95-3.02,.25-.17,.49-.35,.73-.54,.14-.11,.29-.22,.44-.33l.11-.08c.91-.69,1.27-.88,1.58-.82,.22,.04,.36,.25,.32,.47-.04,.22-.24,.37-.47,.32-.01,.02-.26,.16-.95,.67l-.12,.09c-.14,.1-.28,.21-.42,.32-.26,.2-.51,.4-.79,.58-1.07,.7-1.71,1.31-1.59,2.24,.04,.31,.34,.61,.69,.67,.23,.04,.39-.02,.64-.13,.11-.05,.22-.1,.35-.14,1.49-.52,2.17-2.14,2.77-3.57l.16-.39c.09-.2,.32-.3,.53-.21,.2,.09,.3,.32,.21,.52l-.16,.38c-.66,1.58-1.42,3.38-3.25,4.01-.1,.04-.2,.08-.29,.12-.23,.1-.49,.21-.82,.21Z"/>
    <path class="cls-1" d="M120.7,10.51c-.21,0-.41,0-.61-.03-.1,0-.2-.02-.31-.02-.49-.03-1.1-.06-1.54-.49-.36-.35-.66-.92-.46-1.45,.39-1.01,1.53-1.48,3.36-1.4,.26,.01,.51,.06,.75,.12,.14,.03,.28,.06,.42,.08,.13,.02,.26,.03,.39,.04,.26,.02,.51,.05,.77,.11,.2,.05,.39,.11,.58,.17l.36,.11c.06,.02,.14,.03,.22,.04,.25,.03,.54,.07,.75,.25,.16,.13,.18,.36,.07,.53,.12,.02,.24,.1,.29,.23,.09,.2,0,.44-.2,.53-.12,.06-2.42,.9-2.68,.92-.15,.02-.3,.05-.45,.07-.13,.03-.25,.05-.38,.07-.5,.07-.94,.11-1.34,.11Zm.03-2.59c-1.23,0-1.97,.3-2.2,.9-.05,.13,.07,.38,.27,.59,.22,.22,.63,.24,1.02,.26,.12,0,.23,.01,.34,.02,.5,.05,1.06,.03,1.76-.08,.11-.02,.23-.04,.34-.06,.17-.03,.35-.07,.52-.09,.15-.03,1.54-.52,2.16-.75-.03-.01-.06-.03-.08-.06-.04-.03-.22-.05-.33-.06-.12-.02-.24-.03-.34-.06l-.38-.11c-.18-.06-.36-.11-.54-.16-.21-.05-.43-.07-.65-.09-.14-.01-.29-.03-.43-.05-.16-.02-.32-.06-.47-.09-.2-.04-.41-.09-.62-.1-.13,0-.26,0-.38,0Z"/>
    <path class="cls-1" d="M125.13,8.75s-.04,0-.06,0c-.56-.09-1.46-.46-2.05-.74-.13-.06-.25-.14-.37-.22l-.1-.07c-.12-.08-.25-.16-.38-.24-.14-.08-.27-.17-.41-.26-.5-.32-.92-.76-1.29-1.32-.39-.59-.53-1.52-.36-2.3,.13-.59,.42-1.04,.84-1.3,1.06-.67,2.3,.49,2.71,.88,.04,.04,.12,.11,.21,.19,.92,.79,1.21,1.11,1.13,1.47-.05,.21-.26,.35-.48,.3-.17-.04-.29-.18-.31-.34-.12-.19-.65-.64-.86-.82-.11-.09-.19-.17-.24-.21-.79-.74-1.38-1.01-1.74-.78-.3,.18-.43,.53-.48,.79-.12,.57-.02,1.28,.25,1.69,.31,.48,.65,.83,1.06,1.09,.13,.08,.26,.16,.39,.25,.13,.08,.26,.16,.39,.25l.11,.08c.09,.06,.17,.12,.27,.17,.57,.28,1.39,.61,1.83,.67,.22,.03,.37,.24,.33,.46-.03,.2-.2,.34-.4,.34Zm-.91-4.1h0s0,0,0,0Z"/>
    <path class="cls-1" d="M126.72,10.28c-.41,0-.79-.13-1.07-.38-.16-.14-.26-.31-.34-.44-.18-.29-.38-.61-.38-1.01,0-.49,.31-1.12,.7-1.44,.22-.18,.52-.34,.82-.43,.33-.1,.96-.15,1.38,.11,.32,.2,.68,.48,.87,1,.12,.33,.15,.71,.07,1.06-.08,.39-.22,.68-.41,.88-.12,.13-.27,.21-.38,.27-.21,.13-.43,.29-.98,.36-.09,.01-.18,.02-.27,.02Zm.32-2.98c-.12,0-.25,.02-.36,.05-.2,.06-.42,.17-.55,.28-.21,.17-.41,.57-.41,.82,0,.17,.11,.36,.24,.55,.08,.13,.14,.24,.21,.29,.22,.19,.51,.2,.72,.17h0c.36-.05,.48-.13,.57-.19,.01,0,.1-.06,.11-.07,.09-.05,.17-.09,.21-.13,.09-.09,.16-.26,.21-.49,.04-.2,.03-.43-.04-.62-.09-.24-.23-.41-.54-.6-.07-.05-.21-.07-.37-.07Z"/>
  </g>
  <g>
    <g>
      <path class="cls-1" d="M146.04,8.92c-.21,0-.39-.17-.4-.38-.01-.22,.16-.41,.38-.42,.23-.01,.46-.03,.69-.05,.63-.05,1.28-.05,1.91-.1,.25-.02,.5-.04,.76-.03,.97,.04,1.96,.02,2.92,.01,.49,0,.99-.01,1.48-.01h4c.63,0,1.25-.03,1.88-.06,.64-.03,1.28-.06,1.92-.06h3.13c.22,0,.4,.18,.4,.4s-.18,.4-.4,.4h-3.13c-.63,0-1.26,.03-1.88,.06-.64,.03-1.28,.06-1.92,.06h-4c-.49,0-.98,0-1.47,.01-.97,.01-1.97,.02-2.96-.01-.22,0-.44,.01-.66,.03-.63,.05-1.27,.05-1.91,.1-.24,.02-.47,.04-.71,.05,0,0-.01,0-.02,0Z"/>
      <path class="cls-1" d="M166.61,9.63s-.08,0-.12,0c-.38-.02-.67-.11-.99-.31-.29-.17-.61-.36-.89-.92-.1-.19-.03-.42,.16-.53l.16-.09c.36-.21,.71-.41,1.21-.42,.25,0,.47,0,.68,0,.56,.01,1.18,.41,1.27,1.04,.04,.3-.04,.57-.24,.79-.31,.34-.83,.45-1.23,.45Zm-1.09-1.28c.11,.12,.23,.19,.38,.28,.22,.13,.38,.18,.63,.2,.28,.02,.6-.07,.72-.19,.03-.03,.04-.06,.04-.13-.03-.19-.29-.35-.5-.35-.21,0-.41,0-.62,0-.25,0-.43,.08-.65,.2Z"/>
    </g>
    <g>
      <path class="cls-1" d="M155.78,8.74c-.17,0-.33-.11-.38-.28-.07-.21,.05-.44,.26-.5,.53-.17,.99-.51,1.47-.87,.26-.2,.53-.4,.82-.58,.25-.16,.52-.28,.78-.4,.23-.11,.46-.21,.68-.35,.28-.17,.54-.32,.8-.46,.35-.19,.69-.38,1.03-.62,.18-.13,.43-.09,.56,.09,.13,.18,.09,.43-.09,.56-.38,.28-.76,.48-1.12,.68-.25,.13-.5,.27-.76,.43-.25,.16-.51,.28-.78,.4-.23,.11-.47,.21-.69,.35-.27,.17-.52,.36-.77,.54-.52,.39-1.06,.79-1.71,1-.04,.01-.08,.02-.12,.02Z"/>
      <path class="cls-1" d="M161.85,5.44c-.14,0-.29-.01-.45-.04-.14-.03-.25-.12-.3-.25s-.03-.27,.06-.38c.04-.06,.1-.18,.15-.29,.12-.27,.26-.58,.54-.73,.02-.01,.07-.06,.14-.11,.36-.3,.55-.44,.73-.48,.39-.09,.74-.04,1,.13,.16,.1,.35,.31,.41,.68,.1,.62-.28,1.13-.97,1.3-.35,.09-.62,.15-.81,.15-.14,.02-.31,.03-.5,.03Zm1.24-1.54c-.05,0-.12,0-.19,.02-.05,.03-.29,.23-.4,.32-.12,.1-.21,.17-.25,.19-.03,.02-.08,.11-.12,.19,.02,0,.04,0,.06,0,.06,0,.11-.01,.14-.01,.12,0,.41-.07,.56-.11,.49-.12,.46-.33,.45-.41-.02-.11-.06-.14-.07-.14-.03-.02-.09-.04-.18-.04Z"/>
    </g>
    <g>
      <path class="cls-1" d="M158.15,12.95c-.1,0-.21-.04-.29-.12-.12-.13-.44-.27-.7-.38-.19-.08-.36-.16-.49-.23-.43-.25-.86-.5-1.26-.81-.28-.22-.57-.44-.87-.67-.92-.72-1.88-1.47-2.84-2.02-.19-.11-.26-.35-.15-.55,.11-.19,.35-.26,.55-.15,1.02,.58,2,1.35,2.94,2.09,.29,.23,.58,.45,.86,.67,.37,.28,.77,.51,1.18,.75,.11,.06,.26,.13,.41,.2,.35,.15,.72,.31,.95,.55,.16,.16,.15,.41,0,.57-.08,.08-.18,.11-.28,.11Z"/>
      <path class="cls-1" d="M159.78,14.13c-.07,0-.12,0-.16,0-.81-.08-1.32-.73-1.73-1.25l-.14-.18c-.08-.1-.11-.24-.07-.37,.04-.13,.14-.23,.27-.26,.58-.17,1.18-.03,1.69,.13,.37,.12,.95,.48,1.03,1.02,.06,.41-.23,.65-.33,.74-.18,.16-.39,.19-.55,.19Zm-.9-1.32c.24,.27,.51,.48,.82,.51,.09,.01,.12,0,.12,0,.04-.04,.05-.06,.06-.06-.02-.04-.25-.24-.48-.32-.17-.05-.34-.1-.52-.13Z"/>
    </g>
  </g>
  <path class="cls-1" d="M171.14,9.23s-.05,0-.08,0c-.32-.03-.5-.17-.59-.28-.09-.1-.18-.29-.14-.56,.07-.58,.47-.69,.64-.71,.32-.04,.6,.09,.76,.32,.03,.04,.06,.08,.09,.13,.13,.24,.12,.54-.04,.78-.14,.21-.38,.34-.64,.34Z"/>
  <g>
    <g>
      <path class="cls-1" d="M194.32,8.96h-2.52c-.57,0-1.16-.02-1.8-.08-.41-.03-.83-.02-1.25-.01-.47,.01-.94,.01-1.42,.02-.74,.01-1.5,.03-2.25-.06-.56-.06-1.13-.04-1.74-.02-.32,.01-.63,.03-.95,.03h-1.18c-.06,0-.19,0-.32-.02-.14-.01-.28-.02-.34-.02l-.36,.03c-.3,.02-.66,.05-.78,.05-.22,.02-.41-.16-.42-.38,0-.22,.16-.41,.38-.42,.12,0,.46-.03,.76-.05l.37-.03c.08,0,.27,0,.46,.02,.11,0,.21,.02,.26,.02h1.18c.3,0,.61-.01,.91-.03,.61-.03,1.24-.05,1.86,.02,.7,.08,1.43,.07,2.15,.05,.47,0,.94,0,1.41-.02,.44-.01,.89-.02,1.33,.01,.62,.05,1.19,.07,1.74,.07h2.52c.27,0,.53-.02,.8-.04,.15-.01,.32-.03,.48-.06,.33-.04,.66-.09,.98-.07,.22,0,.39,.2,.38,.42,0,.22-.18,.39-.42,.38-.26,0-.55,.03-.84,.07-.18,.02-.36,.05-.53,.06-.29,.02-.57,.04-.86,.04Z"/>
      <path class="cls-1" d="M177.22,9.57s-.07,0-.11,0c-.37,0-.74-.17-.98-.44-.21-.23-.31-.51-.28-.81,.03-.36,.2-.67,.5-.87,.32-.23,.75-.3,1.14-.19,.24,.07,.46,.16,.69,.25l.28,.11c.11,.04,.21,.08,.32,.12,.15,.07,.31,.14,.81,.39,.13,.07,.22,.2,.23,.35,0,.15-.08,.29-.21,.36-.26,.14-.53,.28-.8,.42,0,0-.02,0-.04,.02-.02,.02-.04,.03-.06,.04-.2,.11-.4,.14-.56,.16l-.15,.02c-.24,.05-.48,.07-.76,.07Zm-.11-1.56c-.11,0-.22,.03-.31,.09-.1,.07-.15,.16-.16,.28,0,.08,.02,.14,.08,.21,.09,.1,.25,.17,.41,.18,.27,0,.48-.01,.69-.06l.18-.03c.08-.01,.16-.02,.22-.04,.1-.08,.23-.12,.29-.13,0,0,0,0,0,0-.02,0-.04-.02-.05-.02-.12-.06-.21-.09-.3-.12l-.3-.12c-.2-.08-.39-.16-.6-.22-.05-.01-.1-.02-.16-.02Z"/>
    </g>
    <g>
      <path class="cls-1" d="M188.13,8.88s-.07,0-.1-.01c-.31-.08-1.1-.5-1.29-.62-.24-.15-.51-.25-.81-.36-.19-.07-.38-.15-.57-.23-.39-.18-.77-.39-1.15-.6l-.34-.19c-.19-.1-.37-.19-.56-.28-.53-.24-.99-.53-1.48-.83l-.08-.05c-.19-.12-.25-.36-.13-.55,.12-.19,.36-.25,.55-.13l.09,.05c.46,.29,.9,.56,1.39,.78,.21,.09,.41,.19,.61,.3l.34,.19c.36,.2,.73,.4,1.1,.57,.17,.08,.34,.14,.51,.21,.32,.12,.64,.24,.95,.44,.21,.13,.9,.48,1.07,.53,.21,.06,.34,.28,.28,.49-.05,.18-.21,.3-.39,.3Z"/>
      <path class="cls-1" d="M181.82,5.77s-.05,0-.08,0c-.13-.03-.26-.06-.41-.09-.28-.07-.57-.14-.79-.15-.45-.02-1-.37-1.25-.68-.19-.25-.3-.47-.27-.85,.03-.33,.21-.6,.49-.75,.59-.3,1.3,0,1.73,.43,.48,.48,.7,.97,.95,1.55,.06,.14,.03,.29-.06,.41-.08,.09-.19,.15-.31,.15Zm-1.78-1.85c-.06,0-.12,.01-.17,.04-.01,0-.05,.02-.05,.09,0,.13,0,.16,.1,.3,.14,.17,.47,.37,.65,.38,.17,0,.36,.03,.54,.07-.12-.21-.25-.39-.43-.56-.17-.17-.42-.31-.64-.31Z"/>
    </g>
    <g>
      <path class="cls-1" d="M183.77,12.46c-.2,0-.37-.15-.4-.35-.03-.22,.13-.42,.35-.44,.11-.03,.71-.31,.83-.38,.21-.12,.4-.22,.63-.31,.09-.03,.17-.09,.25-.14,.08-.05,.17-.11,.26-.15,.14-.07,.28-.13,.43-.19l.26-.11c.54-.24,1.16-.54,1.71-.88,.15-.09,.3-.16,.45-.23,.1-.04,.19-.09,.29-.14,.56-.31,1.2-.57,1.83-.83l.34-.14c.2-.09,.44,.01,.52,.22,.09,.2-.01,.44-.22,.52l-.34,.14c-.6,.25-1.23,.5-1.74,.79-.11,.06-.23,.11-.34,.17-.12,.06-.24,.11-.36,.18-.59,.36-1.24,.67-1.8,.93l-.28,.12c-.13,.05-.26,.11-.38,.17-.07,.03-.13,.07-.19,.11-.12,.08-.25,.15-.39,.21-.19,.07-.35,.16-.52,.26-.05,.03-.88,.45-1.14,.48-.02,0-.03,0-.05,0Z"/>
      <path class="cls-1" d="M182.02,14.86c-.25,0-.48-.1-.67-.29-.46-.47-.26-1.21,.06-1.7,.12-.2,.32-.39,.59-.58,.13-.09,.61-.35,.75-.4,.53-.16,.67-.18,1.16-.22,.17-.01,.34,.09,.41,.26,.06,.17,0,.36-.13,.46-.16,.12-.25,.37-.36,.67-.12,.33-.26,.7-.54,1.02-.44,.51-.85,.77-1.24,.78,0,0-.02,0-.03,0Zm1.12-2.25s-.1,.03-.16,.05c-.07,.03-.43,.22-.52,.28-.18,.13-.31,.25-.38,.35-.18,.28-.25,.62-.16,.72,.05,.05,.08,.06,.1,.05,.04,0,.26-.03,.66-.5,.18-.22,.29-.49,.39-.78,.02-.06,.04-.11,.06-.17Z"/>
    </g>
  </g>
  <g>
    <g>
      <path class="cls-1" d="M201.34,8.92c-.21,0-.39-.17-.4-.38-.01-.22,.16-.41,.38-.42,.23-.01,.46-.03,.7-.05,.63-.05,1.28-.05,1.9-.1,.25-.02,.5-.04,.76-.03,.97,.04,1.96,.02,2.92,.01,.49,0,.99-.01,1.48-.01h4c.63,0,1.25-.03,1.88-.06,.64-.03,1.28-.06,1.92-.06h3.13c.22,0,.4,.18,.4,.4s-.18,.4-.4,.4h-3.13c-.63,0-1.26,.03-1.88,.06-.64,.03-1.28,.06-1.92,.06h-4c-.49,0-.98,0-1.47,.01-.97,.01-1.97,.02-2.96-.01-.22,0-.44,.01-.66,.03-.63,.05-1.27,.05-1.91,.1-.24,.02-.47,.04-.71,.05,0,0-.01,0-.02,0Z"/>
      <path class="cls-1" d="M221.91,9.63s-.08,0-.12,0c-.38-.02-.67-.11-.99-.31-.29-.17-.61-.36-.89-.92-.1-.19-.03-.42,.16-.53l.16-.09c.36-.21,.71-.41,1.21-.42,.25,0,.47,0,.68,0,.56,.01,1.19,.41,1.28,1.04,.04,.3-.04,.57-.24,.79-.31,.34-.83,.45-1.23,.45Zm-1.09-1.28c.11,.12,.23,.19,.38,.28,.22,.13,.38,.18,.63,.2,.29,.02,.6-.07,.72-.19,.03-.03,.04-.06,.04-.13-.03-.19-.29-.35-.5-.35-.21,0-.41,0-.62,0-.25,0-.44,.08-.65,.2Z"/>
    </g>
    <g>
      <path class="cls-1" d="M211.08,8.74c-.17,0-.33-.11-.38-.28-.07-.21,.05-.44,.26-.5,.53-.17,.99-.51,1.47-.87,.26-.2,.53-.4,.82-.58,.25-.16,.52-.28,.78-.4,.23-.11,.46-.21,.68-.35,.28-.17,.54-.32,.8-.46,.35-.19,.69-.38,1.03-.62,.18-.13,.43-.09,.56,.09,.13,.18,.09,.43-.09,.56-.38,.28-.76,.48-1.12,.68-.25,.13-.5,.27-.76,.44-.25,.16-.51,.28-.78,.4-.23,.11-.47,.21-.69,.35-.27,.17-.52,.36-.77,.54-.52,.39-1.06,.79-1.71,1-.04,.01-.08,.02-.12,.02Z"/>
      <path class="cls-1" d="M217.15,5.44c-.14,0-.29-.01-.45-.04-.14-.03-.25-.12-.3-.25-.05-.13-.03-.27,.06-.38,.04-.06,.1-.18,.15-.29,.12-.27,.26-.58,.54-.74,.01-.01,.07-.06,.13-.11,.36-.3,.55-.44,.73-.49,.39-.09,.74-.04,1,.13,.16,.1,.35,.31,.41,.68,.1,.62-.28,1.13-.97,1.3-.35,.09-.61,.15-.81,.15-.14,.02-.31,.03-.5,.03Zm1.24-1.54c-.05,0-.12,0-.19,.02-.05,.03-.29,.23-.4,.32-.11,.1-.21,.17-.25,.19-.03,.02-.08,.11-.12,.19,.02,0,.04,0,.06,0,.06,0,.11-.01,.14-.01,.12,0,.41-.07,.56-.11,.49-.12,.46-.33,.45-.41-.02-.11-.06-.14-.07-.14-.03-.02-.09-.04-.18-.04Z"/>
    </g>
    <g>
      <path class="cls-1" d="M213.45,12.95c-.1,0-.21-.04-.29-.12-.12-.13-.44-.27-.7-.38-.19-.08-.36-.16-.49-.23-.43-.25-.86-.5-1.26-.81-.28-.22-.57-.44-.87-.67-.92-.72-1.88-1.47-2.84-2.02-.19-.11-.26-.35-.15-.55,.11-.19,.35-.26,.55-.15,1.02,.58,2,1.35,2.94,2.09,.29,.23,.58,.45,.86,.67,.37,.28,.77,.51,1.18,.75,.11,.06,.26,.13,.41,.2,.35,.15,.72,.31,.95,.55,.16,.16,.15,.41,0,.57-.08,.08-.18,.11-.28,.11Z"/>
      <path class="cls-1" d="M215.08,14.13c-.07,0-.12,0-.16,0-.8-.08-1.31-.73-1.72-1.25l-.15-.18c-.08-.1-.11-.24-.07-.37,.04-.13,.14-.23,.27-.26,.58-.17,1.18-.03,1.69,.13,.37,.12,.95,.48,1.03,1.02,.06,.4-.22,.65-.33,.74-.18,.16-.39,.19-.55,.19Zm-.9-1.32c.24,.27,.51,.48,.82,.51,.09,0,.12,0,.12,0,.04-.04,.06-.06,.06-.06-.02-.04-.25-.24-.48-.32-.17-.05-.34-.1-.52-.13Z"/>
    </g>
  </g>
  <path class="cls-1" d="M226.44,9.23s-.05,0-.08,0c-.32-.03-.5-.17-.59-.28-.08-.1-.18-.29-.14-.56,.07-.58,.47-.69,.64-.71,.32-.04,.6,.09,.76,.32,.04,.04,.07,.08,.09,.13,.13,.24,.12,.54-.04,.78-.14,.21-.38,.34-.64,.34Z"/>
  <g>
    <g>
      <path class="cls-1" d="M249.62,8.96h-2.52c-.57,0-1.16-.02-1.8-.08-.41-.03-.83-.02-1.25-.01-.48,.01-.94,.01-1.42,.02-.74,.01-1.5,.02-2.25-.06-.56-.06-1.13-.04-1.74-.02-.32,.01-.63,.03-.95,.03h-1.18c-.06,0-.19,0-.32-.02-.14-.01-.28-.02-.34-.02l-.35,.03c-.3,.02-.67,.05-.79,.05-.21,.02-.41-.16-.42-.38,0-.22,.16-.41,.38-.42,.12,0,.47-.03,.76-.05l.36-.03c.08,0,.27,0,.46,.02,.11,0,.21,.02,.26,.02h1.18c.3,0,.61-.01,.91-.03,.61-.03,1.23-.05,1.86,.02,.69,.08,1.43,.07,2.15,.05,.47,0,.94,0,1.41-.02,.44-.01,.89-.02,1.33,.01,.62,.05,1.19,.07,1.74,.07h2.52c.27,0,.53-.02,.8-.04,.15-.01,.32-.03,.48-.06,.32-.04,.65-.09,.98-.07,.22,0,.39,.2,.38,.42,0,.22-.19,.41-.42,.38-.25,0-.55,.03-.84,.07-.18,.02-.36,.05-.53,.06-.29,.02-.57,.04-.86,.04Z"/>
      <path class="cls-1" d="M232.52,9.57s-.07,0-.11,0c-.37,0-.74-.17-.98-.44-.21-.23-.31-.51-.29-.81,.03-.36,.2-.67,.5-.87,.32-.23,.75-.3,1.14-.19,.23,.07,.46,.15,.68,.24l.29,.11c.11,.04,.21,.08,.32,.12,.15,.07,.31,.14,.81,.39,.13,.07,.22,.2,.23,.35,0,.15-.08,.29-.21,.36-.26,.14-.53,.28-.8,.42,0,0-.02,0-.04,.02-.02,.02-.04,.03-.06,.04-.2,.11-.4,.14-.56,.16l-.15,.02c-.24,.05-.48,.07-.76,.07Zm-.11-1.56c-.11,0-.22,.03-.31,.09-.1,.07-.15,.16-.16,.28,0,.08,.02,.15,.08,.21,.09,.1,.25,.17,.41,.18,.27,0,.48-.01,.69-.06l.18-.03c.08-.01,.16-.02,.22-.04,.1-.08,.23-.12,.29-.13,0,0,0,0,0,0-.02,0-.04-.02-.05-.02-.12-.06-.21-.09-.29-.12l-.32-.12c-.2-.08-.39-.16-.59-.21-.05-.01-.1-.02-.16-.02Z"/>
    </g>
    <g>
      <path class="cls-1" d="M243.43,8.88s-.07,0-.1-.01c-.31-.08-1.1-.5-1.29-.62-.24-.15-.51-.25-.81-.36-.19-.07-.38-.15-.57-.23-.39-.18-.77-.39-1.15-.6l-.34-.18c-.19-.1-.37-.19-.56-.28-.53-.24-.98-.52-1.47-.82l-.1-.06c-.19-.12-.25-.36-.13-.55,.12-.19,.36-.24,.55-.13l.1,.06c.46,.29,.89,.56,1.37,.77,.21,.09,.41,.19,.61,.3l.34,.19c.36,.2,.73,.4,1.1,.58,.17,.08,.34,.14,.51,.21,.32,.12,.64,.24,.95,.44,.21,.13,.9,.48,1.07,.53,.21,.06,.34,.28,.28,.49-.05,.18-.21,.3-.39,.3Z"/>
      <path class="cls-1" d="M237.12,5.77s-.05,0-.08,0c-.13-.03-.26-.06-.41-.09-.28-.07-.57-.14-.79-.15-.45-.02-1-.37-1.25-.68-.2-.25-.3-.47-.27-.85,.02-.32,.21-.6,.49-.74,.6-.3,1.3,0,1.73,.43,.48,.48,.7,.96,.95,1.55,.06,.14,.03,.29-.06,.41-.08,.09-.19,.15-.31,.15Zm-1.78-1.85c-.06,0-.12,.01-.17,.04-.01,0-.05,.02-.05,.09-.01,.13,0,.16,.1,.3,.14,.17,.47,.37,.65,.38,.17,0,.36,.03,.54,.07-.12-.21-.25-.39-.43-.56-.17-.17-.42-.31-.64-.31Z"/>
    </g>
    <g>
      <path class="cls-1" d="M239.07,12.46c-.2,0-.37-.15-.4-.35-.03-.22,.13-.42,.35-.44,.11-.03,.71-.31,.83-.38,.21-.12,.4-.22,.63-.31,.09-.03,.17-.09,.25-.14,.08-.05,.17-.1,.26-.15,.14-.07,.28-.13,.43-.19l.26-.11c.53-.24,1.15-.53,1.71-.88,.15-.09,.3-.16,.45-.23,.1-.04,.19-.09,.29-.14,.56-.31,1.21-.57,1.83-.83l.33-.14c.21-.09,.44,.01,.52,.22,.08,.2-.01,.44-.22,.52l-.34,.14c-.61,.25-1.23,.5-1.75,.79-.11,.06-.23,.11-.34,.17-.12,.06-.24,.11-.36,.18-.59,.37-1.24,.67-1.8,.93l-.28,.12c-.13,.05-.26,.11-.38,.17-.06,.03-.13,.07-.19,.11-.12,.08-.25,.15-.39,.21-.19,.07-.35,.16-.52,.26,0,0-.87,.45-1.14,.48-.02,0-.03,0-.05,0Z"/>
      <path class="cls-1" d="M237.32,14.86c-.25,0-.48-.1-.67-.29-.46-.47-.25-1.21,.06-1.7,.12-.19,.32-.38,.59-.58,.13-.09,.61-.35,.75-.4,.53-.16,.67-.18,1.16-.22,.17-.01,.34,.09,.41,.26,.06,.17,0,.36-.13,.46-.16,.12-.25,.37-.36,.67-.12,.33-.26,.7-.53,1.02-.44,.51-.85,.77-1.24,.78-.01,0-.02,0-.03,0Zm1.12-2.25s-.1,.03-.16,.05c-.07,.03-.43,.22-.52,.28-.19,.13-.31,.25-.38,.35-.18,.28-.25,.62-.16,.72,.05,.05,.08,.06,.1,.05,.04,0,.26-.03,.66-.5,.18-.21,.28-.49,.39-.78,.02-.06,.04-.11,.06-.17Z"/>
    </g>
  </g>
</svg>