<?xml version="1.0" encoding="UTF-8"?>
<svg id="_2" data-name="2" xmlns="http://www.w3.org/2000/svg" viewBox="0 0 512 473.64">
  <defs>
    <style>
      .cls-1 {
        fill: #f0edea;
      }
    </style>
  </defs>
  <path class="cls-1" d="M257.14,0C103.97,0,0,78.09,0,199.58c0,74.74,31.08,134.64,91.11,173.18,4,2.57,8.73,2.96,6.96,10.36-7.16,29.93-19.61,83.28-19.61,83.28-.53,2.26,.32,4.62,2.16,6.03,1.84,1.4,4.33,1.61,6.38,.51,0,0,87.86-52.07,99.58-58.57,27.33-15.62,50.88-18.65,68.56-18.65,121.48,0,256.86-48.61,256.86-197.43C512,82.86,418.97,0,257.14,0Z"/>
</svg>
