<?xml version="1.0" encoding="UTF-8"?>
<svg id="_レイヤー_1" data-name="レイヤー 1" xmlns="http://www.w3.org/2000/svg" viewBox="0 0 231.33 49.09">
  <defs>
    <style>
      .cls-1 {
        fill: #4a4136;
      }
    </style>
  </defs>
  <path class="cls-1" d="M90.35,49.03c-1.12,0-2.25-.05-3.37-.27-2.35-.46-4.86-.61-7.29-.75-.63-.04-1.25-.07-1.87-.12-2.63-.18-5.36-.12-8-.06-1.35,.03-2.7,.06-4.04,.06-2.69,0-5.41,.05-8.05,.1-1.54,.03-3.08,.06-4.62,.08-1.52,.02-3.09,.12-4.6,.22-2.49,.16-5.07,.33-7.59,.15-.54-.04-1.07-.1-1.61-.17-.84-.1-1.74-.19-2.56-.2-1.33,0-2.65,0-3.98,0h-1.88c-1.21,0-2.41-.03-3.62-.06-2.36-.06-4.8-.12-7.21,.07-1.29,.1-2.59,.16-3.85,.21-1.55,.07-3.16,.14-4.73,.29-1.45,.14-3.62,.23-5.72-.16-.86-.16-1.76-.14-2.7-.12-.82,.02-1.67,.03-2.51-.07-.14-.02-.27-.1-.35-.22-.08-.12-.11-.27-.07-.41,.08-.29,.16-.57,.25-.85,.18-.59,.35-1.14,.41-1.79,.08-.96,.06-2.02,.04-2.86-.04-1.89-.1-4.08-.33-6.11-.14-1.27-.15-2.58-.16-3.85,0-.93-.01-1.9-.07-2.82-.11-1.64-.07-3.32-.03-4.94,.02-.83,.04-1.67,.04-2.49,0-1.95,.05-3.91,.09-5.81,.05-1.9,.09-3.86,.09-5.8,0-.82-.05-1.66-.09-2.46-.05-.82-.09-1.67-.09-2.53C.28,4.03,.23,3.03,0,1.1c-.02-.14,.03-.28,.11-.38,.09-.11,.22-.17,.36-.18,1.11-.06,4.42-.22,5.73-.19,5.24,.01,10.3-.04,15.19-.09,4.35-.04,8.85-.09,13.5-.09,5.59,0,11.27,.07,16.76,.14l2.98,.04c1.83,.02,3.68-.03,5.48-.09,2.34-.07,4.75-.07,7.22-.16,1.86-.06,3.79-.13,5.61,.08,1.93,.22,3.95,.2,5.9,.18,1.53-.02,3.07-.03,4.56-.1,.95-.05,1.93-.1,2.92-.09,.94,0,1.86,.05,2.78,.09,.95,.05,1.93,.12,2.91,.09,3.69,0,7.41,.09,11.02,.18,3.53,.09,7.18,.18,10.77,.18s7.65-.04,11.78-.51c3.03-.34,6.07-.21,9.01-.09l.7,.03c.86,.04,1.73,.11,2.6,.19,1.5,.14,3.04,.28,4.53,.18,6.14-.42,13.01-.53,21.61-.36,1.51,.03,3.04,.16,4.52,.28,1.74,.14,3.54,.31,5.3,.28,3.62-.03,7.25,.25,10.37,.51,5.54,.46,11.31,.06,16.88-.33h.19c1.9-.14,3.91-.19,6.52-.18,.42,0,.75-.04,1.13-.09,.39-.05,.79-.08,1.24-.1,1.94,0,3.88,.06,5.76,.12,1.8,.05,3.6,.1,5.42,.11,.27,0,.5,.23,.5,.5,0,1.64-.07,2.8-.15,4.03-.09,1.35-.18,2.74-.18,4.91,0,.91-.04,1.98-.09,3.05-.04,1.06-.09,2.13-.09,3.03v5.86c0,.38,.01,.77,.03,1.17,.03,.81,.06,1.65-.03,2.46l-.07,.59c-.15,1.31-.27,2.35-.25,3.7,.01,1.1,0,1.8,0,2.61v1.51c0,.2,0,.47,.02,.76,.03,.71,.05,1.51-.02,2-.07,.48-.11,1.09-.16,1.93-.03,.51-.07,1.1-.12,1.8-.04,.47-.01,1.62,.06,3.26,0,.14,.01,.36,.02,.63,.03,.93,.07,2.49,.21,3.42,.02,.16-.03,.31-.14,.43-.11,.11-.27,.17-.43,.14-1.59-.23-3.71-.01-4.55,.09-.46,.06-1.87,.04-3.97,0-1.27-.02-2.59-.04-2.94-.01-2.16,.17-4.74,.16-7.73,.14h-2.14c-5.91-.03-12.02-.05-17.8-.56-1.99-.17-4.08-.11-6.1-.06-1.08,.03-2.17,.06-3.23,.06-1.11-.01-2.23,.09-3.32,.18-1.12,.09-2.28,.19-3.44,.18-2.62-.02-5.24-.01-7.86,0h-3.97s-2.09,0-2.09,0h-4.17s0,0-.01,0c-.87,0-1.73-.1-2.55-.19-.71-.08-1.44-.16-2.15-.18-1.21-.03-2.48,0-3.71,.02-2.3,.04-4.67,.09-6.89-.21-1.38-.18-2.91-.05-4.38,.08l-.79,.07c-2.12,.17-4.32,.25-6.95,.23-1.54,0-3.12,.04-4.66,.09-2.22,.07-4.51,.1-6.77,.08-3.02-.01-6.15-.03-9.19,.18-1.92,.13-3.91,.19-6.27,.19-.42,0-.85,0-1.27,.01-.42,0-.85,.01-1.28,.01Zm-16.47-2.25c1.34,0,2.69,.03,4.01,.12,.62,.04,1.24,.08,1.87,.12,2.46,.15,5.01,.3,7.42,.77,1.44,.28,2.97,.26,4.44,.23,.43,0,.86-.01,1.29-.01,2.34,0,4.31-.06,6.2-.19,3.07-.21,6.22-.2,9.26-.18,2.25,.01,4.53-.01,6.74-.08,1.54-.05,3.13-.1,4.69-.09,2.58,0,4.77-.06,6.86-.23l.79-.07c1.53-.13,3.1-.27,4.6-.07,2.14,.28,4.48,.24,6.73,.2,1.24-.02,2.52-.05,3.75-.02,.76,.02,1.52,.1,2.24,.19,.8,.09,1.62,.18,2.44,.18h4.18s2.09,0,2.09,0h3.97c2.62-.01,5.24-.02,7.86,0,1.11-.01,2.25-.09,3.35-.18,1.11-.09,2.26-.19,3.4-.19,1.05,0,2.12-.03,3.2-.06,2.05-.06,4.17-.12,6.22,.06,5.74,.5,11.83,.52,17.71,.54h2.14c2.97,.02,5.53,.03,7.65-.13,.4-.03,1.62-.01,3.03,.01,1.52,.02,3.41,.05,3.83,0,.77-.1,2.59-.29,4.18-.16-.09-.95-.12-2.14-.14-2.9,0-.26-.01-.48-.02-.61-.08-1.73-.1-2.86-.06-3.38,.05-.69,.09-1.28,.12-1.79,.06-.87,.1-1.49,.17-2.01,.06-.41,.03-1.19,0-1.83-.01-.31-.02-.59-.02-.8v-1.52c0-.81,.01-1.5,0-2.6-.02-1.42,.11-2.54,.26-3.83l.07-.59c.08-.74,.05-1.54,.02-2.31-.01-.41-.03-.81-.03-1.2v-5.86c0-.91,.04-2,.09-3.07,.04-1.06,.09-2.12,.09-3.01,0-2.2,.09-3.61,.18-4.97,.07-1.08,.14-2.12,.15-3.47-1.65-.02-3.29-.06-4.94-.11-1.87-.05-3.81-.11-5.74-.12-.4-.01-.74,.04-1.11,.09-.4,.05-.81,.09-1.26,.1-2.58-.02-4.57,.04-6.44,.17h-.19c-5.61,.4-11.41,.8-17.03,.34-3.1-.26-6.72-.54-10.28-.5-1.8,0-3.63-.14-5.39-.29-1.46-.12-2.97-.25-4.45-.28-8.58-.17-15.42-.06-21.52,.36-1.56,.11-3.15-.04-4.69-.18-.85-.08-1.7-.16-2.55-.19l-.7-.03c-3.04-.13-5.91-.25-8.86,.09-4.18,.47-8.33,.51-11.89,.51s-7.26-.09-10.8-.18c-3.61-.09-7.32-.18-11-.18-.99-.01-2-.05-2.96-.09-.91-.04-1.82-.09-2.74-.09-.95,0-1.92,.04-2.87,.09-1.5,.07-3.05,.09-4.6,.11-1.99,.02-4.04,.05-6.03-.18-1.75-.2-3.64-.14-5.47-.07-2.47,.08-4.87,.08-7.23,.16-1.8,.05-3.67,.11-5.52,.09l-2.98-.04c-5.49-.07-11.17-.14-16.75-.14-4.65,0-9.14,.05-13.49,.09-4.9,.05-9.95,.11-15.21,.09-1.11-.01-3.75,.1-5.14,.16,.18,1.64,.22,2.6,.22,3.79,0,.83,.05,1.67,.09,2.48,.04,.82,.09,1.66,.09,2.52,0,1.95-.05,3.92-.09,5.83-.04,1.89-.09,3.85-.09,5.79,0,.83-.02,1.67-.04,2.51-.04,1.6-.08,3.26,.03,4.85,.06,.95,.07,1.93,.08,2.88,0,1.24,.02,2.52,.15,3.74,.23,2.07,.29,4.28,.33,6.2,.02,.87,.04,1.95-.05,2.97-.06,.75-.26,1.39-.45,2-.02,.08-.05,.16-.07,.24,.58,.04,1.16,.03,1.78,.01,.95-.02,1.94-.04,2.9,.14,1.99,.37,4.06,.28,5.45,.15,1.6-.16,3.22-.23,4.78-.29,1.25-.05,2.55-.11,3.82-.21,2.46-.19,4.93-.13,7.31-.07,1.19,.03,2.39,.06,3.59,.06h1.88c1.32,0,2.65,0,3.97,0,.91-.01,1.81,.1,2.68,.21,.52,.06,1.04,.12,1.56,.16,2.46,.18,5,.01,7.46-.15,1.53-.1,3.11-.2,4.66-.22,1.54-.02,3.08-.05,4.62-.08,2.64-.05,5.38-.1,8.07-.1,1.33,0,2.68-.03,4.02-.06,1.34-.03,2.71-.06,4.08-.06Z"/>
  <path class="cls-1" d="M99.79,49.09c-1.12,0-2.25-.05-3.37-.27-2.35-.46-4.86-.61-7.29-.75-.63-.04-1.25-.07-1.87-.12-2.63-.18-5.36-.12-8-.06-1.35,.03-2.7,.06-4.04,.06-2.69,0-5.41,.05-8.05,.1-1.54,.03-3.08,.06-4.62,.08-1.52,.02-3.09,.12-4.6,.22-2.49,.16-5.07,.33-7.59,.15-.54-.04-1.07-.1-1.61-.17-.84-.1-1.74-.19-2.56-.2-1.33,0-2.65,0-3.98,0h-1.88c-1.21,0-2.41-.03-3.62-.06-2.36-.06-4.8-.12-7.21,.07-1.29,.1-2.59,.16-3.85,.21-1.55,.07-3.16,.14-4.73,.29-1.45,.14-3.62,.23-5.72-.16-.86-.16-1.76-.14-2.7-.12-.82,.02-1.67,.03-2.51-.07-.14-.02-.27-.1-.35-.22-.08-.12-.11-.27-.07-.41,.08-.29,.16-.57,.25-.85,.18-.59,.35-1.14,.41-1.79,.08-.96,.06-2.02,.04-2.86-.04-1.89-.1-4.08-.33-6.11-.14-1.27-.15-2.58-.16-3.85,0-.93-.01-1.9-.07-2.82-.11-1.64-.07-3.32-.03-4.94,.02-.83,.04-1.67,.04-2.49,0-1.95,.05-3.91,.09-5.81,.05-1.9,.09-3.86,.09-5.8,0-.82-.05-1.66-.09-2.46-.05-.82-.09-1.67-.09-2.53,0-1.27-.04-2.27-.27-4.2-.02-.14,.03-.28,.11-.38,.09-.11,.22-.17,.36-.18,1.11-.06,4.42-.22,5.73-.19,5.24,.01,10.3-.04,15.19-.09,4.35-.04,8.85-.09,13.5-.09,5.59,0,11.27,.07,16.76,.14l2.98,.04c1.83,.02,3.68-.03,5.48-.09,2.34-.07,4.75-.07,7.22-.16,1.86-.06,3.79-.13,5.61,.08,1.93,.22,3.95,.2,5.9,.18,1.53-.02,3.07-.03,4.56-.1,.95-.05,1.93-.1,2.92-.09,.94,0,1.86,.05,2.78,.09,.95,.05,1.93,.12,2.91,.09,3.69,0,7.41,.09,11.02,.18,3.53,.09,7.18,.18,10.77,.18s7.65-.04,11.78-.51c3.03-.34,6.07-.21,9.01-.09l.7,.03c.86,.04,1.73,.11,2.6,.19,1.5,.14,3.04,.28,4.53,.18,6.14-.42,13.01-.53,21.61-.36,1.51,.03,3.04,.16,4.52,.28,1.74,.14,3.54,.31,5.3,.28,3.62-.03,7.25,.25,10.37,.51,5.54,.46,11.31,.06,16.88-.33h.19c1.9-.14,3.91-.19,6.52-.18,.42,0,.75-.04,1.13-.09,.39-.05,.79-.08,1.24-.1,1.94,0,3.88,.06,5.76,.12,1.8,.05,3.6,.1,5.42,.11,.27,0,.5,.23,.5,.5,0,1.64-.07,2.8-.15,4.03-.09,1.35-.18,2.74-.18,4.91,0,.91-.04,1.98-.09,3.05-.04,1.06-.09,2.13-.09,3.03v5.86c0,.38,.01,.77,.03,1.17,.03,.81,.06,1.65-.03,2.46l-.07,.59c-.15,1.31-.27,2.35-.25,3.7,.01,1.1,0,1.8,0,2.61v1.51c0,.2,0,.47,.02,.76,.03,.71,.05,1.51-.02,2-.07,.48-.11,1.09-.16,1.93-.03,.51-.07,1.1-.12,1.8-.04,.47-.01,1.62,.06,3.26,0,.14,.01,.36,.02,.63,.03,.93,.07,2.49,.21,3.42,.02,.16-.03,.31-.14,.43-.11,.11-.27,.17-.43,.14-1.59-.23-3.71-.01-4.55,.09-.46,.06-1.87,.04-3.97,0-1.27-.02-2.59-.04-2.94-.01-2.16,.17-4.74,.16-7.73,.14h-2.14c-5.91-.03-12.02-.05-17.8-.56-1.99-.17-4.08-.11-6.1-.06-1.08,.03-2.17,.06-3.23,.06-1.11-.01-2.23,.09-3.32,.18-1.12,.09-2.28,.19-3.44,.18-2.62-.02-5.24-.01-7.86,0h-3.97s-2.09,0-2.09,0h-4.17s0,0-.01,0c-.87,0-1.73-.1-2.55-.19-.71-.08-1.44-.16-2.15-.18-1.21-.03-2.48,0-3.71,.02-2.3,.04-4.67,.09-6.89-.21-1.38-.18-2.91-.05-4.38,.08l-.79,.07c-2.12,.17-4.32,.25-6.95,.23-1.54,0-3.12,.04-4.66,.09-2.22,.07-4.51,.1-6.77,.08-3.02-.01-6.15-.03-9.19,.18-1.92,.13-3.91,.19-6.27,.19-.42,0-.85,0-1.27,.01-.42,0-.85,.01-1.28,.01Zm-16.47-2.25c1.34,0,2.69,.03,4.01,.12,.62,.04,1.24,.08,1.87,.12,2.46,.15,5.01,.3,7.42,.77,1.44,.28,2.97,.26,4.44,.23,.43,0,.86-.01,1.29-.01,2.34,0,4.31-.06,6.2-.19,3.07-.21,6.22-.2,9.26-.18,2.25,.01,4.53-.01,6.74-.08,1.54-.05,3.13-.1,4.69-.09,2.58,0,4.77-.06,6.86-.23l.79-.07c1.53-.13,3.1-.27,4.6-.07,2.14,.28,4.48,.24,6.73,.2,1.24-.02,2.52-.05,3.75-.02,.76,.02,1.52,.1,2.24,.19,.8,.09,1.62,.18,2.44,.18h4.18s2.09,0,2.09,0h3.97c2.62-.01,5.24-.02,7.86,0,1.11-.01,2.25-.09,3.35-.18,1.11-.09,2.26-.19,3.4-.19,1.05,0,2.12-.03,3.2-.06,2.05-.06,4.17-.12,6.22,.06,5.74,.5,11.83,.52,17.71,.54h2.14c2.97,.02,5.53,.03,7.65-.13,.4-.03,1.62-.01,3.03,.01,1.52,.02,3.41,.05,3.83,0,.77-.1,2.59-.29,4.18-.16-.09-.95-.12-2.14-.14-2.9,0-.26-.01-.48-.02-.61-.08-1.73-.1-2.86-.06-3.38,.05-.69,.09-1.28,.12-1.79,.06-.87,.1-1.49,.17-2.01,.06-.41,.03-1.19,0-1.83-.01-.31-.02-.59-.02-.8v-1.52c0-.81,.01-1.5,0-2.6-.02-1.42,.11-2.54,.26-3.83l.07-.59c.08-.74,.05-1.54,.02-2.31-.01-.41-.03-.81-.03-1.2v-5.86c0-.91,.04-2,.09-3.07,.04-1.06,.09-2.12,.09-3.01,0-2.2,.09-3.61,.18-4.97,.07-1.08,.14-2.12,.15-3.47-1.65-.02-3.29-.06-4.94-.11-1.87-.05-3.81-.11-5.74-.12-.4-.01-.74,.04-1.11,.09-.4,.05-.81,.09-1.26,.1-2.58-.02-4.57,.04-6.44,.17h-.19c-5.61,.4-11.41,.8-17.03,.34-3.1-.26-6.72-.54-10.28-.5-1.8,0-3.63-.14-5.39-.29-1.46-.12-2.97-.25-4.45-.28-8.58-.17-15.42-.06-21.52,.36-1.56,.11-3.15-.04-4.69-.18-.85-.08-1.7-.16-2.55-.19l-.7-.03c-3.04-.13-5.91-.25-8.86,.09-4.18,.47-8.33,.51-11.89,.51s-7.26-.09-10.8-.18c-3.61-.09-7.32-.18-11-.18-.99-.01-2-.05-2.96-.09-.91-.04-1.82-.09-2.74-.09-.95,0-1.92,.04-2.87,.09-1.5,.07-3.05,.09-4.6,.11-1.99,.02-4.04,.05-6.03-.18-1.75-.2-3.64-.14-5.47-.07-2.47,.08-4.87,.08-7.23,.16-1.8,.05-3.67,.11-5.52,.09l-2.98-.04c-5.49-.07-11.17-.14-16.75-.14-4.65,0-9.14,.05-13.49,.09-4.9,.05-9.95,.11-15.21,.09-1.11-.01-3.75,.1-5.14,.16,.18,1.64,.22,2.6,.22,3.79,0,.83,.05,1.67,.09,2.48,.04,.82,.09,1.66,.09,2.52,0,1.95-.05,3.92-.09,5.83-.04,1.89-.09,3.85-.09,5.79,0,.83-.02,1.67-.04,2.51-.04,1.6-.08,3.26,.03,4.85,.06,.95,.07,1.93,.08,2.88,0,1.24,.02,2.52,.15,3.74,.23,2.07,.29,4.28,.33,6.2,.02,.87,.04,1.95-.05,2.97-.06,.75-.26,1.39-.45,2-.02,.08-.05,.16-.07,.24,.58,.04,1.16,.03,1.78,.01,.95-.02,1.94-.04,2.9,.14,1.99,.37,4.06,.28,5.45,.15,1.6-.16,3.22-.23,4.78-.29,1.25-.05,2.55-.11,3.82-.21,2.46-.19,4.93-.13,7.31-.07,1.19,.03,2.39,.06,3.59,.06h1.88c1.32,0,2.65,0,3.97,0,.91-.01,1.81,.1,2.68,.21,.52,.06,1.04,.12,1.56,.16,2.46,.18,5,.01,7.46-.15,1.53-.1,3.11-.2,4.66-.22,1.54-.02,3.08-.05,4.62-.08,2.64-.05,5.38-.1,8.07-.1,1.33,0,2.68-.03,4.02-.06,1.34-.03,2.71-.06,4.08-.06Z"/>
</svg>