<?xml version="1.0" encoding="UTF-8"?>
<svg id="_レイヤー_1" data-name="レイヤー 1" xmlns="http://www.w3.org/2000/svg" viewBox="0 0 520.84 81.4">
  <defs>
    <style>
      .cls-1 {
        fill: #f7f8f8;
      }

      .cls-2, .cls-3 {
        fill: #efefef;
      }

      .cls-3 {
        font-family: HiraKakuProN-W3-83pv-RKSJ-H, 'Hiragino Kaku Gothic ProN';
        font-size: 13.2px;
        letter-spacing: .19em;
        stroke: #efefef;
        stroke-miterlimit: 10;
        stroke-width: .25px;
      }
    </style>
  </defs>
  <g>
    <path class="cls-1" d="M93.03,19.04c-.52-.67-.99-1.36-1.48-2.06-.3-.41-.57-.83-.81-1.26,0,0,0,0,0,0-.14-.24-.48-.25-.63-.02-.84,1.31-.44,3.62,.78,5.19,1.22,1.57,2.85,1.88,4.19,1.21,.22-.11,.27-.4,.1-.58-.23-.24-.46-.49-.67-.72-.5-.59-1.01-1.15-1.48-1.76Z"/>
    <path class="cls-1" d="M96.49,16.56c-1.21-1.57-3.35-2.53-4.83-2.05-.26,.09-.34,.42-.15,.61,.01,.01,.03,.03,.03,.03,.36,.35,.7,.71,1.02,1.1,.55,.64,1.1,1.28,1.62,1.95,.47,.61,.9,1.24,1.34,1.87,.16,.25,.34,.52,.51,.8,.13,.21,.43,.23,.59,.05,.98-1.14,1.09-2.79-.13-4.36Z"/>
  </g>
  <g>
    <circle class="cls-2" cx="288.8" cy="49.31" r="2.38"/>
    <circle class="cls-2" cx="334.54" cy="50.58" r="2.2"/>
    <circle class="cls-2" cx="312.94" cy="44.38" r="2.12"/>
    <circle class="cls-2" cx="377.26" cy="49.83" r="2.2"/>
    <circle class="cls-2" cx="426.02" cy="22.17" r="2.34"/>
    <circle class="cls-2" cx="405.03" cy="50.92" r="2.26"/>
    <circle class="cls-2" cx="465.23" cy="51.02" r="2.11"/>
    <circle class="cls-2" cx="472.69" cy="36" r="2.11"/>
    <circle class="cls-2" cx="472.49" cy="23.37" r="1.84"/>
    <ellipse class="cls-2" cx="501.2" cy="51.83" rx="2.54" ry="2.34"/>
    <circle class="cls-2" cx="379.65" cy="32.37" r="2.26"/>
    <ellipse class="cls-2" cx="518.3" cy="31.9" rx="2.54" ry="2.34"/>
    <g>
      <g>
        <path class="cls-2" d="M80.41,39.52c-.99,4.49-2.82,9.49-4.69,13.31-.32,.68-1.07,.99-1.79,.75-.6-.2-.91-.87-.64-1.43,1.79-3.65,3.69-8.46,4.73-13.23,.12-.68,.79-1.07,1.43-.91,.68,.16,1.11,.83,.95,1.51Zm8.5,10.49c.24,.67-.08,1.43-.71,1.67-1.87,.75-4.41,1.31-6.4,1.51-.64,.08-1.23-.44-1.27-1.11-.04-.64,.44-1.19,1.11-1.27,1.67-.24,4.05-.71,5.8-1.39,.6-.24,1.27,.04,1.47,.6Zm-7.59-13.15c-.08-.67,.4-1.27,1.07-1.35,2.94-.44,6.67-1.31,10.45-2.82-.4-.2-.68-.6-.68-1.07v-3.57h-5.32c-.6,0-1.11-.44-1.11-1.07,0-.6,.48-1.07,1.11-1.07h13.35c.6,0,1.11,.44,1.11,1.07,0,.6-.48,1.07-1.11,1.07h-5.64v3.57c0,.12,0,.24-.04,.36,1.55-.71,3.1-1.55,4.57-2.54,.56-.36,1.27-.16,1.59,.36,.32,.64,.16,1.43-.44,1.79-1.95,1.27-4.01,2.3-6.12,3.14h6.83c1.19,0,2.15,.95,2.15,2.14v9.3c0,1.15-.95,2.14-2.15,2.14h-13.78c-1.23,0-2.15-.99-2.15-2.14v-8.74c-.79,.16-1.59,.32-2.34,.44-.64,.12-1.27-.36-1.35-.99Zm.4-4.13c-.08-.64,.32-1.19,.95-1.35,1.87-.4,3.69-.95,5.2-1.59,.52-.24,1.11,.04,1.31,.56,.2,.64-.08,1.35-.68,1.63-1.67,.75-3.61,1.31-5.48,1.67-.6,.12-1.19-.32-1.31-.91Zm.04-6v-2.62c0-1.19,.95-2.15,2.15-2.15h19.23c1.19,0,2.15,.95,2.15,2.15l-2.46,.08h-18.59v2.54c0,.67-.56,1.19-1.23,1.19-.72,0-1.23-.52-1.23-1.19Zm18.83,10.13h-13.11v1.75h13.11v-1.75Zm0,5.52v-1.79h-13.11v1.79h13.11Zm-13.11,3.73h13.11v-1.71h-13.11v1.71Zm19.15,6c-.12,.75-.79,1.23-1.47,1.15-1.67-.24-3.81-.79-5.84-1.47-.68-.24-.99-1.03-.75-1.71,.24-.64,.99-.95,1.67-.68,1.71,.71,3.65,1.15,5.32,1.35,.68,.12,1.15,.71,1.07,1.35Z"/>
        <path class="cls-2" d="M147.82,21.49c1.15,0,2.15,.91,2.15,2.14v26.49c0,1.19-.99,2.15-2.15,2.15h-24.63c-1.19,0-2.15-.99-2.15-2.15V23.63c0-1.23,.99-2.14,2.15-2.14h24.63Zm-13.55,2.42h-10.69v10.88h10.69v-10.88Zm-10.69,13.31v12.59h10.69v-12.59h-10.69Zm23.83-2.42v-10.88h-10.69v10.88h10.69Zm-10.69,15.02h10.69v-12.59h-10.69v12.59Z"/>
        <path class="cls-2" d="M176.18,49.45c.24,.67-.08,1.43-.75,1.67-2.78,1.11-6.44,1.87-9.33,2.11-.71,.08-1.31-.44-1.39-1.15-.08-.64,.4-1.23,1.07-1.31,3.34-.36,6.4-1.03,8.9-1.99,.64-.24,1.31,.08,1.51,.68Zm-10.29-17.04c-.6,0-1.07-.48-1.07-1.07,0-.56,.48-1.03,1.07-1.03h14.3v-1.71h-8.38c-1.27,0-2.18-.99-2.18-2.18v-2.42c0-1.19,.91-2.18,2.18-2.18h8.38v-1.19c0-.71,.56-1.23,1.23-1.23,.72,0,1.23,.56,1.23,1.23v1.19h8.42c1.27,0,2.18,.99,2.18,2.18v2.42c0,1.19-.99,2.18-2.18,2.18h-8.42v1.71h14.3c.56,0,1.03,.44,1.03,1.03s-.44,1.07-1.03,1.07h-31.06Zm24.47,1.47c1.23,0,2.18,1.03,2.18,2.18v9.89c0,1.23-1.03,2.18-2.18,2.18h-17.84c-1.19,0-2.18-.99-2.18-2.18v-9.89c0-1.19,.99-2.18,2.18-2.18h17.84Zm-18.23-7.35h8.06v-2.66h-8.06v2.66Zm17.84,9.61h-17.08v1.79h17.08v-1.79Zm-17.08,3.97v1.83h17.08v-1.83h-17.08Zm0,5.76h17.08v-1.79h-17.08v1.79Zm17.87-22.01h-8.1v2.66h8.1v-2.66Zm7.39,28.2c-.08,.71-.71,1.23-1.39,1.15-2.9-.28-6.63-.99-9.33-2.07-.68-.28-.99-.99-.75-1.71,.2-.6,.87-.91,1.51-.68,2.54,.99,5.6,1.67,8.9,1.95,.64,.08,1.15,.67,1.07,1.35Z"/>
        <path class="cls-2" d="M242.71,50.41c.68,0,1.19,.52,1.19,1.15,0,.68-.56,1.15-1.19,1.15h-11.68c-6,0-10.41-2.78-12.31-7.63-1.51,2.82-3.5,5.84-5.08,7.63-.52,.6-1.43,.64-2.11,.08-.56-.52-.6-1.39-.08-1.95,2.74-2.98,4.85-6.28,6.55-10.25,.28-.64,.99-.91,1.63-.67,.68,.28,.99,1.03,.72,1.63l-.24,.6c.32,1.31,.95,2.94,2.11,4.41,5.04-3.42,10.88-10.13,14.18-17.6h-21.37c-.72,0-1.23-.56-1.23-1.23s.52-1.23,1.23-1.23h22.96c1.03,0,1.79,.99,1.39,1.95-3.14,8.26-9.89,16.13-15.29,19.9,1.67,1.23,3.89,2.07,6.95,2.07h11.68Z"/>
        <path class="cls-2" d="M266.34,42.22c-.4-1.55-.91-2.78-1.47-3.85v13.7c0,.67-.56,1.19-1.23,1.19s-1.23-.52-1.23-1.19v-12.31c-1.11,2.26-2.58,4.53-4.37,6.36-.48,.44-1.23,.36-1.59-.16-.44-.6-.36-1.43,.16-2.03,3.06-3.38,5.24-7.82,5.72-11.64,0-.08,.04-.16,.04-.24h-4.45c-.68,0-1.23-.56-1.23-1.23s.56-1.23,1.23-1.23h4.49v-5.44c-1.31,.24-2.62,.4-3.97,.52-.68,.04-1.23-.48-1.27-1.11-.08-.64,.4-1.23,1.07-1.31,3.61-.32,7.23-1.19,9.53-2.07,.6-.24,1.27,.04,1.47,.6,.24,.71-.04,1.43-.68,1.71-1.03,.4-2.3,.79-3.69,1.15v5.96h3.61c.68,0,1.23,.56,1.23,1.23s-.52,1.23-1.23,1.23h-3.61v2.11l.12,.12c1.39,1.67,2.9,4.53,3.58,6.95,.2,.68-.2,1.39-.87,1.67-.56,.24-1.19-.08-1.35-.68Zm24.43,8.42c-1.19,1.79-2.54,2.46-5.04,2.46-3.73,0-5.24-1.15-5.24-3.93v-11.16h-2.42c-.56,6.71-4.01,12.08-9.45,14.78-.64,.28-1.35-.04-1.59-.68-.28-.67,.04-1.39,.71-1.75,4.49-2.26,7.39-6.83,7.87-12.35h-2.18c-1.19,0-2.15-.95-2.15-2.15v-7.19c0-1.19,.95-2.14,2.15-2.14h6.32c1.71-1.71,3.14-4.09,3.89-6.55,.2-.67,.83-1.03,1.47-.83,.68,.24,1.07,.95,.87,1.59-.56,1.91-1.67,4.09-2.98,5.8h2.9c1.19,0,2.15,.99,2.15,2.14v7.19c0,1.19-.95,2.15-2.15,2.15h-2.94v10.96c0,1.39,.68,1.75,3.06,1.75,1.35,0,1.99-.32,2.74-1.51,.36-.56,1.07-.75,1.59-.4,.64,.44,.79,1.23,.44,1.83Zm-17-21.73v6.71h11.76v-6.71h-11.76Z"/>
        <path class="cls-2" d="M313.77,46.35c-2.7,1.39-6.79,2.98-9.93,3.73-.68,.16-1.35-.28-1.51-.99-.12-.68,.32-1.35,1.03-1.55,1.23-.28,2.42-.68,3.61-1.07v-11.84h-2.82c-.71,0-1.27-.6-1.27-1.27,0-.71,.56-1.27,1.27-1.27h2.82v-7.83h-3.06c-.68,0-1.23-.56-1.23-1.23,0-.72,.52-1.27,1.23-1.27h8.7c.71,0,1.27,.56,1.27,1.27,0,.67-.6,1.23-1.27,1.23h-3.06v7.83h2.86c.71,0,1.23,.6,1.23,1.27,0,.71-.56,1.27-1.23,1.27h-2.86v10.84c1.31-.56,2.54-1.15,3.54-1.71,.56-.32,1.27-.04,1.47,.56,.24,.79-.08,1.63-.79,2.03Zm20.81,3.89c.68,0,1.23,.56,1.23,1.27,0,.68-.56,1.27-1.23,1.27h-19.78c-.68,0-1.23-.6-1.23-1.27s.56-1.27,1.23-1.27h8.66v-4.73h-6.4c-.71,0-1.27-.56-1.27-1.23s.56-1.27,1.27-1.27h6.4v-4.85h-5.84c-1.19,0-2.15-.95-2.15-2.14v-13.19c0-1.19,.99-2.15,2.15-2.15h14.14c1.23,0,2.15,.95,2.15,2.15v13.19c0,1.23-.95,2.14-2.15,2.14h-5.84v4.85h6.4c.71,0,1.27,.6,1.27,1.27,0,.71-.6,1.23-1.27,1.23h-6.4v4.73h8.66Zm-11.12-27.17h-5.48v5.2h5.48v-5.2Zm-5.48,12.71h5.48v-5.2h-5.48v5.2Zm13.43-7.51v-5.2h-5.48v5.2h5.48Zm-5.48,7.51h5.48v-5.2h-5.48v5.2Z"/>
        <path class="cls-2" d="M379.63,32.13c.72,0,1.27,.6,1.27,1.27-.04,.68-.6,1.23-1.27,1.23h-13.27v14.94h10.84c.68,0,1.23,.52,1.23,1.23,0,.67-.56,1.23-1.23,1.23h-24.23c-.68,0-1.23-.52-1.23-1.23,0-.68,.56-1.23,1.23-1.23h10.84v-14.94h-13.27c-.68,0-1.23-.56-1.27-1.23,0-.71,.6-1.27,1.27-1.27h13.27v-10.49c0-.75,.6-1.27,1.27-1.27,.71,0,1.27,.56,1.27,1.27v10.49h13.27Z"/>
        <path class="cls-2" d="M426.42,40.4c.64,0,1.11,.52,1.11,1.15s-.52,1.15-1.11,1.15h-2.15v2.3c0,1.19-.95,2.14-2.14,2.14h-9.97v1.91c0,3.38-1.51,4.29-6.99,4.13-.68-.04-1.23-.6-1.19-1.35,0-.67,.56-1.23,1.27-1.19,4.09,.08,4.45,.04,4.45-1.59v-1.91h-11.24c-.6,0-1.11-.48-1.11-1.11s.48-1.15,1.11-1.15h11.24v-2.18h-14.1c-.64,0-1.11-.52-1.11-1.15s.52-1.15,1.11-1.15h14.1v-1.99h-11.24c-.6,0-1.11-.48-1.11-1.15,0-.6,.48-1.11,1.11-1.11h11.24v-2.34h-8.18c-1.23,0-2.15-.99-2.15-2.14v-2.62c0-1.23,.95-2.15,2.15-2.15h8.18v-2.38h-13.74c-.64,0-1.11-.52-1.11-1.15s.52-1.11,1.11-1.11h13.74v-1.63c0-.71,.56-1.23,1.23-1.23s1.23,.52,1.23,1.23v1.63h13.9c.64,0,1.11,.52,1.11,1.11,0,.68-.52,1.15-1.11,1.15h-13.9v2.38h8.38c1.19,0,2.15,.95,2.15,2.15v2.62c0,1.19-.99,2.14-2.15,2.14h-8.38v2.34h9.97c1.19,0,2.14,.95,2.14,2.15v2.1h2.15Zm-24.63-8.74h7.9v-2.62h-7.9v2.62Zm18.39-2.62h-8.02v2.62h8.02v-2.62Zm-8.02,9.37v1.99h9.65v-1.99h-9.65Zm9.65,6.47v-2.18h-9.65v2.18h9.65Z"/>
        <path class="cls-2" d="M451.48,40.99c-.6-.24-.83-1.03-.52-1.63,.71-1.31,1.19-2.82,1.51-4.61h-3.42l.04,13.78c0,3.38-1.99,5.04-5.56,4.65-.68-.08-1.15-.72-1.07-1.43,.08-.64,.68-1.07,1.31-.99,1.71,.24,2.94,.04,2.94-2.22l-.04-8.74c-1.31,2.3-3.02,4.49-4.85,6.08-.48,.4-1.23,.28-1.59-.28s-.28-1.31,.28-1.79c2.74-2.42,4.85-5.72,5.84-9.06h-4.85c-.68,0-1.19-.56-1.19-1.23s.52-1.19,1.19-1.19h5.64c-.99-1.87-2.58-4.13-4.21-5.8-.48-.48-.4-1.23,.12-1.55,.71-.44,1.59-.36,2.11,.28,.72,.83,1.51,1.91,2.26,3.02,1.39-1.15,3.1-2.82,4.33-5.52h-9.53c-.68,0-1.19-.52-1.19-1.19s.56-1.19,1.19-1.19h11.16c.95,0,1.63,.91,1.35,1.79-1.55,4.37-4.01,6.75-5.92,8.3,.4,.64,.75,1.27,1.03,1.87h3.42c1.03,0,1.87,.91,1.75,1.91-.28,1.91-.72,3.97-1.67,6.08-.28,.68-1.11,.99-1.87,.68Zm19.15-.83c1.15,0,2.07,.99,2.03,2.11-.16,2.3-.36,5.2-.64,6.75-.56,3.26-2.82,4.53-7.15,4.09-.64-.08-1.11-.71-.99-1.39,.08-.68,.72-1.11,1.39-1.07,2.98,.28,4.05-.24,4.33-2.07,.24-1.35,.44-3.89,.56-6.04h-6.04c-1.51,4.93-4.73,8.38-9.69,10.29-.64,.24-1.31-.12-1.51-.75-.2-.68,.16-1.39,.83-1.67,3.93-1.63,6.47-4.13,7.79-7.86h-5.08c-.68,0-1.19-.52-1.19-1.19s.56-1.19,1.19-1.19h5.72c.2-.99,.32-2.03,.4-3.14,.08-.68,.64-1.23,1.31-1.23s1.19,.56,1.15,1.19c-.08,1.11-.2,2.18-.36,3.18h5.96Zm2.98-3.06c-.08,.67-.71,1.11-1.35,.95-2.98-.75-5.76-2.18-8.26-4.21-1.99,1.59-4.37,2.9-7.07,3.81-.6,.24-1.31-.12-1.51-.79-.2-.64,.16-1.35,.79-1.59,2.3-.87,4.29-1.91,5.92-3.1-1.15-1.15-2.22-2.46-3.22-3.89-.36-.6-.24-1.35,.36-1.79,.52-.36,1.27-.2,1.67,.36,.95,1.39,1.95,2.62,3.06,3.69,1.55-1.51,2.7-3.26,3.5-5.32h-7.94c-1.11,1.55-2.38,2.9-3.61,3.77-.48,.36-1.15,.24-1.55-.28-.36-.48-.28-1.15,.16-1.59,2.26-2.11,4.09-4.73,5.01-7.07,.28-.67,.95-1.07,1.63-.87s1.03,.91,.79,1.55c-.28,.71-.6,1.47-.99,2.18h11.44c.64,0,1.15,.52,1.15,1.15,0,.68-.52,1.15-1.15,1.15h-2.26c-.79,2.58-2.26,4.93-4.29,6.95,1.99,1.55,4.21,2.66,6.63,3.34,.72,.2,1.19,.87,1.11,1.59Z"/>
        <path class="cls-2" d="M487.55,23.4c-.71,0-1.23-.6-1.23-1.27s.52-1.27,1.23-1.27h13.9c.71,0,1.27,.6,1.27,1.27,0,.71-.6,1.27-1.27,1.27h-13.9Zm13.86,14.26c0,1.19-.99,2.14-2.15,2.14h-8.26c0,2.07-.08,7.83-1.67,12.55-.28,.75-1.07,1.19-1.91,1.03-.64-.12-.99-.83-.71-1.47,1.87-4.41,1.83-9.73,1.83-14.66v-7.47c0-1.19,.95-2.14,2.14-2.14h8.58c1.19,0,2.15,.95,2.15,2.14v7.87Zm-2.46-.28v-7.31h-7.9v7.31h7.9Zm19.23-5.56c.68,0,1.23,.56,1.23,1.23s-.56,1.19-1.23,1.19h-3.14v17.8c0,.68-.56,1.23-1.23,1.23s-1.23-.56-1.23-1.23v-17.8h-6.36c-.08,7.03-.95,13.27-2.58,18.27-.2,.71-.95,1.15-1.71,.99-.6-.12-.95-.75-.75-1.39,1.63-4.89,2.5-11.6,2.5-19.03v-7.43c0-1.23,.91-2.26,2.18-2.46,4.57-.64,8.7-1.67,11.84-2.94,.6-.28,1.27,.08,1.43,.68,.24,.75-.16,1.51-.83,1.79-3.26,1.27-7.51,2.3-12.08,2.98v6.12h11.96Z"/>
      </g>
      <circle class="cls-2" cx="78.33" cy="38.94" r="2.15"/>
      <ellipse class="cls-2" cx="103.8" cy="24.99" rx="1.85" ry="2.82" transform="translate(-2.38 13.84) rotate(-7.54)"/>
      <circle class="cls-2" cx="196.97" cy="30.3" r="2.11"/>
      <circle class="cls-2" cx="197.07" cy="51.14" r="2.11"/>
      <circle class="cls-2" cx="242.63" cy="50.09" r="2.62"/>
    </g>
    <circle class="cls-2" cx="443.74" cy="50.92" r="2.26"/>
  </g>
  <g>
    <path class="cls-1" d="M76.06,21.65c-.59-.44-1.15-.92-1.72-1.39-.34-.27-.67-.56-.97-.88,0,0,0,0,0,0-.17-.17-.46-.1-.53,.13-.4,1.29,.46,3.14,1.84,4.18,1.38,1.04,2.82,.93,3.8,.06,.16-.14,.14-.4-.05-.51-.25-.15-.5-.31-.73-.45-.55-.38-1.11-.74-1.65-1.14Z"/>
    <path class="cls-1" d="M78.39,18.77c-1.38-1.04-3.4-1.36-4.53-.62-.2,.13-.19,.43,.02,.55,.02,0,.03,.02,.03,.02,.38,.21,.75,.44,1.11,.69,.61,.42,1.22,.82,1.81,1.27,.54,.4,1.04,.84,1.55,1.27,.19,.17,.4,.36,.61,.55,.16,.15,.41,.1,.51-.1,.56-1.18,.28-2.6-1.1-3.64Z"/>
  </g>
  <g>
    <path class="cls-1" d="M75.95,31.18c-.58-.46-1.12-.95-1.67-1.44-.33-.28-.65-.58-.95-.9,0,0,0,0,0,0-.16-.18-.46-.11-.54,.11-.44,1.28,.37,3.16,1.72,4.24,1.35,1.08,2.8,1.01,3.8,.17,.16-.14,.15-.4-.03-.51-.25-.16-.49-.32-.71-.47-.54-.39-1.09-.77-1.61-1.19Z"/>
    <path class="cls-1" d="M78.37,28.37c-1.35-1.08-3.36-1.46-4.51-.75-.2,.13-.2,.42,0,.55,.02,0,.03,.02,.03,.02,.38,.22,.74,.46,1.09,.73,.6,.43,1.19,.86,1.77,1.32,.52,.42,1.01,.87,1.51,1.31,.18,.18,.39,.37,.59,.57,.15,.15,.41,.11,.51-.08,.6-1.16,.35-2.59-1-3.67Z"/>
  </g>
  <g>
    <path class="cls-1" d="M226.15,23.7c-.49-.63-.93-1.28-1.38-1.92-.28-.38-.53-.77-.76-1.18,0,0,0,0,0,0-.13-.23-.45-.23-.59-.02-.78,1.23-.41,3.39,.73,4.85,1.14,1.47,2.66,1.76,3.92,1.13,.21-.1,.25-.38,.09-.54-.22-.23-.43-.46-.63-.67-.47-.55-.94-1.08-1.38-1.65Z"/>
    <path class="cls-1" d="M229.38,21.37c-1.14-1.47-3.14-2.37-4.52-1.91-.24,.08-.32,.39-.14,.57,.01,.01,.02,.02,.03,.03,.34,.32,.66,.67,.95,1.03,.51,.6,1.03,1.19,1.52,1.82,.44,.57,.84,1.16,1.25,1.75,.15,.23,.31,.49,.48,.75,.12,.2,.4,.22,.55,.04,.92-1.06,1.02-2.61-.12-4.08Z"/>
  </g>
  <g>
    <path class="cls-1" d="M276.11,22.32c-.45-.58-.87-1.19-1.29-1.79-.26-.35-.5-.72-.71-1.1,0,0,0,0,0,0-.12-.21-.42-.22-.55-.01-.73,1.14-.38,3.16,.68,4.52,1.06,1.37,2.48,1.64,3.65,1.06,.19-.1,.24-.35,.09-.51-.2-.21-.4-.43-.58-.62-.44-.51-.88-1.01-1.29-1.54Z"/>
    <path class="cls-1" d="M279.12,20.15c-1.06-1.37-2.92-2.21-4.21-1.78-.23,.07-.3,.36-.13,.53,.01,.01,.02,.02,.03,.03,.32,.3,.61,.62,.89,.96,.48,.56,.96,1.11,1.41,1.7,.41,.53,.78,1.08,1.17,1.63,.14,.21,.29,.46,.44,.69,.11,.18,.37,.2,.51,.04,.85-.99,.95-2.43-.11-3.8Z"/>
  </g>
  <text class="cls-3" transform="translate(74.03 76.35)"><tspan x="0" y="0" xml:space="preserve">HAMADA  TAKAYUKI  TAX  ACCOUNTANT  OFFICE</tspan></text>
  <g>
    <g>
      <path class="cls-2" d="M16.12,43.39c-.37-1.07,.84-1.62,1.67-1.8s1.73-.31,2.58-.54c1.72-.47,3.36-1.19,4.78-2.28,.15-.11,.15-.35-.05-.41-.91-.26-2.03-.26-2.83,.32s-.83,1.7-1.02,2.61c-.25,1.23-.67,2.43-1.06,3.62-.2,.63-.4,1.25-.61,1.88-.15,.47-.28,1.48-.88,1.57-.29,.04-.16,.48,.12,.43,.84-.13,1.01-1.33,1.22-1.98,.39-1.2,.79-2.4,1.16-3.61,.17-.56,.33-1.13,.45-1.71,.11-.5,.15-1.02,.29-1.52,.37-1.34,1.86-1.51,3.02-1.19l-.05-.41c-1.72,1.31-3.75,2.08-5.85,2.51-.89,.19-1.92,.21-2.69,.76-.58,.42-.94,1.15-.69,1.85,.09,.27,.53,.15,.43-.12h0Z"/>
      <path class="cls-2" d="M22.8,44.57c.32-.53,.85-1.06,1.53-.92s.75,.79,.68,1.37c-.05,.49-.18,.99-.45,1.41-.18,.29-.66,.93-1.02,.32-.12-.2-.04-.53,.03-.73,.29-.82,1.21-1.39,2.06-1.3,.4,.04,.44,.46,.71,.72,.22,.21,.51,.37,.81,.45,.21,.06,.61,.12,.82,0,.15-.09,.2-.36,.27-.51,.12-.29,.25-.58,.37-.86,.07-.17,.13-.36,.23-.51,.35-.53,.76-.41,1.21-.17,.4,.22,.77,.5,1.16,.75,1.13,.71,2.95,1.23,3.79-.19,.15-.25-.24-.48-.39-.23-.61,1.03-1.98,.72-2.84,.23-.71-.41-1.69-1.43-2.58-1.26s-1,1.37-1.35,2c-.21,.37-.43,.41-.83,.22-.25-.12-.49-.33-.62-.58-.2-.38-.22-.45-.69-.5-1.29-.15-3.01,1.07-2.62,2.52,.16,.6,.71,.87,1.25,.51,.68-.45,.99-1.31,1.1-2.08,.12-.83,.01-1.73-.91-1.99s-1.67,.38-2.11,1.1c-.15,.25,.24,.47,.39,.23h0Z"/>
      <path class="cls-2" d="M33.02,41.63c-1.47,1.74-2.95,3.48-4.42,5.21-.19,.22,.13,.54,.32,.32,1.47-1.74,2.95-3.48,4.42-5.21,.19-.22-.13-.54-.32-.32h0Z"/>
    </g>
    <path class="cls-2" d="M13.24,51.92c-2.79-3.42-4.74-7.48-5.66-11.81-.54-2.51-.52-4.67,.7-6.98,.91-1.73,2.13-3.26,3.55-4.59,3.22-3,7.36-4.77,11.66-5.57,2.36-.44,4.77-.58,7.16-.52,1.96,.04,4.92-.14,6.31,1.53,1.65,1.98-1.21,3.96-2.7,4.87-1.86,1.13-3.9,1.89-6.03,2.35-1.9,.41-3.83,.57-5.77,.6-1.78,.03-3.65,.09-5.39-.33-2.78-.67-3.32-3.74-2.68-6.2,1-3.87,4.89-6.66,7.94-8.91,1.52-1.12,3.2-2.04,4.66-3.23,.95-.77,1.67-1.8,1.45-3.08-.27-1.56-1.64-2.34-2.78-3.25-.57-.45-1.25-1.01-1.18-1.82,.11-1.17,1.41-2.18,2.28-2.82,1.14-.86,.02-2.81-1.14-1.94-1.7,1.28-3.68,3.06-3.35,5.42,.25,1.74,1.7,2.64,2.96,3.65,1.2,.95,1.18,1.49,0,2.37-1.81,1.35-3.76,2.51-5.54,3.91-3.47,2.73-7.22,5.9-7.73,10.58-.34,3.14,.93,6.45,4.15,7.4,1.91,.57,4.03,.53,6.01,.51,2.31-.02,4.64-.21,6.9-.72,2.45-.55,4.84-1.51,6.94-2.89,1.78-1.17,3.73-2.86,3.76-5.17,.07-5.57-8.15-5.2-11.8-5.04-5.17,.23-10.39,1.51-14.74,4.4s-8.69,7.8-8.22,13.24c.49,5.72,3.1,11.23,6.69,15.63,.92,1.12,2.5-.48,1.59-1.59h0Z"/>
    <path class="cls-2" d="M10.75,52.41c1.8,2.37,3.89,4.48,6.35,6.19,2.58,1.79,6.28,1.2,9.24,1,2.55-.17,4.65-.88,6.63-2.54,2.16-1.81,3.87-4.23,5.17-6.71,1.94-3.69,2.62-7.48,3.06-11.62,.29-2.73,.36-5.64,1.8-8.07,.66-1.11,1.67-2.21,2.96-2.59,1.45-.42,3.09,.29,4.11,1.33,2.47,2.52,1.09,6.15-.43,8.77-.68,1.17-2.17,3.03-3.73,2.94-.57-.03-1.28-.48-1.23-1.11,.06-.82,.99-1.2,1.66-1.33,1.42-.29,.82-2.46-.6-2.17-2.53,.51-4.54,3.56-2.42,5.72,2.41,2.45,5.84,.38,7.53-1.83,1.91-2.5,3.39-6.11,2.62-9.25-.67-2.77-2.98-4.97-5.84-5.37-3.22-.45-5.86,2.01-7.1,4.77-1.34,2.97-1.35,6.31-1.73,9.49-.59,5.05-2.16,9.69-5.57,13.59-1.19,1.36-2.58,2.67-4.31,3.28-1.87,.66-4.04,.56-6,.59-1.07,.01-2.36,.18-3.4-.11-.88-.24-1.71-.98-2.4-1.54-1.66-1.33-3.15-2.86-4.44-4.55-.86-1.14-2.82-.02-1.94,1.14h0Z"/>
    <path class="cls-2" d="M12.25,52.55c-4.43,.6-13.73,2.06-12.05,8.51,.76,2.91,3.86,4.23,6.46,5.06,3.88,1.24,8.06,1.45,12.11,1.47,4.81,.03,9.63-.11,14.39-.82,2.6-.39,5.03-.73,7.53-1.57,2.75-.92,5.74-2.38,7.6-4.68,2.33-2.89,.91-6.48-2.32-7.79-2.85-1.15-6.15-1.35-9.2-1.37-1.45,0-1.45,2.24,0,2.25,2.23,.01,4.49,.16,6.67,.68,1.15,.28,2.69,.63,3.38,1.7,.78,1.19,.34,2.53-.59,3.47-3.44,3.5-8.42,4.36-13.04,5.05-4.15,.62-8.31,.75-12.51,.83-2.46,.05-4.93-.01-7.38-.24-3.07-.28-6.49-.84-9.16-2.5-1.2-.75-2.12-1.97-1.82-3.46,.32-1.61,2.15-2.33,3.53-2.83,2.25-.8,4.63-1.27,7-1.59,1.43-.19,.82-2.36-.6-2.17h0Z"/>
  </g>
</svg>