<?xml version="1.0" encoding="UTF-8"?>
<svg id="_レイヤー_1" data-name="レイヤー 1" xmlns="http://www.w3.org/2000/svg" viewBox="0 0 1032.59 874.1">
  <defs>
    <style>
      .cls-1 {
        fill: #56bed1;
        stroke: #56bed1;
        stroke-width: 54px;
      }

      .cls-1, .cls-2, .cls-3, .cls-4, .cls-5, .cls-6, .cls-7 {
        stroke-miterlimit: 10;
      }

      .cls-8 {
        font-size: 23px;
      }

      .cls-8, .cls-9, .cls-10 {
        fill: #f2f2f2;
      }

      .cls-8, .cls-10 {
        font-family: KiwiMaru-Regular, 'Kiwi Maru';
      }

      .cls-2 {
        stroke-width: 15px;
      }

      .cls-2, .cls-3, .cls-6, .cls-7 {
        fill: none;
        stroke: #e6e6e6;
      }

      .cls-11 {
        fill: #fff;
      }

      .cls-3 {
        stroke-width: 24px;
      }

      .cls-4 {
        fill: #736357;
        stroke: #736357;
      }

      .cls-4, .cls-5 {
        stroke-width: 2px;
      }

      .cls-5 {
        fill: #557968;
        stroke: #f2f2f2;
      }

      .cls-6 {
        stroke-width: 11px;
      }

      .cls-10 {
        font-size: 26px;
      }

      .cls-7 {
        stroke-width: 27px;
      }
    </style>
  </defs>
  <line class="cls-6" x1="67.31" y1="585.5" x2="543.31" y2="585.5"/>
  <path class="cls-1" d="M585.42,840.49c-3.74-27.27-7.49-54.53-11.23-81.8-3.7-26.94-7.28-53.63-6.77-80.88,.5-26.97,.99-53.48-2.07-80.36-3-26.35-7.69-52.49-12.08-78.65-9.03-53.86-18.05-107.71-27.08-161.57-2.31-13.81-4.63-27.62-6.94-41.43-1.99-11.85-3.79-23.77-8.81-34.82-4.98-10.97-12.97-20.21-16.96-31.67-4.33-12.43-6.56-25.7-9.09-38.57-11.7-59.54-19.28-119.94-28.21-179.93-.99-6.67-11.28-3.84-10.29,2.8,8.02,53.87,15.17,107.96,24.77,161.59,2.31,12.93,4.82,25.82,7.67,38.65,2.69,12.12,6.06,23.79,12.5,34.54,6.38,10.63,12.16,20.21,14.9,32.44,2.84,12.69,4.56,25.68,6.71,38.5,9.03,53.86,18.05,107.71,27.08,161.57,4.51,26.89,9.37,53.75,13.16,80.74,3.81,27.16,5.25,54.15,4.46,81.55-.44,15.18-.79,30.34,.35,45.5,1.1,14.56,3.16,29.03,5.14,43.49,4.17,30.37,8.34,60.75,12.51,91.12,.92,6.68,11.21,3.83,10.29-2.8Z"/>
  <line class="cls-6" x1="5.31" y1="395.5" x2="921.31" y2="395.5"/>
  <line class="cls-7" x1="792.31" y1="838.5" x2="792.31" y2="4.5"/>
  <line class="cls-3" x1="562.81" y1="18" x2="618.31" y2="395.5"/>
  <line class="cls-6" x1="409.31" y1="396" x2="409.31" y2="838.5"/>
  <line class="cls-2" x1="178.31" y1="17.5" x2="178.31" y2="847.5"/>
  <g>
    <rect class="cls-5" x="136.51" y="375.77" width="84.33" height="39.24" rx="17.41" ry="17.41"/>
    <g>
      <circle class="cls-11" cx="153.93" cy="395.39" r="11.25"/>
      <circle class="cls-11" cx="203.96" cy="395.39" r="11.25"/>
      <circle class="cls-11" cx="178.95" cy="395.39" r="11.25"/>
    </g>
  </g>
  <g>
    <rect class="cls-5" x="136.71" y="565.55" width="84.33" height="39.24" rx="17.41" ry="17.41"/>
    <g>
      <circle class="cls-11" cx="154.12" cy="585.17" r="11.25"/>
      <circle class="cls-11" cx="204.16" cy="585.17" r="11.25"/>
      <circle class="cls-11" cx="179.14" cy="585.17" r="11.25"/>
    </g>
  </g>
  <g>
    <rect class="cls-5" x="576.41" y="376.15" width="84.33" height="39.24" rx="17.41" ry="17.41"/>
    <g>
      <circle class="cls-11" cx="593.83" cy="395.77" r="11.25"/>
      <circle class="cls-11" cx="643.86" cy="395.77" r="11.25"/>
      <circle class="cls-11" cx="618.85" cy="395.77" r="11.25"/>
    </g>
  </g>
  <g>
    <rect class="cls-5" x="750.41" y="376.15" width="84.33" height="39.24" rx="17.41" ry="17.41"/>
    <g>
      <circle class="cls-11" cx="767.83" cy="395.77" r="11.25"/>
      <circle class="cls-11" cx="817.86" cy="395.77" r="11.25"/>
      <circle class="cls-11" cx="792.85" cy="395.77" r="11.25"/>
    </g>
  </g>
  <circle class="cls-11" cx="840.39" cy="274.58" r="11.25"/>
  <circle class="cls-11" cx="137.03" cy="515.49" r="11.25"/>
  <circle class="cls-11" cx="435.03" cy="627.49" r="11.25"/>
  <text class="cls-8" transform="translate(0 523.49)"><tspan x="0" y="0">次郎長の墓</tspan></text>
  <g>
    <path class="cls-9" d="M891.19,265.69c.23,.01,.42,.11,.56,.29,.15,.18,.22,.37,.22,.59,0,.26-.1,.48-.29,.64s-.42,.25-.68,.23c-1.17-.09-2.37-.14-3.61-.14-1.55,0-3.13,.04-4.74,.12-1.61,.08-3.22,.12-4.83,.12-.94,0-1.88-.02-2.83-.07-.23-.01-.43-.11-.59-.28-.16-.17-.24-.37-.24-.6,0-.26,.1-.47,.29-.64s.41-.25,.66-.23c.86,.05,1.73,.07,2.62,.07,.71,0,1.42-.01,2.14-.04,.72-.02,1.43-.04,2.14-.06,.15,0,.21-.07,.18-.21-.05-.72-.08-1.49-.09-2.3-.02-.81-.02-1.62-.02-2.42,0-.58,0-1.13,.01-1.66,0-.52,.02-1,.03-1.45,0-.14-.07-.21-.21-.21-1.07,.05-2.12,.07-3.13,.07-.34,0-.67,0-1-.01-.33,0-.65-.02-.95-.04-.23-.01-.42-.11-.58-.28s-.23-.36-.23-.58c0-.26,.1-.48,.29-.67,.19-.18,.41-.26,.66-.23,.35,.02,.71,.03,1.06,.04,.35,0,.71,.01,1.08,.01,1.4,0,2.82-.04,4.28-.12s2.83-.12,4.12-.12c.31,0,.61,0,.9,.01,.29,0,.57,.02,.83,.03,.25,.02,.45,.11,.61,.29,.16,.18,.24,.38,.24,.61,0,.25-.08,.46-.25,.63-.17,.18-.38,.26-.64,.24-.2-.02-.41-.02-.64-.02h-.71c-.57,0-1.16,0-1.78,.02s-1.26,.03-1.92,.05c-.14,0-.21,.07-.21,.21-.02,.43-.03,.9-.03,1.43s-.01,1.07-.01,1.63c0,.8,0,1.61,.02,2.44,.02,.83,.05,1.59,.09,2.3,.03,.14,.12,.21,.25,.21,.58-.02,1.17-.03,1.75-.05,.58-.02,1.15-.02,1.7-.02,1.23,0,2.39,.05,3.5,.14Z"/>
    <path class="cls-9" d="M914.56,267.79c.12,.2,.18,.38,.18,.55,0,.32-.13,.59-.39,.8-.15,.12-.32,.18-.51,.18-.28,0-.51-.12-.71-.37-.49-.71-1.07-1.38-1.73-2.02-.66-.64-1.36-1.23-2.12-1.75-.75-.52-1.51-.93-2.28-1.24-.11-.05-.2-.03-.28,.05-.98,.92-2.11,1.82-3.38,2.71-1.27,.89-2.71,1.69-4.32,2.42-.11,.05-.22,.07-.34,.07-.2,0-.39-.08-.56-.23s-.26-.36-.26-.62c0-.2,.05-.39,.16-.56,.11-.18,.26-.3,.46-.38,1.5-.66,2.85-1.41,4.05-2.27,1.2-.85,2.23-1.72,3.12-2.61,.88-.89,1.62-1.74,2.21-2.54s1.02-1.49,1.3-2.06c.14-.29,.25-.58,.34-.85,.09-.28,.14-.52,.14-.74,0-.26-.08-.47-.23-.63s-.43-.24-.83-.24c-.17,0-.38,.02-.64,.07-.52,.08-1.22,.15-2.09,.23-.87,.08-1.83,.14-2.85,.18-1.03,.05-2.04,.07-3.04,.07-.23,0-.43-.08-.59-.25s-.24-.37-.24-.6c0-.26,.09-.48,.26-.64,.18-.17,.39-.25,.63-.25h1.03c1.36,0,2.65-.05,3.84-.14,1.2-.09,2.12-.2,2.78-.32,.17-.03,.33-.05,.48-.07,.15-.01,.3-.02,.44-.02,.9,0,1.59,.25,2.07,.74,.48,.49,.71,1.12,.71,1.89,0,.72-.21,1.51-.62,2.37-.25,.52-.57,1.08-.98,1.69s-.89,1.23-1.44,1.87c-.03,.03-.05,.08-.05,.14s.04,.11,.12,.16c.78,.37,1.56,.84,2.32,1.42,.77,.58,1.48,1.19,2.14,1.85,.66,.66,1.22,1.31,1.68,1.96Z"/>
    <path class="cls-9" d="M921.3,266.36c-.15,.14-.35,.21-.58,.21-.29,0-.52-.11-.69-.34-.12-.17-.18-.35-.18-.55,0-.31,.12-.55,.35-.74,1.07-.9,1.92-1.81,2.55-2.7,.63-.9,1.12-1.77,1.48-2.63,.36-.86,.66-1.67,.91-2.44,.06-.2,.17-.36,.33-.48,.16-.12,.34-.18,.54-.18,.26,0,.48,.1,.66,.29,.18,.19,.26,.41,.26,.66,0,.05-.02,.13-.05,.25-.31,1.06-.69,2.07-1.15,3.05s-1.04,1.92-1.75,2.85c-.71,.93-1.6,1.85-2.69,2.77Zm15.73,.32c-.2,0-.38-.07-.55-.22-.17-.15-.27-.33-.3-.56-.17-1.03-.48-1.96-.92-2.79-.44-.84-.95-1.6-1.52-2.29-.57-.69-1.13-1.33-1.7-1.92-.57-.59-1.06-1.16-1.47-1.71-.12-.17-.18-.34-.18-.51,0-.32,.14-.57,.41-.74,.17-.09,.34-.14,.51-.14,.34,0,.6,.13,.78,.39,.41,.52,.91,1.08,1.48,1.69,.57,.61,1.16,1.28,1.76,2.02,.6,.74,1.14,1.58,1.62,2.51,.48,.93,.82,1.98,1.02,3.16,.05,.28-.02,.53-.21,.76-.18,.23-.43,.34-.74,.34Zm-1.79-10.46c-.67,0-1.25-.24-1.73-.71-.48-.48-.71-1.05-.71-1.72s.24-1.25,.71-1.73c.48-.47,1.05-.71,1.73-.71s1.25,.24,1.73,.71c.48,.48,.71,1.05,.71,1.73s-.24,1.25-.71,1.72c-.48,.48-1.05,.71-1.73,.71Zm0-.92c.41,0,.77-.15,1.07-.44,.3-.29,.45-.65,.45-1.08s-.15-.77-.45-1.07c-.3-.3-.66-.45-1.07-.45s-.79,.15-1.08,.45c-.29,.3-.44,.66-.44,1.07s.15,.79,.44,1.08c.29,.29,.65,.44,1.08,.44Z"/>
    <path class="cls-9" d="M944.14,268.93c-.14,.09-.28,.14-.44,.14-.31,0-.54-.14-.71-.41-.08-.15-.12-.3-.12-.44,0-.32,.12-.58,.37-.78,1.01-.8,1.83-1.71,2.46-2.74,.63-1.03,1.09-2.26,1.39-3.69s.45-3.14,.45-5.12c0-.25,.08-.45,.25-.62,.17-.17,.37-.25,.6-.25,.26,0,.48,.09,.67,.26,.18,.18,.27,.4,.25,.66-.08,1.84-.23,3.44-.45,4.8-.22,1.36-.54,2.53-.94,3.53-.41,1-.92,1.87-1.54,2.62-.62,.75-1.37,1.43-2.24,2.05Zm15.27-4.88c-.81,1.06-1.63,1.85-2.45,2.37-.82,.52-1.57,.78-2.24,.78-.8,0-1.45-.35-1.96-1.05-.51-.7-.75-1.74-.74-3.14v-8.72c0-.26,.09-.48,.26-.66,.18-.18,.39-.26,.63-.26,.26,0,.48,.09,.66,.26,.18,.18,.26,.39,.26,.66v8.51c0,1.66,.35,2.48,1.06,2.48,.37,0,.82-.21,1.35-.62,.53-.41,1.12-1.02,1.78-1.82,.87-1.01,1.62-2.19,2.25-3.52,.17-.37,.46-.55,.87-.55,.26,0,.48,.09,.64,.28,.17,.18,.25,.39,.25,.62,0,.14-.03,.26-.09,.37-.37,.75-.77,1.46-1.21,2.13s-.89,1.29-1.35,1.87Z"/>
    <path class="cls-9" d="M983.56,267.79c.12,.2,.18,.38,.18,.55,0,.32-.13,.59-.39,.8-.15,.12-.32,.18-.51,.18-.28,0-.51-.12-.71-.37-.49-.71-1.07-1.38-1.73-2.02-.66-.64-1.36-1.23-2.12-1.75-.75-.52-1.51-.93-2.28-1.24-.11-.05-.2-.03-.28,.05-.98,.92-2.11,1.82-3.38,2.71-1.27,.89-2.71,1.69-4.32,2.42-.11,.05-.22,.07-.34,.07-.2,0-.39-.08-.56-.23s-.26-.36-.26-.62c0-.2,.05-.39,.16-.56,.11-.18,.26-.3,.46-.38,1.5-.66,2.85-1.41,4.05-2.27,1.2-.85,2.23-1.72,3.12-2.61,.88-.89,1.62-1.74,2.21-2.54s1.02-1.49,1.3-2.06c.14-.29,.25-.58,.34-.85,.09-.28,.14-.52,.14-.74,0-.26-.08-.47-.23-.63s-.43-.24-.83-.24c-.17,0-.38,.02-.64,.07-.52,.08-1.22,.15-2.09,.23-.87,.08-1.83,.14-2.85,.18-1.03,.05-2.04,.07-3.04,.07-.23,0-.43-.08-.59-.25s-.24-.37-.24-.6c0-.26,.09-.48,.26-.64,.18-.17,.39-.25,.63-.25h1.03c1.36,0,2.65-.05,3.84-.14,1.2-.09,2.12-.2,2.78-.32,.17-.03,.33-.05,.48-.07,.15-.01,.3-.02,.44-.02,.9,0,1.59,.25,2.07,.74,.48,.49,.71,1.12,.71,1.89,0,.72-.21,1.51-.62,2.37-.25,.52-.57,1.08-.98,1.69s-.89,1.23-1.44,1.87c-.03,.03-.05,.08-.05,.14s.04,.11,.12,.16c.78,.37,1.56,.84,2.32,1.42,.77,.58,1.48,1.19,2.14,1.85,.66,.66,1.22,1.31,1.68,1.96Z"/>
    <path class="cls-9" d="M882.29,281.9v5.24c0,.12,.06,.2,.18,.23,.98,.12,1.93,.38,2.85,.78s1.78,.88,2.58,1.45c.8,.57,1.5,1.18,2.12,1.84,.18,.18,.28,.41,.28,.67,0,.25-.08,.48-.25,.69-.17,.17-.37,.25-.6,.25-.21,0-.41-.08-.58-.25-.94-1-1.91-1.8-2.91-2.42s-2.15-1.03-3.44-1.24h-.05c-.12,0-.18,.06-.18,.18v8.17c0,.25-.09,.46-.26,.63-.18,.18-.4,.26-.66,.26-.25,0-.46-.09-.63-.26s-.26-.39-.26-.63v-15.59c0-.26,.09-.48,.26-.66s.39-.26,.63-.26c.26,0,.48,.09,.66,.26,.18,.18,.26,.4,.26,.66Zm6.46,4.21c-.25-.38-.54-.79-.87-1.21-.34-.42-.66-.78-.97-1.07-.11-.11-.16-.26-.16-.46,0-.15,.05-.28,.14-.39,.15-.12,.31-.18,.46-.18,.17,0,.31,.05,.41,.16,.35,.34,.7,.73,1.05,1.18,.35,.45,.66,.89,.93,1.3,.06,.08,.09,.18,.09,.32,0,.23-.09,.41-.28,.53-.12,.06-.23,.09-.32,.09-.2,0-.36-.09-.48-.28Zm2.71-1.66c.06,.08,.09,.18,.09,.32,0,.21-.09,.38-.28,.51-.08,.06-.18,.09-.3,.09-.21,0-.38-.09-.51-.28-.25-.37-.53-.76-.84-1.17-.31-.41-.62-.77-.93-1.06-.11-.11-.16-.25-.16-.41s.05-.3,.16-.39c.12-.12,.27-.18,.44-.18,.15,0,.29,.06,.41,.18,.34,.34,.67,.72,1,1.14,.33,.42,.63,.84,.91,1.25Z"/>
    <path class="cls-9" d="M904.12,292.14c-.15,.14-.35,.21-.6,.21-.29,0-.52-.12-.69-.34-.44-.64-.79-1.38-1.02-2.21s-.4-1.69-.49-2.59c-.09-.9-.14-1.78-.14-2.66,0-.81,.02-1.57,.07-2.28,.02-.23,.11-.43,.28-.6,.17-.17,.38-.25,.62-.25,.26,0,.48,.09,.64,.28,.17,.18,.24,.41,.21,.67-.03,.38-.06,.78-.08,1.18s-.03,.82-.03,1.25c0,1.04,.1,2.1,.29,3.17,.19,1.07,.56,2.03,1.12,2.88,.11,.17,.16,.36,.16,.58,0,.31-.11,.54-.32,.71Zm-.09,6.53c-.09,.05-.2,.07-.32,.07-.21,0-.41-.08-.6-.25-.18-.17-.28-.38-.28-.64,0-.44,.2-.75,.6-.92,1.59-.75,2.82-1.61,3.68-2.58,.86-.97,1.45-2.03,1.78-3.2,.33-1.17,.49-2.39,.49-3.68,0-1-.07-2.02-.2-3.08-.13-1.06-.27-2.13-.43-3.22-.03-.26,.04-.48,.21-.67,.17-.18,.38-.28,.62-.28,.21,0,.41,.06,.57,.17s.28,.28,.32,.49c.17,.74,.33,1.66,.47,2.77,.15,1.11,.22,2.26,.22,3.44,0,.95-.06,1.88-.18,2.79-.12,.91-.33,1.73-.62,2.45-.61,1.52-1.46,2.81-2.54,3.86s-2.35,1.88-3.81,2.46Z"/>
    <path class="cls-9" d="M936.27,290.37h-14.35c-.25,0-.45-.08-.62-.25-.17-.17-.25-.38-.25-.62s.08-.45,.25-.62c.17-.17,.38-.25,.62-.25h14.35c.25,0,.45,.08,.62,.25,.17,.17,.25,.38,.25,.62s-.08,.45-.25,.62c-.17,.17-.38,.25-.62,.25Z"/>
    <path class="cls-9" d="M961,295.66c.06,.12,.09,.26,.09,.41,0,.41-.19,.71-.58,.87-.11,.06-.24,.09-.39,.09-.4,0-.68-.18-.85-.55-.14-.29-.28-.58-.44-.86-.15-.28-.31-.56-.46-.84-.06-.09-.15-.14-.25-.14-.61,.02-1.33,.09-2.16,.22-.83,.13-1.71,.28-2.66,.45-.94,.17-1.9,.34-2.86,.52-.97,.18-1.89,.34-2.78,.48-.89,.15-1.69,.24-2.42,.29-.18,.02-.35-.03-.51-.13-.15-.1-.27-.24-.35-.43-.06-.14-.09-.31-.09-.53s.05-.42,.14-.62c.38-.8,.82-1.67,1.31-2.62,.49-.95,1-1.92,1.53-2.91,.53-.99,1.05-1.94,1.55-2.86,.51-.92,.97-1.76,1.38-2.51,.41-.75,.75-1.36,1.01-1.82,.2-.32,.47-.48,.81-.48,.14,0,.28,.04,.44,.11,.32,.15,.48,.41,.48,.78,0,.14-.04,.28-.12,.44-.25,.44-.57,1.02-.97,1.71-.4,.7-.83,1.47-1.3,2.31-.47,.84-.94,1.71-1.43,2.6-.48,.89-.94,1.76-1.38,2.6-.44,.84-.82,1.61-1.14,2.3-.02,.03-.02,.06-.02,.09,0,.12,.06,.17,.18,.14,.6-.06,1.31-.18,2.15-.35,.84-.17,1.73-.35,2.67-.55,.94-.2,1.87-.39,2.78-.58,.91-.18,1.74-.32,2.47-.41,.17-.03,.21-.11,.11-.25-.38-.54-.74-1.02-1.07-1.46-.33-.44-.62-.8-.86-1.09-.14-.17-.21-.35-.21-.55,0-.29,.12-.52,.37-.69,.14-.12,.33-.18,.58-.18,.31,0,.56,.12,.76,.34,.35,.43,.8,1,1.33,1.73s1.09,1.51,1.66,2.37c.57,.86,1.06,1.71,1.47,2.55Z"/>
    <path class="cls-9" d="M971,298.19c-.11,.05-.21,.07-.32,.07-.41,0-.7-.19-.85-.58-.05-.12-.07-.24-.07-.34,0-.38,.19-.67,.57-.85,2.45-1.04,4.42-2.32,5.9-3.82,1.48-1.5,2.55-3.36,3.21-5.57,.09-.31,.16-.59,.22-.86,.05-.27,.08-.5,.08-.7,0-.46-.14-.81-.43-1.04-.28-.23-.75-.38-1.39-.46-.34-.03-.68-.06-1.02-.08-.35-.02-.7-.04-1.07-.04-1.17,0-2.39,.08-3.68,.25-1.29,.17-2.62,.41-4,.71-.25,.05-.48-.01-.69-.17s-.32-.37-.32-.63,.07-.48,.21-.67,.33-.31,.58-.37c.78-.17,1.64-.31,2.58-.44,.94-.12,1.89-.22,2.85-.29,.97-.07,1.87-.1,2.71-.1,.4,0,.78,.01,1.15,.04,.37,.02,.71,.05,1.01,.08,.89,.11,1.57,.32,2.05,.64,.48,.32,.81,.71,1,1.15,.19,.45,.29,.91,.29,1.4,0,.35-.04,.71-.11,1.07-.08,.36-.16,.69-.25,1-.75,2.45-1.96,4.54-3.61,6.26-1.66,1.72-3.85,3.16-6.58,4.32Zm12.21-14.42c-.66,0-1.23-.24-1.71-.72-.48-.48-.72-1.05-.72-1.71s.24-1.25,.72-1.73c.48-.47,1.05-.71,1.71-.71s1.25,.24,1.73,.71c.48,.48,.71,1.05,.71,1.73s-.24,1.23-.71,1.71c-.48,.48-1.05,.72-1.73,.72Zm0-.92c.43,0,.79-.15,1.08-.45,.29-.3,.44-.66,.44-1.07s-.15-.79-.44-1.08c-.29-.29-.65-.44-1.08-.44s-.77,.15-1.07,.44c-.3,.29-.45,.65-.45,1.08s.15,.77,.45,1.07c.3,.3,.66,.45,1.07,.45Z"/>
    <path class="cls-9" d="M994.97,298.26c-.26,.05-.5-.02-.71-.18-.21-.17-.32-.4-.32-.69,0-.21,.07-.41,.22-.58,.15-.17,.33-.28,.54-.32,1.53-.34,2.84-.82,3.91-1.46,1.07-.64,1.97-1.36,2.68-2.18s1.27-1.65,1.67-2.5c.17-.37,.31-.68,.41-.94,.11-.26,.16-.48,.16-.67,0-.26-.12-.44-.37-.53-.25-.09-.65-.14-1.22-.14-.6,0-1.4,.05-2.39,.14-1,.09-2.09,.18-3.28,.28-1.19,.09-2.38,.14-3.58,.14-.15,0-.31,0-.46-.01s-.31-.01-.48-.01c-.25-.01-.45-.11-.62-.29-.17-.18-.25-.39-.25-.63,0-.26,.1-.48,.29-.66,.19-.18,.42-.25,.68-.22,.31,.02,.61,.03,.91,.04,.3,0,.59,.01,.89,.01,1.75,0,3.36-.08,4.84-.23,1.48-.15,2.73-.23,3.76-.23,1.17,0,1.97,.19,2.43,.56,.45,.38,.68,.87,.68,1.48,0,.38-.08,.81-.23,1.29-.15,.48-.35,.97-.6,1.47-.48,.98-1.12,1.94-1.93,2.89-.81,.94-1.84,1.78-3.08,2.51-1.24,.73-2.75,1.28-4.53,1.67Zm7.94-14.54h-9.75c-.25,0-.45-.08-.62-.25-.17-.17-.25-.38-.25-.62s.08-.45,.25-.62c.17-.17,.38-.25,.62-.25h9.75c.25,0,.46,.08,.63,.25,.18,.17,.26,.38,.26,.62s-.09,.45-.26,.62c-.18,.17-.39,.25-.63,.25Z"/>
    <path class="cls-9" d="M1029.05,285.31c.26-.01,.48,.07,.66,.24,.18,.18,.26,.39,.26,.66,0,.23-.08,.43-.24,.59-.16,.16-.36,.25-.59,.26-.44,.02-.97,.03-1.56,.05-.6,.02-1.23,.02-1.91,.02-.14,0-.21,.07-.21,.21-.05,1.2-.15,2.33-.3,3.4s-.43,2.08-.82,3.01-.95,1.8-1.68,2.6c-.73,.8-1.68,1.51-2.86,2.14-.11,.06-.23,.09-.37,.09-.4,0-.67-.17-.81-.51-.06-.11-.09-.23-.09-.37,0-.37,.17-.64,.51-.8,1.3-.72,2.28-1.54,2.94-2.47,.66-.93,1.11-1.98,1.35-3.15,.24-1.17,.37-2.49,.4-3.94,0-.14-.07-.21-.21-.21h-4.81c-.14,0-.21,.07-.21,.21,0,1.03,.02,1.93,.06,2.7,.04,.77,.15,1.5,.33,2.17,.02,.03,.02,.07,.02,.12v.11c0,.23-.07,.43-.21,.6-.14,.17-.35,.25-.64,.25-.18,0-.35-.05-.51-.15s-.27-.24-.34-.43c-.2-.63-.33-1.41-.39-2.36-.06-.94-.1-1.95-.12-3.02,0-.14-.07-.21-.21-.21-.63,.02-1.23,.03-1.81,.03-.58,0-1.11,.03-1.6,.06-.25,.02-.46-.06-.63-.24-.18-.18-.26-.39-.26-.63,0-.23,.08-.43,.24-.6,.16-.17,.36-.26,.59-.28,.52-.01,1.07-.03,1.66-.03,.58,0,1.19-.01,1.82-.01,.14,0,.21-.07,.21-.21v-.97c0-.44,0-.88-.02-1.31-.02-.43-.02-.85-.02-1.26,0-.25,.08-.45,.25-.61,.17-.16,.38-.24,.62-.24s.45,.08,.62,.25c.17,.17,.26,.38,.28,.62,.05,1.3,.07,2.47,.07,3.5,0,.14,.07,.21,.21,.21h4.83c.14,0,.21-.07,.21-.21v-2.96c0-.34,0-.69,.02-1.05,0-.24,.09-.45,.26-.62,.18-.17,.39-.25,.63-.25s.45,.09,.61,.26c.16,.18,.24,.38,.24,.61-.02,.69-.03,1.37-.03,2.04s-.01,1.31-.01,1.94c0,.14,.1,.21,.3,.21,.64-.02,1.24-.03,1.79-.03,.55,0,1.04-.02,1.47-.04Zm-.44-1.26c-.25-.38-.53-.79-.86-1.21-.33-.42-.65-.78-.95-1.07-.12-.12-.18-.27-.18-.44,0-.15,.05-.28,.16-.39,.14-.14,.29-.21,.46-.21,.15,0,.29,.06,.41,.18,.35,.34,.7,.73,1.05,1.17,.34,.45,.66,.88,.93,1.31,.06,.08,.09,.18,.09,.32,0,.21-.09,.38-.28,.51-.08,.06-.18,.09-.32,.09-.21,0-.38-.09-.51-.28Zm2.74-1.66c.06,.08,.09,.18,.09,.32,0,.21-.09,.38-.28,.51-.08,.06-.18,.09-.32,.09-.2,0-.36-.08-.48-.25-.25-.38-.53-.78-.85-1.2-.32-.41-.63-.77-.92-1.06-.12-.12-.18-.26-.18-.41,0-.12,.05-.25,.16-.39,.15-.12,.3-.18,.44-.18,.17,0,.31,.06,.44,.18,.34,.34,.67,.72,1,1.14,.33,.42,.63,.84,.91,1.25Z"/>
  </g>
  <text class="cls-8" transform="translate(600.21 17.97) rotate(81.59)"><tspan x="0" y="0">至　新清水駅</tspan></text>
  <text class="cls-8" transform="translate(453.97 627.05)"><tspan x="0" y="0">次郎長生家</tspan></text>
  <text class="cls-10" transform="translate(531.61 457.26) rotate(81.59)"><tspan x="0" y="0">巴川</tspan></text>
  <text class="cls-8" transform="translate(241.03 374.54)"><tspan x="0" y="0">エスパルス通り</tspan></text>
  <text class="cls-8" transform="translate(829.39 664.14) rotate(90)"><tspan x="0" y="0">国道１４９号線</tspan></text>
  <text class="cls-8" transform="translate(632.91 223.47) rotate(81.59)"><tspan x="0" y="0">県道７５号線</tspan></text>
  <polygon class="cls-9" points="487.19 664.65 487.19 703.7 419.99 704.44 419.99 665.39 453.59 645.5 487.19 664.65"/>
  <polygon class="cls-4" points="481.09 667.52 481.1 699.49 426.09 700.09 426.09 668.13 453.59 651.85 481.09 667.52"/>
  <text class="cls-8" transform="translate(430.73 415.71) rotate(90)"><tspan x="0" y="0">次郎長通り</tspan></text>
</svg>