<?xml version="1.0" encoding="UTF-8"?>
<svg id="_レイヤー_1" data-name="レイヤー 1" xmlns="http://www.w3.org/2000/svg" viewBox="0 0 61.07 61.76">
  <defs>
    <style>
      .cls-1 {
        fill: #fff;
      }
    </style>
  </defs>
  <path class="cls-1" d="M44.86,61.76c-.31,0-.62-.04-.91-.14-.27-.09-.52-.19-.76-.29-.6-.24-1.12-.45-1.8-.46-.85-.02-1.68-.05-2.5-.09-1.71-.07-3.52-.1-5.36-.05-1.41,.04-2.86,.08-4.27-.04-.62-.05-1.16-.28-1.68-.51-.2-.09-.4-.17-.61-.25-.42-.15-.85-.27-1.28-.39-.4-.11-.81-.23-1.2-.37-1.09-.38-2.25-.56-3.38-.73-1.11-.17-2.26-.35-3.37-.72-2.48-.82-4.33-2.52-6.01-4.2-2.02-2.01-3.14-4.3-4.38-7.08-1.24-2.76-2.16-5.83-2.75-9.11-.36-2.02-.42-4.08-.18-6.1,.04-.37,.06-.72,.07-1.07,.02-.42,.03-.83,.1-1.28,.04-.27,.11-.55,.18-.84,.09-.33,.17-.65,.19-.95-1.24-.11-2.79-.45-3.66-1.14-.79-.63-1.66-2.58-1.16-3.62,.69-1.45,3.01-1.52,5.25-1.58,.88-.03,1.72-.05,2.34-.16,.58-3.29,1.09-6.14,2.71-9.16,1.05-1.97,2.7-3.92,4.64-5.5,.87-.71,1.69-1.29,2.59-1.83,.7-.42,1.34-.71,2.02-1.01l.59-.27c.56-.26,1.11-.43,1.64-.6,.48-.15,.93-.29,1.39-.49,.87-.38,1.76-.48,2.63-.58,.34-.04,.68-.08,1.02-.13l.67-.11c1.09-.18,2.22-.37,3.3-.44,.34-.02,.69-.01,1.03,0,.29,.01,.58,.02,.87,0,.34-.02,.67-.1,1.02-.18,.31-.08,.62-.15,.94-.19,1.84-.22,3.77,0,5.64,.23,.52,.06,1.03,.12,1.54,.17,1.26,.13,2.48,.35,3.93,.64,1.16,.23,2.3,.29,3.51,.34,.37,.02,.73,.03,1.1,.06,1.96,.12,3.52,.35,4.93,.74,.67,.18,1.07,.5,1.19,.96,.23,.82-.56,1.63-1.25,2.35-.15,.16-.29,.3-.4,.43-.33,.38-.62,.78-.92,1.19-.23,.31-.46,.63-.71,.94-.22,.27-.46,.53-.71,.8-.39,.42-.79,.85-1.06,1.31-.18,.31-.26,.67-.33,1.04-.09,.42-.18,.85-.42,1.29-.29,.54-.52,1.08-.77,1.66-.14,.34-.29,.68-.44,1.02-.17,.37-.38,.68-.59,.98-.25,.37-.49,.71-.62,1.14-.2,.63-.2,1.3-.19,2.01v.18c0,.89-.09,1.75-.18,2.58-.09,.81-.18,1.64-.18,2.47,0,1.78,.23,3.09,.66,3.79,.33,.54,1.59,.61,2.5,.66,.43,.02,.84,.05,1.17,.11,.81,.16,1.67,.22,2.5,.27,.53,.04,1.06,.07,1.58,.13,.4,.05,.81,.17,1.2,.28,.35,.1,.68,.2,.96,.23,.13,.02,.31,0,.51,0,.61-.02,1.37-.04,1.82,.4,.15,.15,.32,.41,.31,.83,0,.21-.11,.36-.44,.83-.09,.13-.18,.25-.21,.31-.09,.19-.18,.39-.26,.59-.12,.27-.24,.55-.37,.82-.35,.68-.86,.99-1.35,1.29-.26,.16-.51,.31-.74,.52-1.27,1.14-1.55,2.79-.71,4.22,.15,.26,.33,.51,.51,.76,.28,.39,.57,.8,.78,1.27,.11,.25,.15,.5,.19,.73,.02,.15,.04,.29,.08,.39,.04,.12,.11,.23,.18,.34,.18,.3,.4,.67,.34,1.14-.03,.22-.2,.39-.41,.42-1.76,.3-3.33-.38-4.86-1.04-.89-.39-1.73-.75-2.58-.92-1.83-.36-3.71-.41-6.31-.17-1.02,.09-1.55,.4-2.17,1.24-.52,.7-.99,1.84-1.36,3.3-.26,1.03-.58,2.3-.33,3.38,.15,.63,.47,1.32,.77,1.99,.21,.45,.42,.91,.58,1.34,.33,.91,.92,1.49,1.6,2.17,.39,.39,.8,.79,1.18,1.29,.29,.38,.47,.75,.63,1.11,.08,.16,.15,.33,.24,.49,.07,.14,.18,.28,.29,.43,.33,.46,.7,.97,.63,1.57-.03,.23-.2,.41-.43,.44l-.36,.06c-.41,.06-.85,.13-1.28,.13Zm-9.24-2.06c1.14,0,2.24,.05,3.31,.09,.82,.04,1.64,.07,2.48,.09,.86,.02,1.49,.27,2.15,.53,.23,.09,.46,.18,.71,.27,.42,.15,1.01,.07,1.56-.02-.09-.17-.22-.36-.34-.52-.13-.19-.26-.37-.35-.54-.1-.18-.18-.36-.27-.54-.15-.33-.3-.64-.52-.93-.34-.44-.72-.82-1.09-1.19-.7-.7-1.42-1.42-1.83-2.53-.15-.41-.35-.84-.55-1.27-.33-.72-.67-1.46-.84-2.18-.31-1.31,.05-2.72,.33-3.85,.41-1.61,.92-2.84,1.53-3.66,.8-1.07,1.58-1.51,2.88-1.63,1.79-.17,4.17-.3,6.6,.19,.96,.19,1.89,.59,2.78,.98,1.27,.55,2.49,1.08,3.75,1.03-.02-.04-.05-.08-.07-.12-.1-.17-.2-.33-.26-.5-.08-.2-.11-.41-.13-.59-.03-.17-.05-.34-.11-.46-.18-.38-.42-.73-.69-1.1-.2-.27-.39-.55-.56-.83-1.07-1.83-.7-4.03,.91-5.47,.3-.27,.61-.46,.89-.63,.43-.26,.77-.47,.99-.89,.13-.25,.24-.5,.34-.75,.09-.21,.18-.43,.28-.63,.04-.08,.16-.26,.3-.45,.09-.13,.19-.27,.25-.36,0,0,0-.01,0-.02-.14-.14-.75-.12-1.08-.11-.25,0-.48,.01-.65,0-.37-.04-.76-.16-1.13-.27-.35-.1-.71-.21-1.03-.25-.5-.06-1.01-.09-1.53-.13-.86-.06-1.75-.12-2.62-.29-.26-.05-.64-.07-1.03-.1-1.2-.07-2.69-.15-3.29-1.13-.54-.87-.81-2.32-.81-4.32,0-.89,.09-1.75,.18-2.58,.09-.81,.18-1.64,.18-2.47v-.18c0-.75,0-1.53,.24-2.31,.18-.57,.47-.99,.75-1.41,.19-.28,.37-.54,.51-.83,.15-.33,.29-.66,.43-.99,.24-.57,.49-1.16,.81-1.75,.17-.31,.24-.65,.32-1.02,.09-.44,.19-.89,.45-1.34,.32-.55,.76-1.03,1.19-1.49,.23-.25,.46-.49,.66-.74,.24-.29,.46-.6,.68-.9,.31-.43,.62-.85,.97-1.25,.12-.14,.28-.3,.44-.47,.32-.33,1.08-1.12,1.01-1.39,0-.04-.12-.15-.49-.25-1.33-.36-2.83-.59-4.72-.7-.36-.02-.73-.04-1.09-.06-1.19-.06-2.43-.11-3.66-.36-1.42-.29-2.61-.5-3.83-.62-.51-.05-1.03-.11-1.56-.18-1.81-.22-3.68-.44-5.4-.23-.28,.03-.55,.1-.82,.17-.38,.09-.77,.19-1.2,.21-.32,.02-.64,0-.96,0-.31-.01-.62-.02-.93,0-1.03,.07-2.14,.25-3.2,.43l-.68,.11c-.36,.06-.71,.1-1.07,.14-.83,.1-1.61,.18-2.35,.5-.5,.22-1,.38-1.48,.53-.53,.17-1.03,.32-1.53,.56l-.6,.27c-.68,.3-1.27,.57-1.91,.96-.86,.52-1.64,1.07-2.48,1.75-1.84,1.49-3.39,3.34-4.38,5.2-1.55,2.9-2.04,5.69-2.62,8.93l-.05,.27c-.03,.19-.17,.35-.36,.4-.75,.2-1.78,.23-2.88,.27-1.76,.05-3.95,.12-4.37,1.02-.25,.51,.36,2,.88,2.41,.74,.58,2.3,.9,3.53,.95,.23,.01,.42,.17,.47,.39,.13,.61-.03,1.23-.17,1.78-.06,.24-.13,.49-.16,.72-.06,.41-.07,.8-.09,1.19-.02,.38-.03,.75-.08,1.15-.23,1.93-.18,3.88,.17,5.81,.58,3.25,1.46,6.15,2.68,8.88,1.25,2.78,2.28,4.89,4.18,6.79,1.66,1.66,3.34,3.21,5.61,3.96,1.03,.34,2.09,.5,3.21,.68,1.17,.18,2.38,.37,3.55,.77,.38,.13,.76,.24,1.15,.35,.45,.13,.9,.26,1.35,.42,.22,.08,.44,.17,.66,.27,.47,.2,.91,.39,1.37,.43,1.35,.12,2.77,.08,4.15,.04,.71-.02,1.42-.04,2.12-.04ZM8.17,21.01h0Z"/>
</svg>